%
M48
M72
T01C0.0079
T02C0.0320
T03C0.0394
T04C0.0440
%
T01
X3836Y2617
X5647Y2619
X7215Y2623
X9010Y2108
X9812Y2197
X10192Y2456
X10587Y2190
X10974Y2255
X11369Y2499
X11781Y2102
X12173Y2102
X12574Y2102
X12958Y2102
X13353Y2102
X13745Y2102
X14131Y2102
X14547Y2892
X14549Y3322
X14154Y3326
X13760Y3326
X12490Y4401
X12708Y4703
X13058Y4879
X14602Y4539
X16141Y5284
X16056Y5820
X15781Y6073
X16036Y6300
X15183Y7039
X14959Y6837
X15078Y7452
X14710Y7462
X14759Y7840
X14634Y8365
X15148Y8270
X14868Y8962
X14568Y9063
X14265Y9265
X13955Y9265
X13626Y9265
X13176Y9246
X12860Y9158
X13410Y9499
X11940Y9186
X11934Y8682
X11846Y8003
X10713Y7326
X10509Y8172
X10684Y8945
X10442Y9351
X10105Y9480
X8590Y8349
X6704Y6737
X9598Y4661
X11033Y4723
X10885Y6359
X11282Y6359
X11947Y6438
X12130Y6793
X16368Y7624
X16791Y8253
X17769Y8854
X16311Y8984
X16311Y9382
X16289Y9732
X13540Y11380
X13250Y11164
X12153Y11453
X12214Y12428
X16027Y13731
X16809Y12332
X19418Y11855
X19967Y12115
X20528Y10574
X19594Y7910
X21670Y7439
X21975Y7122
X22741Y7397
X23089Y6815
X22741Y6196
X22385Y5820
X18492Y4329
X18789Y3306
X18095Y3019
X16897Y2892
X16491Y2892
X16106Y2892
X15717Y2892
X17836Y5596
X17908Y6440
X20562Y3189
X21789Y2622
X23345Y3082
X10892Y3067
X10486Y2858
X10060Y3213
X6805Y3873
X6820Y10374
X6880Y12287
X6328Y13027
X5385Y14659
X5648Y15349
X2732Y12799
X20595Y14855
X21793Y15364
X23388Y15398
X25143Y12729
T02
X9546Y13100
X9546Y11200
T03
X3252Y9812
X3252Y8080
X19022Y12651
X21581Y12651
X21581Y14422
X19022Y14422
X21631Y3990
T04
X8019Y14172
X4219Y14172
M30
