G75*
%MOIN*%
%OFA0B0*%
%FSLAX25Y25*%
%IPPOS*%
%LPD*%
%AMOC8*
5,1,8,0,0,1.08239X$1,22.5*
%
%ADD10R,0.09449X0.07874*%
%ADD11R,0.09087X0.01969*%
%ADD12R,0.06102X0.00984*%
%ADD13R,0.00984X0.06102*%
%ADD14R,0.03300X0.06300*%
%ADD15R,0.12200X0.06300*%
%ADD16R,0.04016X0.05512*%
%ADD17R,0.05512X0.04016*%
%ADD18R,0.02756X0.02362*%
%ADD19R,0.03346X0.07087*%
%ADD20R,0.02362X0.06299*%
D10*
X0020704Y0072139D03*
X0042358Y0072139D03*
X0042358Y0106785D03*
X0020704Y0106785D03*
D11*
X0044578Y0095761D03*
X0044578Y0092611D03*
X0044578Y0089462D03*
X0044578Y0086312D03*
X0044578Y0083163D03*
D12*
X0112843Y0083983D03*
X0112843Y0085951D03*
X0112843Y0087920D03*
X0112843Y0089888D03*
X0112843Y0091857D03*
X0112843Y0093825D03*
X0112843Y0095794D03*
X0112843Y0082014D03*
X0112843Y0080046D03*
X0112843Y0078077D03*
X0112843Y0076109D03*
X0112843Y0074140D03*
X0112843Y0072172D03*
X0112843Y0070203D03*
X0112843Y0068235D03*
X0112843Y0066266D03*
X0157724Y0066266D03*
X0157724Y0068235D03*
X0157724Y0070203D03*
X0157724Y0072172D03*
X0157724Y0074140D03*
X0157724Y0076109D03*
X0157724Y0078077D03*
X0157724Y0080046D03*
X0157724Y0082014D03*
X0157724Y0083983D03*
X0157724Y0085951D03*
X0157724Y0087920D03*
X0157724Y0089888D03*
X0157724Y0091857D03*
X0157724Y0093825D03*
X0157724Y0095794D03*
D13*
X0150047Y0103471D03*
X0148079Y0103471D03*
X0146110Y0103471D03*
X0144142Y0103471D03*
X0142173Y0103471D03*
X0140205Y0103471D03*
X0138236Y0103471D03*
X0136268Y0103471D03*
X0134299Y0103471D03*
X0132331Y0103471D03*
X0130362Y0103471D03*
X0128394Y0103471D03*
X0126425Y0103471D03*
X0124457Y0103471D03*
X0122488Y0103471D03*
X0120520Y0103471D03*
X0120520Y0058589D03*
X0122488Y0058589D03*
X0124457Y0058589D03*
X0126425Y0058589D03*
X0128394Y0058589D03*
X0130362Y0058589D03*
X0132331Y0058589D03*
X0134299Y0058589D03*
X0136268Y0058589D03*
X0138236Y0058589D03*
X0140205Y0058589D03*
X0142173Y0058589D03*
X0144142Y0058589D03*
X0146110Y0058589D03*
X0148079Y0058589D03*
X0150047Y0058589D03*
D14*
X0146301Y0150862D03*
X0137201Y0150862D03*
X0128101Y0150862D03*
D15*
X0137201Y0125662D03*
D16*
X0060286Y0026177D03*
X0067688Y0026177D03*
X0039434Y0050894D03*
X0032033Y0050894D03*
X0030287Y0060820D03*
X0037689Y0060820D03*
X0055872Y0075399D03*
X0063273Y0075399D03*
X0063273Y0084979D03*
X0055872Y0084979D03*
X0055872Y0094439D03*
X0063273Y0094439D03*
X0073207Y0094439D03*
X0080609Y0094439D03*
X0091261Y0087780D03*
X0098662Y0087780D03*
X0080609Y0084979D03*
X0073207Y0084979D03*
X0063273Y0104019D03*
X0055872Y0104019D03*
X0055872Y0113612D03*
X0063273Y0113612D03*
X0073207Y0113612D03*
X0080609Y0113612D03*
X0080609Y0123192D03*
X0073207Y0123192D03*
X0063273Y0123192D03*
X0055872Y0123192D03*
X0039759Y0127892D03*
X0032357Y0127892D03*
X0030287Y0118038D03*
X0037689Y0118038D03*
X0060286Y0153509D03*
X0067688Y0153509D03*
X0109415Y0124387D03*
X0116817Y0124387D03*
X0116817Y0114807D03*
X0109415Y0114807D03*
X0147748Y0114380D03*
X0155149Y0114380D03*
X0183583Y0088559D03*
X0190984Y0088559D03*
X0190984Y0078967D03*
X0183583Y0078967D03*
X0183583Y0069387D03*
X0190984Y0069387D03*
X0190984Y0059927D03*
X0183583Y0059927D03*
X0183583Y0050347D03*
X0190984Y0050347D03*
X0205946Y0026177D03*
X0213348Y0026177D03*
X0141910Y0047194D03*
X0134508Y0047194D03*
X0205946Y0153509D03*
X0213348Y0153509D03*
D17*
X0169365Y0149713D03*
X0159905Y0149713D03*
X0159905Y0142311D03*
X0169365Y0142311D03*
X0181116Y0112964D03*
X0181116Y0105562D03*
X0192217Y0105562D03*
X0192217Y0112964D03*
X0088228Y0066398D03*
X0079752Y0066398D03*
X0079752Y0058997D03*
X0088228Y0058997D03*
D18*
X0071626Y0059504D03*
X0063752Y0063244D03*
X0071626Y0066985D03*
X0201584Y0105823D03*
X0209458Y0109563D03*
X0201584Y0113304D03*
D19*
X0191452Y0022474D03*
X0083640Y0022474D03*
D20*
X0090300Y0016015D03*
X0094237Y0016015D03*
X0098174Y0016015D03*
X0102111Y0016015D03*
X0106048Y0016015D03*
X0109985Y0016015D03*
X0113922Y0016015D03*
X0117859Y0016015D03*
X0121796Y0016015D03*
X0125733Y0016015D03*
X0129670Y0016015D03*
X0133607Y0016015D03*
X0137544Y0016015D03*
X0141481Y0016015D03*
X0145418Y0016015D03*
X0149355Y0016015D03*
X0153292Y0016015D03*
X0157229Y0016015D03*
X0161166Y0016015D03*
X0165103Y0016015D03*
X0169040Y0016015D03*
X0172977Y0016015D03*
X0176914Y0016015D03*
X0180851Y0016015D03*
X0184788Y0016015D03*
X0184790Y0038453D03*
X0180853Y0038453D03*
X0176916Y0038453D03*
X0172979Y0038453D03*
X0169042Y0038453D03*
X0165105Y0038453D03*
X0161168Y0038453D03*
X0157230Y0038453D03*
X0153293Y0038453D03*
X0149356Y0038453D03*
X0145419Y0038453D03*
X0141482Y0038453D03*
X0137545Y0038453D03*
X0133608Y0038453D03*
X0129671Y0038453D03*
X0125734Y0038453D03*
X0121797Y0038453D03*
X0117860Y0038453D03*
X0113923Y0038453D03*
X0109986Y0038453D03*
X0106049Y0038453D03*
X0102112Y0038453D03*
X0098175Y0038453D03*
X0094238Y0038453D03*
X0090301Y0038453D03*
M02*
