G75*
%MOIN*%
%OFA0B0*%
%FSLAX25Y25*%
%IPPOS*%
%LPD*%
%AMOC8*
5,1,8,0,0,1.08239X$1,22.5*
%
%ADD10C,0.00300*%
%ADD11R,0.05040X0.00140*%
%ADD12R,0.06020X0.00140*%
%ADD13R,0.05180X0.00140*%
%ADD14R,0.06580X0.00140*%
%ADD15R,0.05320X0.00140*%
%ADD16R,0.06720X0.00140*%
%ADD17R,0.05320X0.00140*%
%ADD18R,0.06580X0.00140*%
%ADD19R,0.05320X0.00140*%
%ADD20R,0.02240X0.00140*%
%ADD21R,0.02800X0.00140*%
%ADD22R,0.00700X0.00140*%
%ADD23R,0.00840X0.00140*%
%ADD24R,0.02240X0.00140*%
%ADD25R,0.02660X0.00140*%
%ADD26R,0.03640X0.00140*%
%ADD27R,0.02940X0.00140*%
%ADD28R,0.03220X0.00140*%
%ADD29R,0.02940X0.00140*%
%ADD30R,0.03080X0.00140*%
%ADD31R,0.03220X0.00140*%
%ADD32R,0.04060X0.00140*%
%ADD33R,0.03920X0.00140*%
%ADD34R,0.05320X0.00140*%
%ADD35R,0.03220X0.00140*%
%ADD36R,0.03220X0.00140*%
%ADD37R,0.00700X0.00140*%
%ADD38R,0.00840X0.00140*%
%ADD39R,0.03360X0.00140*%
%ADD40R,0.04060X0.00140*%
%ADD41R,0.04200X0.00140*%
%ADD42R,0.00840X0.00140*%
%ADD43R,0.03360X0.00140*%
%ADD44R,0.04200X0.00140*%
%ADD45R,0.04340X0.00140*%
%ADD46R,0.06720X0.00140*%
%ADD47R,0.05180X0.00140*%
%ADD48R,0.03080X0.00140*%
%ADD49R,0.02800X0.00140*%
%ADD50R,0.06720X0.00140*%
%ADD51R,0.00840X0.00140*%
%ADD52R,0.03780X0.00140*%
%ADD53R,0.83720X0.00140*%
%ADD54R,0.83580X0.00140*%
%ADD55R,0.03780X0.00140*%
%ADD56R,0.02240X0.00140*%
%ADD57R,0.05040X0.00140*%
%ADD58R,0.00560X0.00140*%
%ADD59R,0.00980X0.00140*%
%ADD60R,0.04340X0.00140*%
%ADD61R,0.02240X0.00140*%
%ADD62R,0.06720X0.00140*%
%ADD63R,0.02100X0.00140*%
%ADD64R,0.04480X0.00140*%
%ADD65R,0.00980X0.00140*%
%ADD66R,0.04620X0.00140*%
%ADD67R,0.04620X0.00140*%
%ADD68R,0.05600X0.00140*%
%ADD69R,0.04760X0.00140*%
%ADD70R,0.04900X0.00140*%
%ADD71R,0.01120X0.00140*%
%ADD72R,0.05040X0.00140*%
%ADD73R,0.05740X0.00140*%
%ADD74R,0.01260X0.00140*%
%ADD75R,0.02100X0.00140*%
%ADD76R,0.05740X0.00140*%
%ADD77R,0.01540X0.00140*%
%ADD78R,0.05880X0.00140*%
%ADD79R,0.05460X0.00140*%
%ADD80R,0.01820X0.00140*%
%ADD81R,0.01960X0.00140*%
%ADD82R,0.06440X0.00140*%
%ADD83R,0.02380X0.00140*%
%ADD84R,0.01120X0.00140*%
%ADD85R,0.06860X0.00140*%
%ADD86R,0.07140X0.00140*%
%ADD87R,0.02940X0.00140*%
%ADD88R,0.02380X0.00140*%
%ADD89R,0.02660X0.00140*%
%ADD90R,0.07280X0.00140*%
%ADD91R,0.07560X0.00140*%
%ADD92R,0.07700X0.00140*%
%ADD93R,0.03500X0.00140*%
%ADD94R,0.07840X0.00140*%
%ADD95R,0.07980X0.00140*%
%ADD96R,0.08120X0.00140*%
%ADD97R,0.08260X0.00140*%
%ADD98R,0.03640X0.00140*%
%ADD99R,0.02520X0.00140*%
%ADD100R,0.08260X0.00140*%
%ADD101R,0.02520X0.00140*%
%ADD102R,0.06300X0.00140*%
%ADD103R,0.03500X0.00140*%
%ADD104R,0.08400X0.00140*%
%ADD105R,0.06160X0.00140*%
%ADD106R,0.06300X0.00140*%
%ADD107R,0.02520X0.00140*%
%ADD108R,0.06020X0.00140*%
%ADD109R,0.05740X0.00140*%
%ADD110R,0.05460X0.00140*%
%ADD111R,0.01680X0.00140*%
%ADD112R,0.02520X0.00140*%
%ADD113R,0.01680X0.00140*%
%ADD114R,0.01540X0.00140*%
%ADD115R,0.01400X0.00140*%
%ADD116R,0.05600X0.00140*%
%ADD117R,0.04620X0.00140*%
%ADD118R,0.04760X0.00140*%
%ADD119R,0.01120X0.00140*%
%ADD120R,0.01260X0.00140*%
%ADD121R,0.04900X0.00140*%
%ADD122R,0.14560X0.00140*%
%ADD123R,0.16660X0.00140*%
%ADD124R,0.14560X0.00140*%
%ADD125R,0.16660X0.00140*%
%ADD126R,0.14420X0.00140*%
%ADD127R,0.16800X0.00140*%
%ADD128R,0.14280X0.00140*%
%ADD129R,0.14280X0.00140*%
%ADD130R,0.14140X0.00140*%
%ADD131R,0.14000X0.00140*%
%ADD132R,0.97580X0.00140*%
%ADD133R,0.97580X0.00140*%
%ADD134R,0.97300X0.00140*%
%ADD135R,0.97160X0.00140*%
%ADD136R,0.97020X0.00140*%
%ADD137R,0.96600X0.00140*%
%ADD138R,0.96180X0.00140*%
%ADD139C,0.00200*%
%ADD140C,0.00400*%
D10*
X0058740Y0024419D02*
X0060796Y0024419D01*
X0059768Y0024419D02*
X0059768Y0028119D01*
X0060796Y0027297D01*
X0062460Y0027091D02*
X0062460Y0025447D01*
X0062462Y0025385D01*
X0062467Y0025323D01*
X0062477Y0025262D01*
X0062490Y0025201D01*
X0062507Y0025141D01*
X0062527Y0025082D01*
X0062551Y0025025D01*
X0062578Y0024969D01*
X0062608Y0024915D01*
X0062642Y0024863D01*
X0062679Y0024813D01*
X0062719Y0024765D01*
X0062761Y0024720D01*
X0062806Y0024678D01*
X0062854Y0024638D01*
X0062904Y0024601D01*
X0062956Y0024567D01*
X0063010Y0024537D01*
X0063066Y0024510D01*
X0063123Y0024486D01*
X0063182Y0024466D01*
X0063242Y0024449D01*
X0063303Y0024436D01*
X0063364Y0024426D01*
X0063426Y0024421D01*
X0063488Y0024419D01*
X0064516Y0024419D01*
X0064516Y0028119D01*
X0063488Y0028119D01*
X0063426Y0028117D01*
X0063364Y0028112D01*
X0063303Y0028102D01*
X0063242Y0028089D01*
X0063182Y0028072D01*
X0063123Y0028052D01*
X0063066Y0028028D01*
X0063010Y0028001D01*
X0062956Y0027971D01*
X0062904Y0027937D01*
X0062854Y0027900D01*
X0062806Y0027860D01*
X0062761Y0027818D01*
X0062719Y0027773D01*
X0062679Y0027725D01*
X0062642Y0027675D01*
X0062608Y0027623D01*
X0062578Y0027569D01*
X0062551Y0027513D01*
X0062527Y0027456D01*
X0062507Y0027397D01*
X0062490Y0027337D01*
X0062477Y0027276D01*
X0062467Y0027215D01*
X0062462Y0027153D01*
X0062460Y0027091D01*
X0065984Y0028119D02*
X0067629Y0028119D01*
X0067629Y0024419D01*
X0065984Y0024419D01*
X0066396Y0026475D02*
X0067629Y0026475D01*
X0069104Y0024419D02*
X0070749Y0024419D01*
X0070749Y0028119D01*
X0203339Y0024419D02*
X0205394Y0024419D01*
X0203647Y0026475D01*
X0204264Y0028119D02*
X0204332Y0028117D01*
X0204400Y0028111D01*
X0204467Y0028102D01*
X0204533Y0028088D01*
X0204599Y0028071D01*
X0204664Y0028050D01*
X0204727Y0028025D01*
X0204789Y0027997D01*
X0204849Y0027965D01*
X0204907Y0027930D01*
X0204963Y0027892D01*
X0205017Y0027850D01*
X0205068Y0027806D01*
X0205116Y0027758D01*
X0205162Y0027708D01*
X0205205Y0027656D01*
X0205245Y0027601D01*
X0205282Y0027544D01*
X0205315Y0027485D01*
X0205345Y0027424D01*
X0205371Y0027361D01*
X0205394Y0027297D01*
X0203646Y0026474D02*
X0203603Y0026518D01*
X0203562Y0026565D01*
X0203525Y0026614D01*
X0203490Y0026665D01*
X0203459Y0026719D01*
X0203431Y0026774D01*
X0203407Y0026831D01*
X0203386Y0026889D01*
X0203369Y0026949D01*
X0203355Y0027009D01*
X0203346Y0027070D01*
X0203340Y0027132D01*
X0203338Y0027194D01*
X0203339Y0027194D02*
X0203341Y0027252D01*
X0203346Y0027310D01*
X0203355Y0027367D01*
X0203368Y0027424D01*
X0203384Y0027480D01*
X0203404Y0027535D01*
X0203427Y0027588D01*
X0203453Y0027640D01*
X0203483Y0027690D01*
X0203516Y0027738D01*
X0203551Y0027784D01*
X0203590Y0027827D01*
X0203631Y0027868D01*
X0203674Y0027907D01*
X0203720Y0027942D01*
X0203768Y0027975D01*
X0203818Y0028005D01*
X0203870Y0028031D01*
X0203923Y0028054D01*
X0203978Y0028074D01*
X0204034Y0028090D01*
X0204091Y0028103D01*
X0204148Y0028112D01*
X0204206Y0028117D01*
X0204264Y0028119D01*
X0207059Y0027091D02*
X0207059Y0025447D01*
X0207061Y0025385D01*
X0207066Y0025323D01*
X0207076Y0025262D01*
X0207089Y0025201D01*
X0207106Y0025141D01*
X0207126Y0025082D01*
X0207150Y0025025D01*
X0207177Y0024969D01*
X0207207Y0024915D01*
X0207241Y0024863D01*
X0207278Y0024813D01*
X0207318Y0024765D01*
X0207360Y0024720D01*
X0207405Y0024678D01*
X0207453Y0024638D01*
X0207503Y0024601D01*
X0207555Y0024567D01*
X0207609Y0024537D01*
X0207665Y0024510D01*
X0207722Y0024486D01*
X0207781Y0024466D01*
X0207841Y0024449D01*
X0207902Y0024436D01*
X0207963Y0024426D01*
X0208025Y0024421D01*
X0208087Y0024419D01*
X0209114Y0024419D01*
X0209114Y0028119D01*
X0208087Y0028119D01*
X0208025Y0028117D01*
X0207963Y0028112D01*
X0207902Y0028102D01*
X0207841Y0028089D01*
X0207781Y0028072D01*
X0207722Y0028052D01*
X0207665Y0028028D01*
X0207609Y0028001D01*
X0207555Y0027971D01*
X0207503Y0027937D01*
X0207453Y0027900D01*
X0207405Y0027860D01*
X0207360Y0027818D01*
X0207318Y0027773D01*
X0207278Y0027725D01*
X0207241Y0027675D01*
X0207207Y0027623D01*
X0207177Y0027569D01*
X0207150Y0027513D01*
X0207126Y0027456D01*
X0207106Y0027397D01*
X0207089Y0027337D01*
X0207076Y0027276D01*
X0207066Y0027215D01*
X0207061Y0027153D01*
X0207059Y0027091D01*
X0210583Y0028119D02*
X0212227Y0028119D01*
X0212227Y0024419D01*
X0210583Y0024419D01*
X0210994Y0026475D02*
X0212227Y0026475D01*
X0213703Y0024419D02*
X0215347Y0024419D01*
X0215347Y0028119D01*
X0215347Y0151591D02*
X0213703Y0151591D01*
X0212227Y0151591D02*
X0212227Y0155291D01*
X0210583Y0155291D01*
X0209114Y0155291D02*
X0208087Y0155291D01*
X0209114Y0155291D02*
X0209114Y0151591D01*
X0208087Y0151591D01*
X0208025Y0151593D01*
X0207963Y0151598D01*
X0207902Y0151608D01*
X0207841Y0151621D01*
X0207781Y0151638D01*
X0207722Y0151658D01*
X0207665Y0151682D01*
X0207609Y0151709D01*
X0207555Y0151739D01*
X0207503Y0151773D01*
X0207453Y0151810D01*
X0207405Y0151850D01*
X0207360Y0151892D01*
X0207318Y0151937D01*
X0207278Y0151985D01*
X0207241Y0152035D01*
X0207207Y0152087D01*
X0207177Y0152141D01*
X0207150Y0152197D01*
X0207126Y0152254D01*
X0207106Y0152313D01*
X0207089Y0152373D01*
X0207076Y0152434D01*
X0207066Y0152495D01*
X0207061Y0152557D01*
X0207059Y0152619D01*
X0207059Y0154263D01*
X0207061Y0154325D01*
X0207066Y0154387D01*
X0207076Y0154448D01*
X0207089Y0154509D01*
X0207106Y0154569D01*
X0207126Y0154628D01*
X0207150Y0154685D01*
X0207177Y0154741D01*
X0207207Y0154795D01*
X0207241Y0154847D01*
X0207278Y0154897D01*
X0207318Y0154945D01*
X0207360Y0154990D01*
X0207405Y0155032D01*
X0207453Y0155072D01*
X0207503Y0155109D01*
X0207555Y0155143D01*
X0207609Y0155173D01*
X0207665Y0155200D01*
X0207722Y0155224D01*
X0207781Y0155244D01*
X0207841Y0155261D01*
X0207902Y0155274D01*
X0207963Y0155284D01*
X0208025Y0155289D01*
X0208087Y0155291D01*
X0205394Y0155291D02*
X0204161Y0155291D01*
X0204105Y0155289D01*
X0204049Y0155283D01*
X0203994Y0155274D01*
X0203939Y0155261D01*
X0203886Y0155244D01*
X0203834Y0155223D01*
X0203783Y0155199D01*
X0203734Y0155171D01*
X0203687Y0155141D01*
X0203642Y0155107D01*
X0203600Y0155070D01*
X0203560Y0155030D01*
X0203523Y0154988D01*
X0203489Y0154943D01*
X0203459Y0154896D01*
X0203431Y0154847D01*
X0203407Y0154796D01*
X0203386Y0154744D01*
X0203369Y0154691D01*
X0203356Y0154636D01*
X0203347Y0154581D01*
X0203341Y0154525D01*
X0203339Y0154469D01*
X0203341Y0154413D01*
X0203347Y0154357D01*
X0203356Y0154302D01*
X0203369Y0154247D01*
X0203386Y0154194D01*
X0203407Y0154142D01*
X0203431Y0154091D01*
X0203459Y0154042D01*
X0203489Y0153995D01*
X0203523Y0153950D01*
X0203560Y0153908D01*
X0203600Y0153868D01*
X0203642Y0153831D01*
X0203687Y0153797D01*
X0203734Y0153767D01*
X0203783Y0153739D01*
X0203834Y0153715D01*
X0203886Y0153694D01*
X0203939Y0153677D01*
X0203994Y0153664D01*
X0204049Y0153655D01*
X0204105Y0153649D01*
X0204161Y0153647D01*
X0204983Y0153647D01*
X0204367Y0153647D02*
X0204304Y0153645D01*
X0204241Y0153639D01*
X0204178Y0153629D01*
X0204116Y0153616D01*
X0204055Y0153599D01*
X0203996Y0153578D01*
X0203937Y0153553D01*
X0203881Y0153525D01*
X0203826Y0153493D01*
X0203773Y0153458D01*
X0203723Y0153420D01*
X0203674Y0153379D01*
X0203629Y0153335D01*
X0203586Y0153288D01*
X0203547Y0153239D01*
X0203510Y0153187D01*
X0203477Y0153133D01*
X0203447Y0153077D01*
X0203420Y0153020D01*
X0203397Y0152961D01*
X0203378Y0152900D01*
X0203363Y0152839D01*
X0203351Y0152777D01*
X0203343Y0152714D01*
X0203339Y0152651D01*
X0203339Y0152587D01*
X0203343Y0152524D01*
X0203351Y0152461D01*
X0203363Y0152399D01*
X0203378Y0152338D01*
X0203397Y0152277D01*
X0203420Y0152218D01*
X0203447Y0152161D01*
X0203477Y0152105D01*
X0203510Y0152051D01*
X0203547Y0151999D01*
X0203586Y0151950D01*
X0203629Y0151903D01*
X0203674Y0151859D01*
X0203723Y0151818D01*
X0203773Y0151780D01*
X0203826Y0151745D01*
X0203881Y0151713D01*
X0203937Y0151685D01*
X0203996Y0151660D01*
X0204055Y0151639D01*
X0204116Y0151622D01*
X0204178Y0151609D01*
X0204241Y0151599D01*
X0204304Y0151593D01*
X0204367Y0151591D01*
X0205394Y0151591D01*
X0210583Y0151591D02*
X0212227Y0151591D01*
X0212227Y0153647D02*
X0210994Y0153647D01*
X0215347Y0155291D02*
X0215347Y0151591D01*
X0070749Y0151591D02*
X0069104Y0151591D01*
X0067629Y0151591D02*
X0067629Y0155291D01*
X0065984Y0155291D01*
X0064516Y0155291D02*
X0063488Y0155291D01*
X0063426Y0155289D01*
X0063364Y0155284D01*
X0063303Y0155274D01*
X0063242Y0155261D01*
X0063182Y0155244D01*
X0063123Y0155224D01*
X0063066Y0155200D01*
X0063010Y0155173D01*
X0062956Y0155143D01*
X0062904Y0155109D01*
X0062854Y0155072D01*
X0062806Y0155032D01*
X0062761Y0154990D01*
X0062719Y0154945D01*
X0062679Y0154897D01*
X0062642Y0154847D01*
X0062608Y0154795D01*
X0062578Y0154741D01*
X0062551Y0154685D01*
X0062527Y0154628D01*
X0062507Y0154569D01*
X0062490Y0154509D01*
X0062477Y0154448D01*
X0062467Y0154387D01*
X0062462Y0154325D01*
X0062460Y0154263D01*
X0062460Y0152619D01*
X0062462Y0152557D01*
X0062467Y0152495D01*
X0062477Y0152434D01*
X0062490Y0152373D01*
X0062507Y0152313D01*
X0062527Y0152254D01*
X0062551Y0152197D01*
X0062578Y0152141D01*
X0062608Y0152087D01*
X0062642Y0152035D01*
X0062679Y0151985D01*
X0062719Y0151937D01*
X0062761Y0151892D01*
X0062806Y0151850D01*
X0062854Y0151810D01*
X0062904Y0151773D01*
X0062956Y0151739D01*
X0063010Y0151709D01*
X0063066Y0151682D01*
X0063123Y0151658D01*
X0063182Y0151638D01*
X0063242Y0151621D01*
X0063303Y0151608D01*
X0063364Y0151598D01*
X0063426Y0151593D01*
X0063488Y0151591D01*
X0064516Y0151591D01*
X0064516Y0155291D01*
X0066396Y0153647D02*
X0067629Y0153647D01*
X0067629Y0151591D02*
X0065984Y0151591D01*
X0070749Y0151591D02*
X0070749Y0155291D01*
X0060796Y0152413D02*
X0058740Y0152413D01*
X0059357Y0151591D02*
X0059357Y0153236D01*
X0060796Y0152413D02*
X0059974Y0155291D01*
D11*
X0122832Y0105708D03*
X0103232Y0095068D03*
X0159932Y0105988D03*
D12*
X0180722Y0095068D03*
D13*
X0140822Y0105848D03*
X0124302Y0101508D03*
X0106522Y0105848D03*
X0100082Y0102488D03*
X0100362Y0101788D03*
X0100502Y0101508D03*
X0100642Y0101088D03*
X0100782Y0100808D03*
X0101622Y0098848D03*
X0101902Y0098148D03*
X0102182Y0097448D03*
X0102322Y0097168D03*
X0102462Y0096748D03*
X0102602Y0096468D03*
X0102742Y0096188D03*
X0102882Y0095768D03*
X0103022Y0095488D03*
X0103162Y0095208D03*
X0099382Y0104168D03*
X0098962Y0105148D03*
X0098402Y0106408D03*
D14*
X0176522Y0106408D03*
X0176522Y0106548D03*
X0176662Y0106268D03*
X0176662Y0105988D03*
X0176802Y0105848D03*
X0176802Y0105708D03*
X0176942Y0105288D03*
X0177082Y0105008D03*
X0177082Y0104868D03*
X0177222Y0104588D03*
X0177222Y0104448D03*
X0177362Y0104308D03*
X0177362Y0104168D03*
X0177502Y0103888D03*
X0177502Y0103748D03*
X0177642Y0103468D03*
X0177782Y0103048D03*
X0177782Y0102908D03*
X0177922Y0102768D03*
X0177922Y0102488D03*
X0178062Y0102348D03*
X0178062Y0102208D03*
X0178202Y0101788D03*
X0178342Y0101508D03*
X0178342Y0101368D03*
X0178482Y0101088D03*
X0178622Y0100808D03*
X0178622Y0100668D03*
X0179042Y0099548D03*
X0179042Y0099408D03*
X0179182Y0099268D03*
X0179182Y0098988D03*
X0179322Y0098848D03*
X0179322Y0098708D03*
X0179322Y0098568D03*
X0179462Y0098288D03*
X0179602Y0098148D03*
X0179602Y0098008D03*
X0179602Y0097868D03*
X0179742Y0097588D03*
X0179882Y0097308D03*
X0179882Y0097168D03*
X0180022Y0096888D03*
X0180022Y0096748D03*
X0180162Y0096468D03*
X0180302Y0096188D03*
X0180302Y0096048D03*
X0180302Y0095908D03*
X0180442Y0095768D03*
X0180582Y0095348D03*
X0180582Y0095208D03*
D15*
X0161892Y0101368D03*
X0161892Y0101508D03*
X0124372Y0101368D03*
X0103092Y0095348D03*
X0102532Y0096608D03*
X0102392Y0096888D03*
X0101972Y0097868D03*
X0101972Y0098008D03*
X0101832Y0098288D03*
X0101692Y0098568D03*
X0101692Y0098708D03*
X0101272Y0099548D03*
X0100572Y0101368D03*
X0100432Y0101648D03*
X0100292Y0102068D03*
X0099872Y0102908D03*
X0099872Y0103048D03*
X0099732Y0103188D03*
X0099732Y0103468D03*
X0099592Y0103608D03*
X0099592Y0103748D03*
X0099172Y0104588D03*
X0099032Y0104868D03*
X0099032Y0105008D03*
X0098892Y0105288D03*
X0098472Y0106268D03*
X0098332Y0106548D03*
X0098332Y0106688D03*
D16*
X0176452Y0106688D03*
X0177012Y0105148D03*
X0177712Y0103188D03*
X0178552Y0100948D03*
X0179812Y0097448D03*
X0180512Y0095488D03*
D17*
X0142712Y0101228D03*
X0132912Y0106128D03*
X0102952Y0095628D03*
X0100852Y0100528D03*
X0100012Y0102628D03*
X0099452Y0104028D03*
D18*
X0176662Y0106128D03*
X0176942Y0105428D03*
X0177642Y0103328D03*
X0177922Y0102628D03*
X0178202Y0101928D03*
X0178482Y0101228D03*
X0179182Y0099128D03*
X0179462Y0098428D03*
X0179742Y0097728D03*
X0180162Y0096328D03*
X0180442Y0095628D03*
D19*
X0160352Y0105568D03*
X0160212Y0105708D03*
X0135152Y0100668D03*
X0132912Y0106268D03*
X0102812Y0096048D03*
X0102812Y0095908D03*
X0102252Y0097308D03*
X0102112Y0097588D03*
X0101552Y0098988D03*
X0101412Y0099268D03*
X0101412Y0099408D03*
X0100852Y0100668D03*
X0100712Y0100948D03*
X0100152Y0102208D03*
X0100152Y0102348D03*
X0100012Y0102768D03*
X0099452Y0103888D03*
X0099312Y0104308D03*
X0099312Y0104448D03*
X0098752Y0105568D03*
X0098752Y0105708D03*
X0098612Y0105848D03*
X0098612Y0105988D03*
X0089652Y0104868D03*
X0089512Y0105148D03*
D20*
X0106032Y0102208D03*
X0108832Y0104868D03*
X0108832Y0105008D03*
X0109532Y0103468D03*
X0113032Y0105148D03*
X0113032Y0105288D03*
X0116532Y0106268D03*
X0116532Y0106408D03*
X0117232Y0104588D03*
X0117932Y0102908D03*
X0117932Y0102768D03*
X0118632Y0101088D03*
X0118632Y0100948D03*
X0114432Y0101508D03*
X0114432Y0101648D03*
X0110932Y0096048D03*
X0131932Y0102488D03*
X0135432Y0103748D03*
X0135432Y0103888D03*
X0136132Y0102068D03*
X0140332Y0102208D03*
X0140332Y0102348D03*
X0143832Y0103608D03*
X0143132Y0105008D03*
X0148732Y0101648D03*
X0148732Y0101508D03*
X0162032Y0105288D03*
X0162732Y0104168D03*
X0163432Y0102068D03*
X0163432Y0101788D03*
X0167632Y0102348D03*
X0168332Y0100668D03*
X0171832Y0101788D03*
X0166232Y0105848D03*
X0166232Y0105988D03*
D21*
X0159932Y0103468D03*
X0151812Y0102068D03*
X0148172Y0103888D03*
X0146912Y0098288D03*
X0147752Y0096048D03*
X0135712Y0096048D03*
X0134732Y0098288D03*
X0130392Y0098288D03*
X0122972Y0101648D03*
X0122972Y0101788D03*
X0119472Y0098288D03*
X0114572Y0096048D03*
X0113592Y0098288D03*
D22*
X0115482Y0097588D03*
X0115622Y0097308D03*
X0115622Y0097168D03*
X0115762Y0096888D03*
X0115902Y0096608D03*
X0117302Y0096188D03*
X0117442Y0096048D03*
X0122062Y0097448D03*
X0122062Y0097588D03*
X0122202Y0097168D03*
X0122342Y0096888D03*
X0122342Y0096748D03*
X0124582Y0097588D03*
X0124722Y0097448D03*
X0124722Y0097308D03*
X0124862Y0096888D03*
X0125002Y0096748D03*
X0125002Y0096608D03*
X0126262Y0096608D03*
X0126262Y0096748D03*
X0126402Y0096468D03*
X0126542Y0096048D03*
X0125982Y0097448D03*
X0125842Y0097868D03*
X0125702Y0098008D03*
X0125702Y0098148D03*
X0128082Y0098148D03*
X0128082Y0098288D03*
X0128222Y0098008D03*
X0128222Y0097868D03*
X0128362Y0097588D03*
X0128362Y0097448D03*
X0128642Y0096888D03*
X0128642Y0096748D03*
X0128782Y0096608D03*
X0128782Y0096468D03*
X0128922Y0096188D03*
X0128922Y0096048D03*
X0133542Y0097448D03*
X0133542Y0097588D03*
X0133682Y0097168D03*
X0133822Y0096888D03*
X0133822Y0096748D03*
X0133962Y0096608D03*
X0136062Y0097588D03*
X0136202Y0097448D03*
X0136202Y0097308D03*
X0136342Y0096888D03*
X0136482Y0096748D03*
X0136482Y0096608D03*
X0137602Y0097168D03*
X0137462Y0097448D03*
X0137462Y0097588D03*
X0137742Y0096888D03*
X0137742Y0096748D03*
X0139982Y0097588D03*
X0140122Y0097448D03*
X0140122Y0097308D03*
X0140262Y0096888D03*
X0140402Y0096748D03*
X0140402Y0096608D03*
X0141382Y0097308D03*
X0141382Y0097448D03*
X0141522Y0097168D03*
X0141662Y0096748D03*
X0141662Y0096608D03*
X0141802Y0096468D03*
X0141942Y0096048D03*
X0143482Y0096468D03*
X0143482Y0096608D03*
X0143342Y0096888D03*
X0143202Y0097168D03*
X0143202Y0097308D03*
X0143062Y0097588D03*
X0143622Y0096188D03*
X0145162Y0096748D03*
X0145162Y0096888D03*
X0145022Y0097168D03*
X0144882Y0097448D03*
X0145302Y0096468D03*
X0145442Y0096188D03*
X0145442Y0096048D03*
X0148802Y0097448D03*
X0148802Y0097588D03*
X0149082Y0096748D03*
X0149082Y0096608D03*
X0150342Y0096748D03*
X0150342Y0096888D03*
X0150482Y0096468D03*
X0150622Y0096188D03*
X0150622Y0096048D03*
X0150062Y0097448D03*
X0150062Y0097588D03*
X0149922Y0097868D03*
X0149782Y0098148D03*
X0149782Y0098288D03*
X0152162Y0098288D03*
X0152302Y0098008D03*
X0152302Y0097868D03*
X0152442Y0097588D03*
X0152722Y0096888D03*
X0152862Y0096608D03*
X0152862Y0096468D03*
X0153002Y0096188D03*
X0155382Y0096748D03*
X0155662Y0096048D03*
X0158182Y0096188D03*
X0158322Y0096048D03*
X0159302Y0096608D03*
X0159302Y0096748D03*
X0159162Y0097168D03*
X0159022Y0097308D03*
X0159022Y0097448D03*
X0158882Y0097868D03*
X0158742Y0098008D03*
X0158742Y0098148D03*
X0160422Y0098148D03*
X0160422Y0098288D03*
X0160562Y0098008D03*
X0160562Y0097868D03*
X0160702Y0097588D03*
X0160842Y0097308D03*
X0160842Y0097168D03*
X0160982Y0096888D03*
X0161122Y0096608D03*
X0162522Y0097448D03*
X0162522Y0097588D03*
X0162382Y0097868D03*
X0162242Y0098148D03*
X0162242Y0098288D03*
X0162662Y0097168D03*
X0162802Y0096888D03*
X0162802Y0096748D03*
X0163922Y0097168D03*
X0163782Y0097448D03*
X0163782Y0097588D03*
X0163642Y0097868D03*
X0163502Y0098148D03*
X0163502Y0098288D03*
X0164062Y0096888D03*
X0164062Y0096748D03*
X0164202Y0096608D03*
X0165602Y0097308D03*
X0165602Y0097448D03*
X0165462Y0097588D03*
X0165322Y0098008D03*
X0165322Y0098148D03*
X0165182Y0098288D03*
X0165742Y0096888D03*
X0165882Y0096748D03*
X0165882Y0096608D03*
X0167282Y0097448D03*
X0167282Y0097588D03*
X0167142Y0097868D03*
X0167142Y0098008D03*
X0167002Y0098148D03*
X0167002Y0098288D03*
X0167422Y0097308D03*
X0167422Y0097168D03*
X0167562Y0096888D03*
X0167562Y0096748D03*
X0167702Y0096608D03*
X0168682Y0097168D03*
X0168682Y0097308D03*
X0168542Y0097588D03*
X0168402Y0097868D03*
X0168402Y0098008D03*
X0168262Y0098288D03*
X0168822Y0096888D03*
X0168962Y0096608D03*
X0170362Y0097448D03*
X0170362Y0097588D03*
X0170222Y0097868D03*
X0170082Y0098148D03*
X0170082Y0098288D03*
X0170502Y0097168D03*
X0170642Y0096888D03*
X0170642Y0096748D03*
X0172042Y0097588D03*
X0172182Y0097448D03*
X0172182Y0097308D03*
X0172322Y0096888D03*
X0172462Y0096748D03*
X0172462Y0096608D03*
X0171902Y0098008D03*
X0171902Y0098148D03*
X0171762Y0098288D03*
X0152302Y0100668D03*
X0111982Y0096748D03*
X0111982Y0096608D03*
X0111842Y0096888D03*
X0111702Y0097168D03*
X0111702Y0097308D03*
X0111562Y0097588D03*
X0109322Y0096748D03*
X0109182Y0097168D03*
X0109042Y0097448D03*
D23*
X0108972Y0097588D03*
X0109112Y0097308D03*
X0109252Y0096888D03*
X0109392Y0096608D03*
X0115552Y0097448D03*
X0118072Y0097588D03*
X0118212Y0097448D03*
X0121012Y0096888D03*
X0121012Y0096748D03*
X0121012Y0096608D03*
X0121152Y0096468D03*
X0121292Y0096188D03*
X0121292Y0096048D03*
X0122412Y0096608D03*
X0124792Y0097168D03*
X0125912Y0097588D03*
X0126192Y0096888D03*
X0126472Y0096188D03*
X0129972Y0096748D03*
X0129972Y0096888D03*
X0130112Y0096608D03*
X0132212Y0097448D03*
X0132212Y0097588D03*
X0133612Y0097308D03*
X0136272Y0097168D03*
X0137812Y0096608D03*
X0140192Y0097168D03*
X0141312Y0097588D03*
X0141592Y0096888D03*
X0141872Y0096188D03*
X0143412Y0096748D03*
X0143692Y0096048D03*
X0144952Y0097308D03*
X0144812Y0097588D03*
X0149012Y0096888D03*
X0149852Y0098008D03*
X0150412Y0096608D03*
X0152512Y0097448D03*
X0152792Y0096748D03*
X0153072Y0096048D03*
X0155172Y0097168D03*
X0155172Y0097308D03*
X0155312Y0096888D03*
X0155452Y0096608D03*
X0155452Y0096468D03*
X0155592Y0096188D03*
X0158112Y0096468D03*
X0158952Y0097588D03*
X0158672Y0098288D03*
X0160772Y0097448D03*
X0161052Y0096748D03*
X0162592Y0097308D03*
X0162312Y0098008D03*
X0163572Y0098008D03*
X0163852Y0097308D03*
X0162872Y0096608D03*
X0165392Y0097868D03*
X0165672Y0097168D03*
X0168612Y0097448D03*
X0168892Y0096748D03*
X0170152Y0098008D03*
X0170712Y0096608D03*
X0172252Y0097168D03*
X0171972Y0097868D03*
X0146212Y0106408D03*
D24*
X0147612Y0104588D03*
X0148312Y0102768D03*
X0148452Y0102348D03*
X0148452Y0102208D03*
X0148592Y0102068D03*
X0148592Y0101788D03*
X0148872Y0101368D03*
X0149012Y0100948D03*
X0149012Y0100808D03*
X0149152Y0100668D03*
X0151952Y0101648D03*
X0152792Y0104588D03*
X0144252Y0102348D03*
X0144252Y0102208D03*
X0144252Y0102068D03*
X0144252Y0101788D03*
X0144252Y0101648D03*
X0144112Y0102768D03*
X0144112Y0102908D03*
X0143692Y0103888D03*
X0143552Y0104168D03*
X0143552Y0104308D03*
X0143412Y0104448D03*
X0143412Y0104588D03*
X0142992Y0105148D03*
X0139912Y0103048D03*
X0140052Y0102768D03*
X0140192Y0102488D03*
X0140472Y0102068D03*
X0140612Y0101788D03*
X0138372Y0098288D03*
X0136272Y0101648D03*
X0136272Y0101788D03*
X0135992Y0102208D03*
X0135992Y0102348D03*
X0135992Y0102488D03*
X0135852Y0102768D03*
X0135852Y0102908D03*
X0135712Y0103048D03*
X0135712Y0103188D03*
X0135572Y0103468D03*
X0135572Y0103608D03*
X0135292Y0104168D03*
X0135152Y0104448D03*
X0135152Y0104588D03*
X0135012Y0104868D03*
X0135012Y0105008D03*
X0134872Y0105148D03*
X0134872Y0105288D03*
X0131652Y0103048D03*
X0131792Y0102768D03*
X0132072Y0102348D03*
X0132072Y0102208D03*
X0132212Y0102068D03*
X0132352Y0101788D03*
X0131092Y0104588D03*
X0131092Y0104868D03*
X0131092Y0105008D03*
X0139352Y0104588D03*
X0139492Y0104168D03*
X0139352Y0096048D03*
X0123952Y0096048D03*
X0122972Y0098288D03*
X0118772Y0100668D03*
X0118492Y0101368D03*
X0118492Y0101508D03*
X0118352Y0101648D03*
X0118352Y0101788D03*
X0118212Y0102068D03*
X0118212Y0102208D03*
X0118072Y0102348D03*
X0118072Y0102488D03*
X0117792Y0103188D03*
X0117372Y0104308D03*
X0117092Y0105008D03*
X0116952Y0105288D03*
X0116812Y0105568D03*
X0116812Y0105708D03*
X0116812Y0105848D03*
X0116672Y0105988D03*
X0113172Y0105008D03*
X0113172Y0104868D03*
X0113312Y0104588D03*
X0113312Y0104448D03*
X0112892Y0105568D03*
X0112892Y0105708D03*
X0112752Y0105848D03*
X0112752Y0105988D03*
X0112612Y0106268D03*
X0112612Y0106408D03*
X0113872Y0103048D03*
X0113872Y0102908D03*
X0114012Y0102768D03*
X0114152Y0102348D03*
X0114152Y0102208D03*
X0114292Y0102068D03*
X0114292Y0101788D03*
X0114712Y0100948D03*
X0114712Y0100808D03*
X0109952Y0101648D03*
X0109952Y0101788D03*
X0109952Y0102068D03*
X0109952Y0102208D03*
X0109952Y0102348D03*
X0109812Y0102768D03*
X0109812Y0102908D03*
X0109672Y0103048D03*
X0109672Y0103188D03*
X0109392Y0103748D03*
X0109252Y0104168D03*
X0109112Y0104448D03*
X0109112Y0104588D03*
X0108692Y0105148D03*
X0108552Y0105288D03*
X0105052Y0104588D03*
X0106312Y0101788D03*
X0106452Y0101648D03*
X0109952Y0098288D03*
X0162172Y0105148D03*
X0162312Y0105008D03*
X0162312Y0104868D03*
X0162592Y0104448D03*
X0166372Y0105568D03*
X0166372Y0105708D03*
X0166512Y0105288D03*
X0166512Y0105148D03*
X0166652Y0105008D03*
X0166652Y0104868D03*
X0166792Y0104588D03*
X0166792Y0104448D03*
X0167352Y0103188D03*
X0167352Y0103048D03*
X0167352Y0102908D03*
X0167492Y0102768D03*
X0167772Y0102068D03*
X0167912Y0101788D03*
X0167912Y0101648D03*
X0167912Y0101508D03*
X0168052Y0101368D03*
X0168192Y0100948D03*
X0168192Y0100808D03*
X0171692Y0102068D03*
X0171692Y0102208D03*
X0171552Y0102488D03*
X0171412Y0102908D03*
X0171412Y0103048D03*
X0171272Y0103188D03*
X0170852Y0104308D03*
X0170852Y0104448D03*
X0170712Y0104588D03*
X0170712Y0104868D03*
X0170572Y0105008D03*
X0170572Y0105148D03*
X0170292Y0105708D03*
X0170292Y0105848D03*
X0170012Y0106408D03*
X0166092Y0106408D03*
X0166092Y0106268D03*
X0171972Y0101508D03*
X0171972Y0101368D03*
X0172112Y0101088D03*
X0172112Y0100948D03*
X0172252Y0100808D03*
X0172252Y0100668D03*
D25*
X0152862Y0103888D03*
X0147962Y0104168D03*
X0131862Y0096048D03*
X0124302Y0105148D03*
X0124302Y0105288D03*
D26*
X0148872Y0102908D03*
X0161612Y0096048D03*
X0166372Y0096048D03*
X0171272Y0096048D03*
D27*
X0159862Y0103608D03*
X0159862Y0103748D03*
X0159722Y0103888D03*
X0159722Y0104168D03*
X0152862Y0103748D03*
X0152862Y0103608D03*
X0151742Y0102208D03*
X0148242Y0103748D03*
X0138442Y0098148D03*
X0131162Y0097308D03*
X0123042Y0098148D03*
X0124302Y0105008D03*
X0110022Y0098148D03*
X0110862Y0096188D03*
D28*
X0110722Y0096468D03*
X0113942Y0098008D03*
X0114082Y0097868D03*
X0114642Y0096468D03*
X0114642Y0096188D03*
X0123182Y0097868D03*
X0127242Y0097308D03*
X0130742Y0098008D03*
X0138582Y0097868D03*
X0147682Y0097168D03*
X0151322Y0097308D03*
X0154822Y0098148D03*
X0123042Y0102208D03*
D29*
X0123882Y0096188D03*
X0139282Y0096188D03*
D30*
X0138512Y0098008D03*
X0131652Y0096188D03*
X0131092Y0097168D03*
X0127312Y0097168D03*
X0123112Y0098008D03*
X0122972Y0102068D03*
X0124232Y0104868D03*
X0113872Y0098148D03*
X0110092Y0098008D03*
X0147052Y0098148D03*
X0147612Y0097308D03*
X0147892Y0096188D03*
X0151392Y0097168D03*
X0152932Y0103468D03*
X0148452Y0103468D03*
X0148312Y0103608D03*
D31*
X0147262Y0098008D03*
X0135502Y0096188D03*
X0134662Y0098008D03*
X0134662Y0098148D03*
X0130602Y0098148D03*
X0124162Y0104448D03*
X0124162Y0104588D03*
X0119262Y0098148D03*
X0119262Y0098008D03*
X0110162Y0097868D03*
D32*
X0142922Y0098148D03*
X0161402Y0096188D03*
X0166162Y0096188D03*
D33*
X0170992Y0096188D03*
D34*
X0108272Y0101228D03*
X0102672Y0096328D03*
X0100572Y0101228D03*
X0100292Y0101928D03*
X0099732Y0103328D03*
X0099172Y0104728D03*
X0089372Y0105428D03*
D35*
X0110862Y0096328D03*
X0135362Y0096328D03*
X0151462Y0097028D03*
X0152862Y0103328D03*
D36*
X0148522Y0103328D03*
X0139282Y0096328D03*
X0127382Y0097028D03*
X0123882Y0096328D03*
X0114642Y0096328D03*
D37*
X0115762Y0097028D03*
X0115482Y0097728D03*
X0117302Y0096328D03*
X0121922Y0097728D03*
X0122202Y0097028D03*
X0124582Y0097728D03*
X0124862Y0097028D03*
X0125842Y0097728D03*
X0126402Y0096328D03*
X0132142Y0097728D03*
X0133682Y0097028D03*
X0136062Y0097728D03*
X0136342Y0097028D03*
X0137322Y0097728D03*
X0137602Y0097028D03*
X0139982Y0097728D03*
X0140262Y0097028D03*
X0141242Y0097728D03*
X0141522Y0097028D03*
X0141802Y0096328D03*
X0143342Y0097028D03*
X0143062Y0097728D03*
X0143622Y0096328D03*
X0145022Y0097028D03*
X0144742Y0097728D03*
X0145302Y0096328D03*
X0148662Y0097728D03*
X0149922Y0097728D03*
X0150482Y0096328D03*
X0152442Y0097728D03*
X0153002Y0096328D03*
X0158182Y0096328D03*
X0159162Y0097028D03*
X0158882Y0097728D03*
X0160982Y0097028D03*
X0162382Y0097728D03*
X0162662Y0097028D03*
X0163642Y0097728D03*
X0163922Y0097028D03*
X0165462Y0097728D03*
X0165742Y0097028D03*
X0168542Y0097728D03*
X0168822Y0097028D03*
X0170222Y0097728D03*
X0170502Y0097028D03*
X0172042Y0097728D03*
X0172322Y0097028D03*
X0111842Y0097028D03*
X0111562Y0097728D03*
X0109182Y0097028D03*
X0108902Y0097728D03*
D38*
X0118072Y0097728D03*
X0120592Y0097728D03*
X0121152Y0096328D03*
X0128292Y0097728D03*
X0128852Y0096328D03*
X0133472Y0097728D03*
X0155312Y0097028D03*
X0155592Y0096328D03*
X0167212Y0097728D03*
X0167492Y0097028D03*
D39*
X0147892Y0096328D03*
X0131512Y0096328D03*
X0123252Y0102628D03*
D40*
X0161262Y0096328D03*
D41*
X0166092Y0096328D03*
X0170852Y0096328D03*
X0125212Y0100528D03*
D42*
X0125632Y0098288D03*
X0122132Y0097308D03*
X0120732Y0097448D03*
X0120732Y0097588D03*
X0117232Y0096468D03*
X0115832Y0096748D03*
X0111632Y0097448D03*
X0137532Y0097308D03*
X0143132Y0097448D03*
X0145232Y0096608D03*
X0152232Y0098148D03*
X0155032Y0097588D03*
X0155032Y0097448D03*
X0159232Y0096888D03*
X0152232Y0100808D03*
X0168332Y0098148D03*
X0170432Y0097308D03*
D43*
X0154892Y0097868D03*
X0154892Y0098008D03*
X0154752Y0098288D03*
X0152932Y0103048D03*
X0152932Y0103188D03*
X0151672Y0102348D03*
X0148732Y0103188D03*
X0147332Y0097868D03*
X0147892Y0096468D03*
X0139212Y0096468D03*
X0135292Y0096468D03*
X0134732Y0097868D03*
X0131372Y0096468D03*
X0130812Y0097868D03*
X0123812Y0096468D03*
X0119612Y0097168D03*
X0119472Y0097308D03*
X0119332Y0097868D03*
X0123112Y0102348D03*
X0123112Y0102488D03*
X0124092Y0104308D03*
D44*
X0122132Y0106408D03*
X0108552Y0100668D03*
X0142852Y0100668D03*
X0142992Y0098008D03*
X0142992Y0097868D03*
X0161192Y0096468D03*
X0165952Y0096468D03*
D45*
X0170782Y0096468D03*
X0106382Y0106268D03*
D46*
X0176872Y0105568D03*
X0177572Y0103608D03*
X0178132Y0102068D03*
X0178272Y0101648D03*
X0180092Y0096608D03*
D47*
X0161962Y0101228D03*
X0124442Y0101228D03*
X0102322Y0097028D03*
X0102042Y0097728D03*
X0101762Y0098428D03*
X0101482Y0099128D03*
X0098822Y0105428D03*
X0098542Y0106128D03*
D48*
X0119752Y0097028D03*
X0124232Y0104728D03*
X0147752Y0097028D03*
D49*
X0148032Y0104028D03*
X0130952Y0097028D03*
D50*
X0177152Y0104728D03*
X0179952Y0097028D03*
D51*
X0160632Y0097728D03*
X0155032Y0097728D03*
D52*
X0143062Y0098288D03*
X0140682Y0106408D03*
X0106382Y0106408D03*
D53*
X0140192Y0100388D03*
X0140192Y0100248D03*
X0140332Y0100108D03*
X0140332Y0099968D03*
X0140472Y0099688D03*
D54*
X0140402Y0099828D03*
D55*
X0142922Y0100528D03*
X0151602Y0102628D03*
X0108622Y0100528D03*
D56*
X0109952Y0101928D03*
X0109812Y0102628D03*
X0108972Y0104728D03*
X0108412Y0105428D03*
X0105052Y0104728D03*
X0106172Y0101928D03*
X0113172Y0104728D03*
X0112892Y0105428D03*
X0112612Y0106128D03*
X0116672Y0106128D03*
X0116952Y0105428D03*
X0118072Y0102628D03*
X0118772Y0100528D03*
X0114852Y0100528D03*
X0114572Y0101228D03*
X0114292Y0101928D03*
X0114012Y0102628D03*
X0131092Y0104728D03*
X0132352Y0101928D03*
X0135572Y0103328D03*
X0135292Y0104028D03*
X0135012Y0104728D03*
X0135852Y0102628D03*
X0139352Y0104728D03*
X0142712Y0105428D03*
X0143272Y0104728D03*
X0144112Y0102628D03*
X0144252Y0101928D03*
X0147472Y0104728D03*
X0148312Y0102628D03*
X0148592Y0101928D03*
X0148872Y0101228D03*
X0149152Y0100528D03*
X0152792Y0104728D03*
X0162452Y0104728D03*
X0163292Y0102628D03*
X0166652Y0104728D03*
X0166372Y0105428D03*
X0166092Y0106128D03*
X0167492Y0102628D03*
X0167772Y0101928D03*
X0168052Y0101228D03*
X0171552Y0102628D03*
X0170712Y0104728D03*
X0170152Y0106128D03*
X0172392Y0100528D03*
D57*
X0135292Y0100528D03*
D58*
X0152372Y0100528D03*
D59*
X0154822Y0101228D03*
X0154542Y0101928D03*
X0154262Y0102628D03*
X0155102Y0100528D03*
D60*
X0161822Y0100528D03*
D61*
X0163432Y0101928D03*
X0168332Y0100528D03*
X0171832Y0101928D03*
X0170432Y0105428D03*
X0136132Y0101928D03*
X0134732Y0105428D03*
X0117232Y0104728D03*
D62*
X0177432Y0104028D03*
X0178692Y0100528D03*
D63*
X0171902Y0101648D03*
X0171622Y0102348D03*
X0171482Y0102768D03*
X0170502Y0105288D03*
X0170362Y0105568D03*
X0170222Y0105988D03*
X0170082Y0106268D03*
X0167562Y0102488D03*
X0167702Y0102208D03*
X0168122Y0101088D03*
X0152862Y0104868D03*
X0148382Y0102488D03*
X0148942Y0101088D03*
X0147402Y0104868D03*
X0143202Y0104868D03*
X0142922Y0105288D03*
X0135222Y0104308D03*
X0118702Y0100808D03*
X0114782Y0100668D03*
X0114642Y0101088D03*
X0114502Y0101368D03*
X0114082Y0102488D03*
X0113802Y0103188D03*
X0106102Y0102068D03*
D64*
X0122412Y0106268D03*
X0125072Y0100668D03*
X0140752Y0106268D03*
X0159512Y0106408D03*
X0161892Y0100668D03*
D65*
X0154962Y0100668D03*
X0154962Y0100808D03*
X0154822Y0101088D03*
X0154682Y0101368D03*
X0154682Y0101508D03*
X0154542Y0101788D03*
X0154402Y0102208D03*
X0154402Y0102348D03*
X0154262Y0102488D03*
X0154122Y0102768D03*
X0152722Y0106408D03*
X0146282Y0106268D03*
D66*
X0142782Y0100808D03*
X0159722Y0106268D03*
X0108482Y0100808D03*
D67*
X0124862Y0100808D03*
D68*
X0132912Y0105988D03*
X0134872Y0100948D03*
X0135012Y0100808D03*
X0142572Y0101508D03*
X0141032Y0105568D03*
X0108272Y0101368D03*
X0106592Y0105568D03*
X0090072Y0104308D03*
X0089932Y0104448D03*
X0089232Y0105988D03*
X0089232Y0106268D03*
X0089232Y0106408D03*
D69*
X0122552Y0105988D03*
X0161892Y0100808D03*
D70*
X0161962Y0100948D03*
X0142782Y0100948D03*
X0140822Y0105988D03*
X0124722Y0100948D03*
X0122902Y0105568D03*
X0122762Y0105848D03*
X0108482Y0100948D03*
D71*
X0152232Y0100948D03*
X0154472Y0102068D03*
X0154892Y0100948D03*
D72*
X0161892Y0101088D03*
X0160072Y0105848D03*
X0142712Y0101088D03*
X0133052Y0106408D03*
X0124512Y0101088D03*
X0108412Y0101088D03*
X0106452Y0105988D03*
D73*
X0108202Y0101508D03*
X0089302Y0106548D03*
X0132842Y0105848D03*
X0134802Y0101088D03*
D74*
X0146562Y0105988D03*
X0150202Y0102768D03*
X0152162Y0101088D03*
X0152722Y0105988D03*
X0152722Y0106268D03*
D75*
X0172042Y0101228D03*
X0118562Y0101228D03*
X0118282Y0101928D03*
D76*
X0134662Y0101228D03*
D77*
X0152162Y0101228D03*
D78*
X0134592Y0101368D03*
X0134452Y0101508D03*
X0132912Y0105568D03*
X0132912Y0105708D03*
X0093992Y0101508D03*
D79*
X0089862Y0104588D03*
X0089582Y0105008D03*
X0089442Y0105288D03*
X0089302Y0105568D03*
X0089302Y0105708D03*
X0089302Y0105848D03*
X0106522Y0105708D03*
X0140962Y0105708D03*
X0142642Y0101368D03*
D80*
X0152022Y0101368D03*
X0152722Y0105288D03*
D81*
X0152792Y0105148D03*
X0152792Y0105008D03*
X0151952Y0101508D03*
X0147332Y0105008D03*
X0147192Y0105148D03*
D82*
X0093712Y0101648D03*
X0089512Y0106688D03*
D83*
X0104982Y0105288D03*
X0104982Y0105148D03*
X0104982Y0105008D03*
X0104982Y0104868D03*
X0105122Y0104448D03*
X0105122Y0104308D03*
X0105122Y0104168D03*
X0105262Y0103888D03*
X0105402Y0103608D03*
X0105402Y0103468D03*
X0105542Y0103188D03*
X0105542Y0103048D03*
X0105682Y0102908D03*
X0105682Y0102768D03*
X0105822Y0102488D03*
X0105962Y0102348D03*
X0109322Y0103888D03*
X0109462Y0103608D03*
X0109182Y0104308D03*
X0109882Y0102488D03*
X0113382Y0104308D03*
X0117022Y0105148D03*
X0117162Y0104868D03*
X0117302Y0104448D03*
X0117862Y0103048D03*
X0131022Y0105148D03*
X0131022Y0105288D03*
X0131162Y0104448D03*
X0131162Y0104308D03*
X0131302Y0103888D03*
X0131442Y0103748D03*
X0131442Y0103608D03*
X0131442Y0103468D03*
X0131582Y0103188D03*
X0131722Y0102908D03*
X0132562Y0101648D03*
X0139562Y0103888D03*
X0139702Y0103748D03*
X0139702Y0103608D03*
X0139702Y0103468D03*
X0139842Y0103188D03*
X0139982Y0102908D03*
X0139422Y0104308D03*
X0139422Y0104448D03*
X0139282Y0104868D03*
X0139282Y0105008D03*
X0139282Y0105148D03*
X0139282Y0105288D03*
X0140822Y0101648D03*
X0144182Y0102488D03*
X0144042Y0103048D03*
X0144042Y0103188D03*
X0143902Y0103468D03*
X0143762Y0103748D03*
X0147682Y0104448D03*
X0152302Y0102768D03*
X0151882Y0101788D03*
X0152862Y0104448D03*
X0162522Y0104588D03*
X0162662Y0104308D03*
X0162802Y0103888D03*
X0162942Y0103748D03*
X0162942Y0103608D03*
X0163222Y0103048D03*
X0163222Y0102908D03*
X0163222Y0102768D03*
X0163362Y0102488D03*
X0163362Y0102348D03*
X0163362Y0102208D03*
X0163362Y0101648D03*
X0166862Y0104308D03*
D84*
X0154612Y0101648D03*
D85*
X0093502Y0101788D03*
D86*
X0093362Y0101928D03*
D87*
X0123042Y0101928D03*
X0159722Y0104028D03*
X0160002Y0103328D03*
D88*
X0162802Y0104028D03*
X0163082Y0103328D03*
X0161822Y0105428D03*
X0143902Y0103328D03*
X0143622Y0104028D03*
X0140542Y0101928D03*
X0140122Y0102628D03*
X0139842Y0103328D03*
X0139562Y0104028D03*
X0131862Y0102628D03*
X0131582Y0103328D03*
X0131302Y0104028D03*
X0109602Y0103328D03*
X0109322Y0104028D03*
X0105822Y0102628D03*
X0105262Y0104028D03*
D89*
X0151882Y0101928D03*
X0152862Y0104028D03*
D90*
X0093152Y0102068D03*
D91*
X0093012Y0102208D03*
X0092872Y0102348D03*
D92*
X0092802Y0102488D03*
D93*
X0123322Y0102768D03*
X0123322Y0102908D03*
X0123462Y0103048D03*
X0123742Y0103468D03*
X0123742Y0103608D03*
X0123882Y0103748D03*
X0123882Y0103888D03*
X0124022Y0104168D03*
X0148802Y0103048D03*
X0151602Y0102488D03*
X0152862Y0102908D03*
D94*
X0092592Y0102628D03*
D95*
X0092522Y0102768D03*
X0092382Y0102908D03*
D96*
X0092312Y0103048D03*
D97*
X0092242Y0103188D03*
X0091962Y0103608D03*
D98*
X0123532Y0103188D03*
D99*
X0147752Y0104308D03*
X0163012Y0103468D03*
X0163152Y0103188D03*
D100*
X0092102Y0103328D03*
D101*
X0105472Y0103328D03*
X0124232Y0105428D03*
X0131092Y0105428D03*
D102*
X0115762Y0103328D03*
X0115482Y0104028D03*
X0168962Y0104028D03*
X0169242Y0103328D03*
D103*
X0124022Y0104028D03*
X0123602Y0103328D03*
D104*
X0092032Y0103468D03*
X0091892Y0103748D03*
X0091752Y0103888D03*
D105*
X0115412Y0104168D03*
X0115552Y0103888D03*
X0115552Y0103748D03*
X0115692Y0103468D03*
X0168892Y0104168D03*
X0169032Y0103888D03*
X0169032Y0103748D03*
X0169172Y0103468D03*
D106*
X0169102Y0103608D03*
X0115622Y0103608D03*
D107*
X0105332Y0103748D03*
X0131232Y0104168D03*
X0152792Y0104168D03*
X0152792Y0104308D03*
D108*
X0090422Y0104028D03*
D109*
X0090282Y0104168D03*
D110*
X0089722Y0104728D03*
D111*
X0147052Y0105288D03*
D112*
X0139352Y0105428D03*
X0105052Y0105428D03*
D113*
X0146912Y0105428D03*
X0152792Y0105428D03*
D114*
X0152722Y0105568D03*
X0152722Y0105708D03*
X0146842Y0105568D03*
D115*
X0146772Y0105708D03*
X0146632Y0105848D03*
X0152792Y0105848D03*
D116*
X0089232Y0106128D03*
D117*
X0106382Y0106128D03*
X0122482Y0106128D03*
D118*
X0140752Y0106128D03*
D119*
X0146492Y0106128D03*
D120*
X0152722Y0106128D03*
D121*
X0159862Y0106128D03*
D122*
X0093572Y0106828D03*
D123*
X0176102Y0107528D03*
X0176382Y0106828D03*
D124*
X0093572Y0106968D03*
D125*
X0175822Y0108088D03*
X0175962Y0107948D03*
X0175962Y0107808D03*
X0176102Y0107388D03*
X0176242Y0107108D03*
X0176242Y0106968D03*
D126*
X0093502Y0107108D03*
X0093502Y0107248D03*
X0093502Y0107388D03*
D127*
X0176032Y0107668D03*
X0176172Y0107248D03*
D128*
X0093432Y0107528D03*
D129*
X0093432Y0107668D03*
D130*
X0093362Y0107808D03*
D131*
X0093432Y0107948D03*
X0093432Y0108088D03*
D132*
X0135362Y0108228D03*
D133*
X0135362Y0108368D03*
D134*
X0135362Y0108508D03*
D135*
X0135432Y0108648D03*
D136*
X0135502Y0108788D03*
D137*
X0135572Y0108928D03*
D138*
X0135642Y0109068D03*
D139*
X0135499Y0087358D02*
X0139299Y0087358D01*
X0140099Y0083258D01*
X0141199Y0082958D01*
X0141999Y0082558D01*
X0143199Y0081958D01*
X0146599Y0084358D01*
X0147299Y0083758D01*
X0147999Y0083058D01*
X0148699Y0082358D01*
X0149299Y0081658D01*
X0146999Y0078258D01*
X0147499Y0077358D01*
X0147899Y0076458D01*
X0148199Y0075658D01*
X0148499Y0074858D01*
X0152499Y0074258D01*
X0152599Y0073058D01*
X0152599Y0070458D01*
X0148399Y0069758D01*
X0148199Y0068758D01*
X0147799Y0067758D01*
X0147399Y0066858D01*
X0146999Y0066058D01*
X0149399Y0062858D01*
X0148799Y0062158D01*
X0148099Y0061458D01*
X0147399Y0060758D01*
X0146799Y0060258D01*
X0143399Y0062558D01*
X0142699Y0062158D01*
X0141999Y0061858D01*
X0141399Y0061558D01*
X0138999Y0068358D01*
X0139703Y0068695D01*
X0140332Y0069156D01*
X0140864Y0069725D01*
X0141281Y0070384D01*
X0141568Y0071109D01*
X0141716Y0071875D01*
X0141719Y0072654D01*
X0141577Y0073421D01*
X0141295Y0074148D01*
X0140883Y0074810D01*
X0140355Y0075384D01*
X0139730Y0075850D01*
X0139029Y0076191D01*
X0138276Y0076396D01*
X0137499Y0076458D01*
X0136709Y0076433D01*
X0135937Y0076260D01*
X0135211Y0075945D01*
X0134557Y0075500D01*
X0133999Y0074941D01*
X0133555Y0074286D01*
X0133241Y0073560D01*
X0133070Y0072788D01*
X0133046Y0071997D01*
X0133171Y0071216D01*
X0133440Y0070472D01*
X0133844Y0069792D01*
X0134368Y0069200D01*
X0134994Y0068716D01*
X0135699Y0068358D01*
X0133099Y0061658D01*
X0132399Y0062058D01*
X0131699Y0062458D01*
X0130999Y0062858D01*
X0127699Y0060458D01*
X0126999Y0061158D01*
X0126399Y0061758D01*
X0125799Y0062458D01*
X0125199Y0063158D01*
X0127599Y0066758D01*
X0127099Y0067558D01*
X0126799Y0068458D01*
X0126499Y0069358D01*
X0126299Y0070058D01*
X0122299Y0070758D01*
X0122199Y0071858D01*
X0122199Y0072758D01*
X0122299Y0073558D01*
X0122399Y0074558D01*
X0126499Y0075258D01*
X0126899Y0076358D01*
X0127099Y0076958D01*
X0127499Y0077658D01*
X0127999Y0078458D01*
X0125499Y0081658D01*
X0126099Y0082358D01*
X0126799Y0083058D01*
X0127599Y0083758D01*
X0128399Y0084458D01*
X0131799Y0082058D01*
X0132699Y0082458D01*
X0133499Y0082858D01*
X0134199Y0083058D01*
X0134899Y0083258D01*
X0135499Y0087358D01*
X0135484Y0087252D02*
X0139320Y0087252D01*
X0139359Y0087053D02*
X0135455Y0087053D01*
X0135425Y0086855D02*
X0139397Y0086855D01*
X0139436Y0086656D02*
X0135396Y0086656D01*
X0135367Y0086458D02*
X0139475Y0086458D01*
X0139514Y0086259D02*
X0135338Y0086259D01*
X0135309Y0086061D02*
X0139552Y0086061D01*
X0139591Y0085862D02*
X0135280Y0085862D01*
X0135251Y0085664D02*
X0139630Y0085664D01*
X0139669Y0085465D02*
X0135222Y0085465D01*
X0135193Y0085267D02*
X0139707Y0085267D01*
X0139746Y0085068D02*
X0135164Y0085068D01*
X0135135Y0084870D02*
X0139785Y0084870D01*
X0139824Y0084671D02*
X0135106Y0084671D01*
X0135077Y0084473D02*
X0139862Y0084473D01*
X0139901Y0084274D02*
X0135048Y0084274D01*
X0135019Y0084076D02*
X0139940Y0084076D01*
X0139978Y0083877D02*
X0134990Y0083877D01*
X0134961Y0083679D02*
X0140017Y0083679D01*
X0140056Y0083480D02*
X0134932Y0083480D01*
X0134903Y0083282D02*
X0140095Y0083282D01*
X0140742Y0083083D02*
X0134286Y0083083D01*
X0133591Y0082885D02*
X0141347Y0082885D01*
X0141744Y0082686D02*
X0133154Y0082686D01*
X0132757Y0082488D02*
X0142141Y0082488D01*
X0142538Y0082289D02*
X0132318Y0082289D01*
X0131871Y0082090D02*
X0142935Y0082090D01*
X0143386Y0082090D02*
X0148929Y0082090D01*
X0149099Y0081892D02*
X0125699Y0081892D01*
X0125529Y0081693D02*
X0149269Y0081693D01*
X0149189Y0081495D02*
X0125627Y0081495D01*
X0125782Y0081296D02*
X0149054Y0081296D01*
X0148920Y0081098D02*
X0125937Y0081098D01*
X0126092Y0080899D02*
X0148786Y0080899D01*
X0148652Y0080701D02*
X0126247Y0080701D01*
X0126402Y0080502D02*
X0148517Y0080502D01*
X0148383Y0080304D02*
X0126557Y0080304D01*
X0126712Y0080105D02*
X0148249Y0080105D01*
X0148114Y0079907D02*
X0126868Y0079907D01*
X0127023Y0079708D02*
X0147980Y0079708D01*
X0147846Y0079510D02*
X0127178Y0079510D01*
X0127333Y0079311D02*
X0147712Y0079311D01*
X0147577Y0079113D02*
X0127488Y0079113D01*
X0127643Y0078914D02*
X0147443Y0078914D01*
X0147309Y0078716D02*
X0127798Y0078716D01*
X0127953Y0078517D02*
X0147174Y0078517D01*
X0147040Y0078319D02*
X0127912Y0078319D01*
X0127788Y0078120D02*
X0147076Y0078120D01*
X0147186Y0077922D02*
X0127664Y0077922D01*
X0127540Y0077723D02*
X0147296Y0077723D01*
X0147407Y0077525D02*
X0127423Y0077525D01*
X0127309Y0077326D02*
X0147513Y0077326D01*
X0147602Y0077128D02*
X0127196Y0077128D01*
X0127089Y0076929D02*
X0147690Y0076929D01*
X0147778Y0076731D02*
X0127023Y0076731D01*
X0126957Y0076532D02*
X0147866Y0076532D01*
X0147946Y0076334D02*
X0138507Y0076334D01*
X0139144Y0076135D02*
X0148020Y0076135D01*
X0148095Y0075937D02*
X0139551Y0075937D01*
X0139880Y0075738D02*
X0148169Y0075738D01*
X0148244Y0075540D02*
X0140146Y0075540D01*
X0140395Y0075341D02*
X0148318Y0075341D01*
X0148393Y0075143D02*
X0140577Y0075143D01*
X0140760Y0074944D02*
X0148467Y0074944D01*
X0149251Y0074746D02*
X0140923Y0074746D01*
X0141047Y0074547D02*
X0150575Y0074547D01*
X0151898Y0074349D02*
X0141170Y0074349D01*
X0141294Y0074150D02*
X0152508Y0074150D01*
X0152525Y0073952D02*
X0141371Y0073952D01*
X0141448Y0073753D02*
X0152541Y0073753D01*
X0152558Y0073555D02*
X0141525Y0073555D01*
X0141589Y0073356D02*
X0152574Y0073356D01*
X0152591Y0073157D02*
X0141626Y0073157D01*
X0141663Y0072959D02*
X0152599Y0072959D01*
X0152599Y0072760D02*
X0141700Y0072760D01*
X0141719Y0072562D02*
X0152599Y0072562D01*
X0152599Y0072363D02*
X0141718Y0072363D01*
X0141717Y0072165D02*
X0152599Y0072165D01*
X0152599Y0071966D02*
X0141717Y0071966D01*
X0141696Y0071768D02*
X0152599Y0071768D01*
X0152599Y0071569D02*
X0141657Y0071569D01*
X0141619Y0071371D02*
X0152599Y0071371D01*
X0152599Y0071172D02*
X0141581Y0071172D01*
X0141515Y0070974D02*
X0152599Y0070974D01*
X0152599Y0070775D02*
X0141436Y0070775D01*
X0141357Y0070577D02*
X0152599Y0070577D01*
X0152119Y0070378D02*
X0141277Y0070378D01*
X0141152Y0070180D02*
X0150928Y0070180D01*
X0149737Y0069981D02*
X0141026Y0069981D01*
X0140900Y0069783D02*
X0148546Y0069783D01*
X0148364Y0069584D02*
X0140732Y0069584D01*
X0140547Y0069386D02*
X0148325Y0069386D01*
X0148285Y0069187D02*
X0140361Y0069187D01*
X0140104Y0068989D02*
X0148245Y0068989D01*
X0148206Y0068790D02*
X0139833Y0068790D01*
X0139488Y0068592D02*
X0148133Y0068592D01*
X0148053Y0068393D02*
X0139072Y0068393D01*
X0139057Y0068195D02*
X0147974Y0068195D01*
X0147894Y0067996D02*
X0139127Y0067996D01*
X0139197Y0067798D02*
X0147815Y0067798D01*
X0147728Y0067599D02*
X0139267Y0067599D01*
X0139337Y0067401D02*
X0147640Y0067401D01*
X0147552Y0067202D02*
X0139407Y0067202D01*
X0139477Y0067004D02*
X0147464Y0067004D01*
X0147373Y0066805D02*
X0139547Y0066805D01*
X0139617Y0066607D02*
X0147273Y0066607D01*
X0147174Y0066408D02*
X0139688Y0066408D01*
X0139758Y0066210D02*
X0147075Y0066210D01*
X0147035Y0066011D02*
X0139828Y0066011D01*
X0139898Y0065813D02*
X0147184Y0065813D01*
X0147332Y0065614D02*
X0139968Y0065614D01*
X0140038Y0065416D02*
X0147481Y0065416D01*
X0147630Y0065217D02*
X0140108Y0065217D01*
X0140178Y0065019D02*
X0147779Y0065019D01*
X0147928Y0064820D02*
X0140248Y0064820D01*
X0140318Y0064621D02*
X0148077Y0064621D01*
X0148226Y0064423D02*
X0140388Y0064423D01*
X0140458Y0064224D02*
X0148375Y0064224D01*
X0148524Y0064026D02*
X0140528Y0064026D01*
X0140598Y0063827D02*
X0148672Y0063827D01*
X0148821Y0063629D02*
X0140668Y0063629D01*
X0140738Y0063430D02*
X0148970Y0063430D01*
X0149119Y0063232D02*
X0140809Y0063232D01*
X0140879Y0063033D02*
X0149268Y0063033D01*
X0149379Y0062835D02*
X0140949Y0062835D01*
X0141019Y0062636D02*
X0149209Y0062636D01*
X0149039Y0062438D02*
X0143577Y0062438D01*
X0143871Y0062239D02*
X0148869Y0062239D01*
X0148682Y0062041D02*
X0144164Y0062041D01*
X0144458Y0061842D02*
X0148483Y0061842D01*
X0148285Y0061644D02*
X0144751Y0061644D01*
X0145045Y0061445D02*
X0148086Y0061445D01*
X0147888Y0061247D02*
X0145338Y0061247D01*
X0145632Y0061048D02*
X0147689Y0061048D01*
X0147491Y0060850D02*
X0145925Y0060850D01*
X0146218Y0060651D02*
X0147271Y0060651D01*
X0147032Y0060453D02*
X0146512Y0060453D01*
X0143188Y0062438D02*
X0141089Y0062438D01*
X0141159Y0062239D02*
X0142841Y0062239D01*
X0142425Y0062041D02*
X0141229Y0062041D01*
X0141299Y0061842D02*
X0141967Y0061842D01*
X0141570Y0061644D02*
X0141369Y0061644D01*
X0134249Y0064621D02*
X0126175Y0064621D01*
X0126042Y0064423D02*
X0134172Y0064423D01*
X0134095Y0064224D02*
X0125910Y0064224D01*
X0125778Y0064026D02*
X0134018Y0064026D01*
X0133941Y0063827D02*
X0125645Y0063827D01*
X0125513Y0063629D02*
X0133864Y0063629D01*
X0133787Y0063430D02*
X0125381Y0063430D01*
X0125248Y0063232D02*
X0133710Y0063232D01*
X0133633Y0063033D02*
X0125306Y0063033D01*
X0125476Y0062835D02*
X0130967Y0062835D01*
X0131040Y0062835D02*
X0133556Y0062835D01*
X0133479Y0062636D02*
X0131388Y0062636D01*
X0131735Y0062438D02*
X0133402Y0062438D01*
X0133325Y0062239D02*
X0132082Y0062239D01*
X0132430Y0062041D02*
X0133248Y0062041D01*
X0133171Y0061842D02*
X0132777Y0061842D01*
X0130694Y0062636D02*
X0125647Y0062636D01*
X0125817Y0062438D02*
X0130421Y0062438D01*
X0130148Y0062239D02*
X0125987Y0062239D01*
X0126157Y0062041D02*
X0129875Y0062041D01*
X0129602Y0061842D02*
X0126327Y0061842D01*
X0126514Y0061644D02*
X0129329Y0061644D01*
X0129056Y0061445D02*
X0126712Y0061445D01*
X0126911Y0061247D02*
X0128783Y0061247D01*
X0128510Y0061048D02*
X0127109Y0061048D01*
X0127308Y0060850D02*
X0128237Y0060850D01*
X0127964Y0060651D02*
X0127506Y0060651D01*
X0126307Y0064820D02*
X0134326Y0064820D01*
X0134403Y0065019D02*
X0126439Y0065019D01*
X0126572Y0065217D02*
X0134480Y0065217D01*
X0134557Y0065416D02*
X0126704Y0065416D01*
X0126836Y0065614D02*
X0134634Y0065614D01*
X0134711Y0065813D02*
X0126969Y0065813D01*
X0127101Y0066011D02*
X0134788Y0066011D01*
X0134865Y0066210D02*
X0127233Y0066210D01*
X0127366Y0066408D02*
X0134942Y0066408D01*
X0135019Y0066607D02*
X0127498Y0066607D01*
X0127570Y0066805D02*
X0135096Y0066805D01*
X0135173Y0067004D02*
X0127446Y0067004D01*
X0127322Y0067202D02*
X0135251Y0067202D01*
X0135328Y0067401D02*
X0127198Y0067401D01*
X0127086Y0067599D02*
X0135405Y0067599D01*
X0135482Y0067798D02*
X0127019Y0067798D01*
X0126953Y0067996D02*
X0135559Y0067996D01*
X0135636Y0068195D02*
X0126887Y0068195D01*
X0126821Y0068393D02*
X0135630Y0068393D01*
X0135239Y0068592D02*
X0126755Y0068592D01*
X0126689Y0068790D02*
X0134898Y0068790D01*
X0134641Y0068989D02*
X0126622Y0068989D01*
X0126556Y0069187D02*
X0134384Y0069187D01*
X0134203Y0069386D02*
X0126491Y0069386D01*
X0126435Y0069584D02*
X0134028Y0069584D01*
X0133852Y0069783D02*
X0126378Y0069783D01*
X0126321Y0069981D02*
X0133731Y0069981D01*
X0133614Y0070180D02*
X0125605Y0070180D01*
X0124471Y0070378D02*
X0133496Y0070378D01*
X0133402Y0070577D02*
X0123337Y0070577D01*
X0122298Y0070775D02*
X0133330Y0070775D01*
X0133259Y0070974D02*
X0122280Y0070974D01*
X0122262Y0071172D02*
X0133187Y0071172D01*
X0133146Y0071371D02*
X0122244Y0071371D01*
X0122225Y0071569D02*
X0133114Y0071569D01*
X0133083Y0071768D02*
X0122207Y0071768D01*
X0122199Y0071966D02*
X0133051Y0071966D01*
X0133051Y0072165D02*
X0122199Y0072165D01*
X0122199Y0072363D02*
X0133057Y0072363D01*
X0133063Y0072562D02*
X0122199Y0072562D01*
X0122199Y0072760D02*
X0133069Y0072760D01*
X0133108Y0072959D02*
X0122224Y0072959D01*
X0122249Y0073157D02*
X0133152Y0073157D01*
X0133196Y0073356D02*
X0122274Y0073356D01*
X0122299Y0073555D02*
X0133240Y0073555D01*
X0133325Y0073753D02*
X0122319Y0073753D01*
X0122339Y0073952D02*
X0133411Y0073952D01*
X0133496Y0074150D02*
X0122358Y0074150D01*
X0122378Y0074349D02*
X0133597Y0074349D01*
X0133732Y0074547D02*
X0122398Y0074547D01*
X0123496Y0074746D02*
X0133866Y0074746D01*
X0134002Y0074944D02*
X0124658Y0074944D01*
X0125821Y0075143D02*
X0134200Y0075143D01*
X0134399Y0075341D02*
X0126529Y0075341D01*
X0126601Y0075540D02*
X0134615Y0075540D01*
X0134907Y0075738D02*
X0126674Y0075738D01*
X0126746Y0075937D02*
X0135198Y0075937D01*
X0135649Y0076135D02*
X0126818Y0076135D01*
X0126890Y0076334D02*
X0136265Y0076334D01*
X0131754Y0082090D02*
X0125870Y0082090D01*
X0126040Y0082289D02*
X0131472Y0082289D01*
X0131191Y0082488D02*
X0126228Y0082488D01*
X0126427Y0082686D02*
X0130910Y0082686D01*
X0130629Y0082885D02*
X0126625Y0082885D01*
X0126827Y0083083D02*
X0130348Y0083083D01*
X0130066Y0083282D02*
X0127054Y0083282D01*
X0127281Y0083480D02*
X0129785Y0083480D01*
X0129504Y0083679D02*
X0127508Y0083679D01*
X0127735Y0083877D02*
X0129223Y0083877D01*
X0128941Y0084076D02*
X0127962Y0084076D01*
X0128189Y0084274D02*
X0128660Y0084274D01*
X0143668Y0082289D02*
X0148759Y0082289D01*
X0148570Y0082488D02*
X0143949Y0082488D01*
X0144230Y0082686D02*
X0148372Y0082686D01*
X0148173Y0082885D02*
X0144511Y0082885D01*
X0144792Y0083083D02*
X0147975Y0083083D01*
X0147776Y0083282D02*
X0145074Y0083282D01*
X0145355Y0083480D02*
X0147578Y0083480D01*
X0147379Y0083679D02*
X0145636Y0083679D01*
X0145917Y0083877D02*
X0147161Y0083877D01*
X0146929Y0084076D02*
X0146199Y0084076D01*
X0146480Y0084274D02*
X0146698Y0084274D01*
D140*
X0139443Y0053314D02*
X0139320Y0053272D01*
X0139195Y0053233D01*
X0139070Y0053198D01*
X0138943Y0053167D01*
X0138815Y0053140D01*
X0138687Y0053117D01*
X0138558Y0053097D01*
X0138428Y0053082D01*
X0138299Y0053070D01*
X0138168Y0053062D01*
X0138038Y0053058D01*
X0137987Y0053059D01*
X0137937Y0053064D01*
X0137886Y0053074D01*
X0137837Y0053086D01*
X0137789Y0053103D01*
X0137742Y0053124D01*
X0137696Y0053147D01*
X0137653Y0053175D01*
X0137612Y0053205D01*
X0137574Y0053239D01*
X0137538Y0053275D01*
X0137505Y0053315D01*
X0137475Y0053356D01*
X0137449Y0053400D01*
X0137426Y0053445D01*
X0137407Y0053493D01*
X0137391Y0053541D01*
X0137379Y0053591D01*
X0137371Y0053641D01*
X0137367Y0053692D01*
X0137366Y0053743D01*
X0137370Y0053794D01*
X0137378Y0053845D01*
X0137389Y0053895D01*
X0137404Y0053944D01*
X0137423Y0053991D01*
X0137446Y0054037D01*
X0137472Y0054081D01*
X0137501Y0054123D01*
X0137534Y0054162D01*
X0137569Y0054199D01*
X0137608Y0054233D01*
X0137648Y0054264D01*
X0137691Y0054291D01*
X0137736Y0054316D01*
X0137783Y0054337D01*
X0137783Y0054336D02*
X0139060Y0054847D01*
X0139060Y0054846D02*
X0139107Y0054867D01*
X0139152Y0054892D01*
X0139195Y0054919D01*
X0139235Y0054950D01*
X0139274Y0054984D01*
X0139309Y0055021D01*
X0139342Y0055060D01*
X0139371Y0055102D01*
X0139397Y0055146D01*
X0139420Y0055192D01*
X0139439Y0055239D01*
X0139454Y0055288D01*
X0139465Y0055338D01*
X0139473Y0055389D01*
X0139477Y0055440D01*
X0139476Y0055491D01*
X0139472Y0055542D01*
X0139464Y0055592D01*
X0139452Y0055642D01*
X0139436Y0055690D01*
X0139417Y0055738D01*
X0139394Y0055783D01*
X0139368Y0055827D01*
X0139338Y0055868D01*
X0139305Y0055908D01*
X0139269Y0055944D01*
X0139231Y0055978D01*
X0139190Y0056008D01*
X0139147Y0056036D01*
X0139101Y0056059D01*
X0139054Y0056080D01*
X0139006Y0056097D01*
X0138957Y0056109D01*
X0138906Y0056119D01*
X0138856Y0056124D01*
X0138805Y0056125D01*
X0135544Y0055103D02*
X0135544Y0054081D01*
X0135543Y0054081D02*
X0135541Y0054018D01*
X0135535Y0053955D01*
X0135526Y0053893D01*
X0135512Y0053832D01*
X0135495Y0053771D01*
X0135474Y0053712D01*
X0135449Y0053654D01*
X0135421Y0053597D01*
X0135390Y0053543D01*
X0135355Y0053491D01*
X0135317Y0053440D01*
X0135276Y0053392D01*
X0135232Y0053347D01*
X0135186Y0053305D01*
X0135137Y0053265D01*
X0135086Y0053229D01*
X0135032Y0053196D01*
X0134977Y0053166D01*
X0134919Y0053140D01*
X0134861Y0053117D01*
X0134801Y0053098D01*
X0134740Y0053083D01*
X0134678Y0053071D01*
X0134615Y0053063D01*
X0134552Y0053059D01*
X0134490Y0053059D01*
X0134427Y0053063D01*
X0134364Y0053071D01*
X0134302Y0053083D01*
X0134241Y0053098D01*
X0134181Y0053117D01*
X0134123Y0053140D01*
X0134065Y0053166D01*
X0134010Y0053196D01*
X0133956Y0053229D01*
X0133905Y0053265D01*
X0133856Y0053305D01*
X0133810Y0053347D01*
X0133766Y0053392D01*
X0133725Y0053440D01*
X0133687Y0053491D01*
X0133652Y0053543D01*
X0133621Y0053597D01*
X0133593Y0053654D01*
X0133568Y0053712D01*
X0133547Y0053771D01*
X0133530Y0053832D01*
X0133516Y0053893D01*
X0133507Y0053955D01*
X0133501Y0054018D01*
X0133499Y0054081D01*
X0133499Y0055103D01*
X0133501Y0055166D01*
X0133507Y0055229D01*
X0133516Y0055291D01*
X0133530Y0055352D01*
X0133547Y0055413D01*
X0133568Y0055472D01*
X0133593Y0055530D01*
X0133621Y0055587D01*
X0133652Y0055641D01*
X0133687Y0055693D01*
X0133725Y0055744D01*
X0133766Y0055792D01*
X0133810Y0055837D01*
X0133856Y0055879D01*
X0133905Y0055919D01*
X0133956Y0055955D01*
X0134010Y0055988D01*
X0134065Y0056018D01*
X0134123Y0056044D01*
X0134181Y0056067D01*
X0134241Y0056086D01*
X0134302Y0056101D01*
X0134364Y0056113D01*
X0134427Y0056121D01*
X0134490Y0056125D01*
X0134552Y0056125D01*
X0134615Y0056121D01*
X0134678Y0056113D01*
X0134740Y0056101D01*
X0134801Y0056086D01*
X0134861Y0056067D01*
X0134919Y0056044D01*
X0134977Y0056018D01*
X0135032Y0055988D01*
X0135086Y0055955D01*
X0135137Y0055919D01*
X0135186Y0055879D01*
X0135232Y0055837D01*
X0135276Y0055792D01*
X0135317Y0055744D01*
X0135355Y0055693D01*
X0135390Y0055641D01*
X0135421Y0055587D01*
X0135449Y0055530D01*
X0135474Y0055472D01*
X0135495Y0055413D01*
X0135512Y0055352D01*
X0135526Y0055291D01*
X0135535Y0055229D01*
X0135541Y0055166D01*
X0135543Y0055103D01*
X0137655Y0055869D02*
X0137745Y0055908D01*
X0137838Y0055944D01*
X0137931Y0055977D01*
X0138025Y0056006D01*
X0138120Y0056033D01*
X0138216Y0056056D01*
X0138313Y0056076D01*
X0138411Y0056092D01*
X0138509Y0056105D01*
X0138607Y0056115D01*
X0138706Y0056122D01*
X0138805Y0056125D01*
X0143849Y0055358D02*
X0143849Y0053058D01*
X0145894Y0053058D02*
X0145894Y0056125D01*
X0144616Y0056125D01*
X0144561Y0056123D01*
X0144507Y0056117D01*
X0144453Y0056107D01*
X0144400Y0056094D01*
X0144348Y0056077D01*
X0144297Y0056056D01*
X0144248Y0056031D01*
X0144201Y0056003D01*
X0144156Y0055972D01*
X0144114Y0055938D01*
X0144074Y0055900D01*
X0144036Y0055860D01*
X0144002Y0055818D01*
X0143971Y0055773D01*
X0143943Y0055726D01*
X0143918Y0055677D01*
X0143897Y0055626D01*
X0143880Y0055574D01*
X0143867Y0055521D01*
X0143857Y0055467D01*
X0143851Y0055413D01*
X0143849Y0055358D01*
X0147899Y0055103D02*
X0147899Y0054592D01*
X0149944Y0054592D01*
X0149944Y0055103D02*
X0149944Y0053825D01*
X0149942Y0053770D01*
X0149936Y0053716D01*
X0149926Y0053662D01*
X0149913Y0053609D01*
X0149896Y0053557D01*
X0149875Y0053506D01*
X0149850Y0053457D01*
X0149822Y0053410D01*
X0149791Y0053365D01*
X0149757Y0053323D01*
X0149719Y0053283D01*
X0149679Y0053245D01*
X0149637Y0053211D01*
X0149592Y0053180D01*
X0149545Y0053152D01*
X0149496Y0053127D01*
X0149445Y0053106D01*
X0149393Y0053089D01*
X0149340Y0053076D01*
X0149286Y0053066D01*
X0149232Y0053060D01*
X0149177Y0053058D01*
X0147899Y0053058D01*
X0147899Y0055103D02*
X0147901Y0055166D01*
X0147907Y0055229D01*
X0147916Y0055291D01*
X0147930Y0055352D01*
X0147947Y0055413D01*
X0147968Y0055472D01*
X0147993Y0055530D01*
X0148021Y0055587D01*
X0148052Y0055641D01*
X0148087Y0055693D01*
X0148125Y0055744D01*
X0148166Y0055792D01*
X0148210Y0055837D01*
X0148256Y0055879D01*
X0148305Y0055919D01*
X0148356Y0055955D01*
X0148410Y0055988D01*
X0148465Y0056018D01*
X0148523Y0056044D01*
X0148581Y0056067D01*
X0148641Y0056086D01*
X0148702Y0056101D01*
X0148764Y0056113D01*
X0148827Y0056121D01*
X0148890Y0056125D01*
X0148952Y0056125D01*
X0149015Y0056121D01*
X0149078Y0056113D01*
X0149140Y0056101D01*
X0149201Y0056086D01*
X0149261Y0056067D01*
X0149319Y0056044D01*
X0149377Y0056018D01*
X0149432Y0055988D01*
X0149486Y0055955D01*
X0149537Y0055919D01*
X0149586Y0055879D01*
X0149632Y0055837D01*
X0149676Y0055792D01*
X0149717Y0055744D01*
X0149755Y0055693D01*
X0149790Y0055641D01*
X0149821Y0055587D01*
X0149849Y0055530D01*
X0149874Y0055472D01*
X0149895Y0055413D01*
X0149912Y0055352D01*
X0149926Y0055291D01*
X0149935Y0055229D01*
X0149941Y0055166D01*
X0149943Y0055103D01*
X0151776Y0055358D02*
X0151776Y0053825D01*
X0151778Y0053773D01*
X0151783Y0053721D01*
X0151792Y0053669D01*
X0151804Y0053618D01*
X0151820Y0053568D01*
X0151840Y0053519D01*
X0151862Y0053472D01*
X0151888Y0053426D01*
X0151916Y0053383D01*
X0151948Y0053341D01*
X0151982Y0053301D01*
X0152019Y0053264D01*
X0152059Y0053230D01*
X0152101Y0053198D01*
X0152144Y0053170D01*
X0152190Y0053144D01*
X0152237Y0053121D01*
X0152286Y0053102D01*
X0152336Y0053086D01*
X0152387Y0053074D01*
X0152439Y0053065D01*
X0152491Y0053060D01*
X0152543Y0053058D01*
X0153820Y0053058D01*
X0153820Y0051525D02*
X0153820Y0056125D01*
X0152543Y0056125D01*
X0152488Y0056123D01*
X0152434Y0056117D01*
X0152380Y0056107D01*
X0152327Y0056094D01*
X0152275Y0056077D01*
X0152224Y0056056D01*
X0152175Y0056031D01*
X0152128Y0056003D01*
X0152083Y0055972D01*
X0152041Y0055938D01*
X0152001Y0055900D01*
X0151963Y0055860D01*
X0151929Y0055818D01*
X0151898Y0055773D01*
X0151870Y0055726D01*
X0151845Y0055677D01*
X0151824Y0055626D01*
X0151807Y0055574D01*
X0151794Y0055521D01*
X0151784Y0055467D01*
X0151778Y0055413D01*
X0151776Y0055358D01*
X0155849Y0055103D02*
X0155849Y0054081D01*
X0155851Y0054018D01*
X0155857Y0053955D01*
X0155866Y0053893D01*
X0155880Y0053832D01*
X0155897Y0053771D01*
X0155918Y0053712D01*
X0155943Y0053654D01*
X0155971Y0053597D01*
X0156002Y0053543D01*
X0156037Y0053491D01*
X0156075Y0053440D01*
X0156116Y0053392D01*
X0156160Y0053347D01*
X0156206Y0053305D01*
X0156255Y0053265D01*
X0156306Y0053229D01*
X0156360Y0053196D01*
X0156415Y0053166D01*
X0156473Y0053140D01*
X0156531Y0053117D01*
X0156591Y0053098D01*
X0156652Y0053083D01*
X0156714Y0053071D01*
X0156777Y0053063D01*
X0156840Y0053059D01*
X0156902Y0053059D01*
X0156965Y0053063D01*
X0157028Y0053071D01*
X0157090Y0053083D01*
X0157151Y0053098D01*
X0157211Y0053117D01*
X0157269Y0053140D01*
X0157327Y0053166D01*
X0157382Y0053196D01*
X0157436Y0053229D01*
X0157487Y0053265D01*
X0157536Y0053305D01*
X0157582Y0053347D01*
X0157626Y0053392D01*
X0157667Y0053440D01*
X0157705Y0053491D01*
X0157740Y0053543D01*
X0157771Y0053597D01*
X0157799Y0053654D01*
X0157824Y0053712D01*
X0157845Y0053771D01*
X0157862Y0053832D01*
X0157876Y0053893D01*
X0157885Y0053955D01*
X0157891Y0054018D01*
X0157893Y0054081D01*
X0157894Y0054081D02*
X0157894Y0055103D01*
X0157893Y0055103D02*
X0157891Y0055166D01*
X0157885Y0055229D01*
X0157876Y0055291D01*
X0157862Y0055352D01*
X0157845Y0055413D01*
X0157824Y0055472D01*
X0157799Y0055530D01*
X0157771Y0055587D01*
X0157740Y0055641D01*
X0157705Y0055693D01*
X0157667Y0055744D01*
X0157626Y0055792D01*
X0157582Y0055837D01*
X0157536Y0055879D01*
X0157487Y0055919D01*
X0157436Y0055955D01*
X0157382Y0055988D01*
X0157327Y0056018D01*
X0157269Y0056044D01*
X0157211Y0056067D01*
X0157151Y0056086D01*
X0157090Y0056101D01*
X0157028Y0056113D01*
X0156965Y0056121D01*
X0156902Y0056125D01*
X0156840Y0056125D01*
X0156777Y0056121D01*
X0156714Y0056113D01*
X0156652Y0056101D01*
X0156591Y0056086D01*
X0156531Y0056067D01*
X0156473Y0056044D01*
X0156415Y0056018D01*
X0156360Y0055988D01*
X0156306Y0055955D01*
X0156255Y0055919D01*
X0156206Y0055879D01*
X0156160Y0055837D01*
X0156116Y0055792D01*
X0156075Y0055744D01*
X0156037Y0055693D01*
X0156002Y0055641D01*
X0155971Y0055587D01*
X0155943Y0055530D01*
X0155918Y0055472D01*
X0155897Y0055413D01*
X0155880Y0055352D01*
X0155866Y0055291D01*
X0155857Y0055229D01*
X0155851Y0055166D01*
X0155849Y0055103D01*
X0152194Y0050158D02*
X0152194Y0045558D01*
X0150149Y0045558D02*
X0150149Y0047858D01*
X0150151Y0047913D01*
X0150157Y0047967D01*
X0150167Y0048021D01*
X0150180Y0048074D01*
X0150197Y0048126D01*
X0150218Y0048177D01*
X0150243Y0048226D01*
X0150271Y0048273D01*
X0150302Y0048318D01*
X0150336Y0048360D01*
X0150374Y0048400D01*
X0150414Y0048438D01*
X0150456Y0048472D01*
X0150501Y0048503D01*
X0150548Y0048531D01*
X0150597Y0048556D01*
X0150648Y0048577D01*
X0150700Y0048594D01*
X0150753Y0048607D01*
X0150807Y0048617D01*
X0150861Y0048623D01*
X0150916Y0048625D01*
X0152194Y0048625D01*
X0147911Y0048625D02*
X0146889Y0048625D01*
X0146837Y0048623D01*
X0146785Y0048618D01*
X0146733Y0048609D01*
X0146682Y0048597D01*
X0146632Y0048581D01*
X0146583Y0048562D01*
X0146536Y0048539D01*
X0146490Y0048513D01*
X0146447Y0048485D01*
X0146405Y0048453D01*
X0146365Y0048419D01*
X0146328Y0048382D01*
X0146294Y0048342D01*
X0146262Y0048300D01*
X0146234Y0048257D01*
X0146208Y0048211D01*
X0146186Y0048164D01*
X0146166Y0048115D01*
X0146150Y0048065D01*
X0146138Y0048014D01*
X0146129Y0047962D01*
X0146124Y0047910D01*
X0146122Y0047858D01*
X0146122Y0045558D01*
X0147272Y0045558D01*
X0147272Y0045559D02*
X0147330Y0045561D01*
X0147389Y0045567D01*
X0147446Y0045576D01*
X0147503Y0045589D01*
X0147559Y0045606D01*
X0147614Y0045627D01*
X0147667Y0045651D01*
X0147719Y0045679D01*
X0147769Y0045710D01*
X0147816Y0045744D01*
X0147861Y0045781D01*
X0147904Y0045821D01*
X0147944Y0045864D01*
X0147981Y0045909D01*
X0148015Y0045956D01*
X0148046Y0046006D01*
X0148074Y0046058D01*
X0148098Y0046111D01*
X0148119Y0046166D01*
X0148136Y0046222D01*
X0148149Y0046279D01*
X0148158Y0046336D01*
X0148164Y0046395D01*
X0148166Y0046453D01*
X0148164Y0046511D01*
X0148158Y0046570D01*
X0148149Y0046627D01*
X0148136Y0046684D01*
X0148119Y0046740D01*
X0148098Y0046795D01*
X0148074Y0046848D01*
X0148046Y0046900D01*
X0148015Y0046950D01*
X0147981Y0046997D01*
X0147944Y0047042D01*
X0147904Y0047085D01*
X0147861Y0047125D01*
X0147816Y0047162D01*
X0147769Y0047196D01*
X0147719Y0047227D01*
X0147667Y0047255D01*
X0147614Y0047279D01*
X0147559Y0047300D01*
X0147503Y0047317D01*
X0147446Y0047330D01*
X0147389Y0047339D01*
X0147330Y0047345D01*
X0147272Y0047347D01*
X0146122Y0047347D01*
X0143917Y0048625D02*
X0143917Y0045558D01*
X0142384Y0048114D02*
X0142384Y0048625D01*
X0143917Y0048625D01*
X0140967Y0047858D02*
X0140967Y0046325D01*
X0140965Y0046270D01*
X0140959Y0046216D01*
X0140949Y0046162D01*
X0140936Y0046109D01*
X0140919Y0046057D01*
X0140898Y0046006D01*
X0140873Y0045957D01*
X0140845Y0045910D01*
X0140814Y0045865D01*
X0140780Y0045823D01*
X0140742Y0045783D01*
X0140702Y0045745D01*
X0140660Y0045711D01*
X0140615Y0045680D01*
X0140568Y0045652D01*
X0140519Y0045627D01*
X0140468Y0045606D01*
X0140416Y0045589D01*
X0140363Y0045576D01*
X0140309Y0045566D01*
X0140255Y0045560D01*
X0140200Y0045558D01*
X0138922Y0045558D01*
X0138922Y0050158D01*
X0138922Y0048625D02*
X0140200Y0048625D01*
X0140255Y0048623D01*
X0140309Y0048617D01*
X0140363Y0048607D01*
X0140416Y0048594D01*
X0140468Y0048577D01*
X0140519Y0048556D01*
X0140568Y0048531D01*
X0140615Y0048503D01*
X0140660Y0048472D01*
X0140702Y0048438D01*
X0140742Y0048400D01*
X0140780Y0048360D01*
X0140814Y0048318D01*
X0140845Y0048273D01*
X0140873Y0048226D01*
X0140898Y0048177D01*
X0140919Y0048126D01*
X0140936Y0048074D01*
X0140949Y0048021D01*
X0140959Y0047967D01*
X0140965Y0047913D01*
X0140967Y0047858D01*
X0136955Y0048625D02*
X0136188Y0045558D01*
X0135421Y0047603D01*
X0134655Y0045558D01*
X0133888Y0048625D01*
X0131861Y0048625D02*
X0130839Y0048625D01*
X0130787Y0048623D01*
X0130735Y0048618D01*
X0130683Y0048609D01*
X0130632Y0048597D01*
X0130582Y0048581D01*
X0130533Y0048562D01*
X0130486Y0048539D01*
X0130440Y0048513D01*
X0130397Y0048485D01*
X0130355Y0048453D01*
X0130315Y0048419D01*
X0130278Y0048382D01*
X0130244Y0048342D01*
X0130212Y0048300D01*
X0130184Y0048257D01*
X0130158Y0048211D01*
X0130136Y0048164D01*
X0130116Y0048115D01*
X0130100Y0048065D01*
X0130088Y0048014D01*
X0130079Y0047962D01*
X0130074Y0047910D01*
X0130072Y0047858D01*
X0130072Y0045558D01*
X0131222Y0045558D01*
X0131222Y0045559D02*
X0131280Y0045561D01*
X0131339Y0045567D01*
X0131396Y0045576D01*
X0131453Y0045589D01*
X0131509Y0045606D01*
X0131564Y0045627D01*
X0131617Y0045651D01*
X0131669Y0045679D01*
X0131719Y0045710D01*
X0131766Y0045744D01*
X0131811Y0045781D01*
X0131854Y0045821D01*
X0131894Y0045864D01*
X0131931Y0045909D01*
X0131965Y0045956D01*
X0131996Y0046006D01*
X0132024Y0046058D01*
X0132048Y0046111D01*
X0132069Y0046166D01*
X0132086Y0046222D01*
X0132099Y0046279D01*
X0132108Y0046336D01*
X0132114Y0046395D01*
X0132116Y0046453D01*
X0132114Y0046511D01*
X0132108Y0046570D01*
X0132099Y0046627D01*
X0132086Y0046684D01*
X0132069Y0046740D01*
X0132048Y0046795D01*
X0132024Y0046848D01*
X0131996Y0046900D01*
X0131965Y0046950D01*
X0131931Y0046997D01*
X0131894Y0047042D01*
X0131854Y0047085D01*
X0131811Y0047125D01*
X0131766Y0047162D01*
X0131719Y0047196D01*
X0131669Y0047227D01*
X0131617Y0047255D01*
X0131564Y0047279D01*
X0131509Y0047300D01*
X0131453Y0047317D01*
X0131396Y0047330D01*
X0131339Y0047339D01*
X0131280Y0047345D01*
X0131222Y0047347D01*
X0130072Y0047347D01*
X0127868Y0048625D02*
X0127868Y0045558D01*
X0126334Y0048114D02*
X0126334Y0048625D01*
X0127868Y0048625D01*
X0124894Y0047603D02*
X0124894Y0046325D01*
X0124894Y0047092D02*
X0122849Y0047092D01*
X0122849Y0047603D01*
X0122851Y0047666D01*
X0122857Y0047729D01*
X0122866Y0047791D01*
X0122880Y0047852D01*
X0122897Y0047913D01*
X0122918Y0047972D01*
X0122943Y0048030D01*
X0122971Y0048087D01*
X0123002Y0048141D01*
X0123037Y0048193D01*
X0123075Y0048244D01*
X0123116Y0048292D01*
X0123160Y0048337D01*
X0123206Y0048379D01*
X0123255Y0048419D01*
X0123306Y0048455D01*
X0123360Y0048488D01*
X0123415Y0048518D01*
X0123473Y0048544D01*
X0123531Y0048567D01*
X0123591Y0048586D01*
X0123652Y0048601D01*
X0123714Y0048613D01*
X0123777Y0048621D01*
X0123840Y0048625D01*
X0123902Y0048625D01*
X0123965Y0048621D01*
X0124028Y0048613D01*
X0124090Y0048601D01*
X0124151Y0048586D01*
X0124211Y0048567D01*
X0124269Y0048544D01*
X0124327Y0048518D01*
X0124382Y0048488D01*
X0124436Y0048455D01*
X0124487Y0048419D01*
X0124536Y0048379D01*
X0124582Y0048337D01*
X0124626Y0048292D01*
X0124667Y0048244D01*
X0124705Y0048193D01*
X0124740Y0048141D01*
X0124771Y0048087D01*
X0124799Y0048030D01*
X0124824Y0047972D01*
X0124845Y0047913D01*
X0124862Y0047852D01*
X0124876Y0047791D01*
X0124885Y0047729D01*
X0124891Y0047666D01*
X0124893Y0047603D01*
X0124894Y0046325D02*
X0124892Y0046270D01*
X0124886Y0046216D01*
X0124876Y0046162D01*
X0124863Y0046109D01*
X0124846Y0046057D01*
X0124825Y0046006D01*
X0124800Y0045957D01*
X0124772Y0045910D01*
X0124741Y0045865D01*
X0124707Y0045823D01*
X0124669Y0045783D01*
X0124629Y0045745D01*
X0124587Y0045711D01*
X0124542Y0045680D01*
X0124495Y0045652D01*
X0124446Y0045627D01*
X0124395Y0045606D01*
X0124343Y0045589D01*
X0124290Y0045576D01*
X0124236Y0045566D01*
X0124182Y0045560D01*
X0124127Y0045558D01*
X0122849Y0045558D01*
X0122500Y0053058D02*
X0123522Y0053058D01*
X0123577Y0053060D01*
X0123631Y0053066D01*
X0123685Y0053076D01*
X0123738Y0053089D01*
X0123790Y0053106D01*
X0123841Y0053127D01*
X0123890Y0053152D01*
X0123937Y0053180D01*
X0123982Y0053211D01*
X0124024Y0053245D01*
X0124064Y0053283D01*
X0124102Y0053323D01*
X0124136Y0053365D01*
X0124167Y0053410D01*
X0124195Y0053457D01*
X0124220Y0053506D01*
X0124241Y0053557D01*
X0124258Y0053609D01*
X0124271Y0053662D01*
X0124281Y0053716D01*
X0124287Y0053770D01*
X0124289Y0053825D01*
X0124288Y0053825D02*
X0124288Y0055358D01*
X0124289Y0055358D02*
X0124287Y0055413D01*
X0124281Y0055467D01*
X0124271Y0055521D01*
X0124258Y0055574D01*
X0124241Y0055626D01*
X0124220Y0055677D01*
X0124195Y0055726D01*
X0124167Y0055773D01*
X0124136Y0055818D01*
X0124102Y0055860D01*
X0124064Y0055900D01*
X0124024Y0055938D01*
X0123982Y0055972D01*
X0123937Y0056003D01*
X0123890Y0056031D01*
X0123841Y0056056D01*
X0123790Y0056077D01*
X0123738Y0056094D01*
X0123685Y0056107D01*
X0123631Y0056117D01*
X0123577Y0056123D01*
X0123522Y0056125D01*
X0122500Y0056125D01*
X0120844Y0055103D02*
X0120844Y0053825D01*
X0120844Y0054592D02*
X0118799Y0054592D01*
X0118799Y0055103D01*
X0118801Y0055166D01*
X0118807Y0055229D01*
X0118816Y0055291D01*
X0118830Y0055352D01*
X0118847Y0055413D01*
X0118868Y0055472D01*
X0118893Y0055530D01*
X0118921Y0055587D01*
X0118952Y0055641D01*
X0118987Y0055693D01*
X0119025Y0055744D01*
X0119066Y0055792D01*
X0119110Y0055837D01*
X0119156Y0055879D01*
X0119205Y0055919D01*
X0119256Y0055955D01*
X0119310Y0055988D01*
X0119365Y0056018D01*
X0119423Y0056044D01*
X0119481Y0056067D01*
X0119541Y0056086D01*
X0119602Y0056101D01*
X0119664Y0056113D01*
X0119727Y0056121D01*
X0119790Y0056125D01*
X0119852Y0056125D01*
X0119915Y0056121D01*
X0119978Y0056113D01*
X0120040Y0056101D01*
X0120101Y0056086D01*
X0120161Y0056067D01*
X0120219Y0056044D01*
X0120277Y0056018D01*
X0120332Y0055988D01*
X0120386Y0055955D01*
X0120437Y0055919D01*
X0120486Y0055879D01*
X0120532Y0055837D01*
X0120576Y0055792D01*
X0120617Y0055744D01*
X0120655Y0055693D01*
X0120690Y0055641D01*
X0120721Y0055587D01*
X0120749Y0055530D01*
X0120774Y0055472D01*
X0120795Y0055413D01*
X0120812Y0055352D01*
X0120826Y0055291D01*
X0120835Y0055229D01*
X0120841Y0055166D01*
X0120843Y0055103D01*
X0120844Y0053825D02*
X0120842Y0053770D01*
X0120836Y0053716D01*
X0120826Y0053662D01*
X0120813Y0053609D01*
X0120796Y0053557D01*
X0120775Y0053506D01*
X0120750Y0053457D01*
X0120722Y0053410D01*
X0120691Y0053365D01*
X0120657Y0053323D01*
X0120619Y0053283D01*
X0120579Y0053245D01*
X0120537Y0053211D01*
X0120492Y0053180D01*
X0120445Y0053152D01*
X0120396Y0053127D01*
X0120345Y0053106D01*
X0120293Y0053089D01*
X0120240Y0053076D01*
X0120186Y0053066D01*
X0120132Y0053060D01*
X0120077Y0053058D01*
X0118799Y0053058D01*
X0125734Y0055614D02*
X0125734Y0056125D01*
X0127267Y0056125D01*
X0127267Y0053058D01*
X0129449Y0053058D02*
X0129449Y0056125D01*
X0131494Y0056125D02*
X0131494Y0053825D01*
X0131492Y0053770D01*
X0131486Y0053716D01*
X0131476Y0053662D01*
X0131463Y0053609D01*
X0131446Y0053557D01*
X0131425Y0053506D01*
X0131400Y0053457D01*
X0131372Y0053410D01*
X0131341Y0053365D01*
X0131307Y0053323D01*
X0131269Y0053283D01*
X0131229Y0053245D01*
X0131187Y0053211D01*
X0131142Y0053180D01*
X0131095Y0053152D01*
X0131046Y0053127D01*
X0130995Y0053106D01*
X0130943Y0053089D01*
X0130890Y0053076D01*
X0130836Y0053066D01*
X0130782Y0053060D01*
X0130727Y0053058D01*
X0129449Y0053058D01*
M02*
