G75*
%MOIN*%
%OFA0B0*%
%FSLAX25Y25*%
%IPPOS*%
%LPD*%
%AMOC8*
5,1,8,0,0,1.08239X$1,22.5*
%
%ADD10R,0.03549X0.03074*%
%ADD11R,0.11805X0.01972*%
%ADD12R,0.07872X0.05913*%
%ADD13R,0.05925X0.08664*%
%ADD14R,0.05925X0.08660*%
%ADD15R,0.08664X0.05925*%
%ADD16R,0.08660X0.05925*%
%ADD17R,0.03874X0.04350*%
%ADD18R,0.04071X0.04350*%
%ADD19R,0.09449X0.07874*%
%ADD20R,0.09087X0.01969*%
%ADD21R,0.06102X0.00984*%
%ADD22R,0.00984X0.06102*%
%ADD23C,0.05200*%
%ADD24R,0.03300X0.06300*%
%ADD25R,0.12200X0.06300*%
%ADD26C,0.06600*%
%ADD27R,0.04016X0.05512*%
%ADD28R,0.05512X0.04016*%
%ADD29R,0.02756X0.02362*%
%ADD30R,0.03346X0.07087*%
%ADD31R,0.02362X0.06299*%
%ADD32C,0.05906*%
%ADD33C,0.01600*%
%ADD34C,0.02400*%
%ADD35C,0.02387*%
%ADD36C,0.00787*%
%ADD37C,0.03200*%
%ADD38C,0.01000*%
%ADD39C,0.00800*%
%ADD40C,0.01200*%
D10*
X0072014Y0059511D03*
X0063356Y0063242D03*
X0072016Y0066976D03*
X0201194Y0105832D03*
X0209854Y0109566D03*
X0201196Y0113296D03*
D11*
X0242805Y0115225D03*
X0242790Y0109362D03*
X0242782Y0103387D03*
X0242814Y0121201D03*
X0242801Y0127104D03*
X0242809Y0133080D03*
X0242805Y0079895D03*
X0242796Y0073920D03*
X0242809Y0068016D03*
X0242801Y0062041D03*
X0242786Y0056178D03*
X0242777Y0050203D03*
X0242772Y0044379D03*
D12*
X0256557Y0036698D03*
X0256581Y0087587D03*
X0256566Y0095706D03*
X0256585Y0140772D03*
D13*
X0171085Y0129615D03*
D14*
X0161222Y0129617D03*
D15*
X0114444Y0136004D03*
D16*
X0114446Y0145867D03*
D17*
X0170058Y0114175D03*
D18*
X0170093Y0099616D03*
D19*
X0042358Y0106785D03*
X0020704Y0106785D03*
X0020704Y0072139D03*
X0042358Y0072139D03*
D20*
X0044578Y0083163D03*
X0044578Y0086312D03*
X0044578Y0089462D03*
X0044578Y0092611D03*
X0044578Y0095761D03*
D21*
X0112843Y0095794D03*
X0112843Y0093825D03*
X0112843Y0091857D03*
X0112843Y0089888D03*
X0112843Y0087920D03*
X0112843Y0085951D03*
X0112843Y0083983D03*
X0112843Y0082014D03*
X0112843Y0080046D03*
X0112843Y0078077D03*
X0112843Y0076109D03*
X0112843Y0074140D03*
X0112843Y0072172D03*
X0112843Y0070203D03*
X0112843Y0068235D03*
X0112843Y0066266D03*
X0157724Y0066266D03*
X0157724Y0068235D03*
X0157724Y0070203D03*
X0157724Y0072172D03*
X0157724Y0074140D03*
X0157724Y0076109D03*
X0157724Y0078077D03*
X0157724Y0080046D03*
X0157724Y0082014D03*
X0157724Y0083983D03*
X0157724Y0085951D03*
X0157724Y0087920D03*
X0157724Y0089888D03*
X0157724Y0091857D03*
X0157724Y0093825D03*
X0157724Y0095794D03*
D22*
X0150047Y0103471D03*
X0148079Y0103471D03*
X0146110Y0103471D03*
X0144142Y0103471D03*
X0142173Y0103471D03*
X0140205Y0103471D03*
X0138236Y0103471D03*
X0136268Y0103471D03*
X0134299Y0103471D03*
X0132331Y0103471D03*
X0130362Y0103471D03*
X0128394Y0103471D03*
X0126425Y0103471D03*
X0124457Y0103471D03*
X0122488Y0103471D03*
X0120520Y0103471D03*
X0120520Y0058589D03*
X0122488Y0058589D03*
X0124457Y0058589D03*
X0126425Y0058589D03*
X0128394Y0058589D03*
X0130362Y0058589D03*
X0132331Y0058589D03*
X0134299Y0058589D03*
X0136268Y0058589D03*
X0138236Y0058589D03*
X0140205Y0058589D03*
X0142173Y0058589D03*
X0144142Y0058589D03*
X0146110Y0058589D03*
X0148079Y0058589D03*
X0150047Y0058589D03*
D23*
X0095462Y0112001D03*
X0095462Y0131001D03*
D24*
X0128101Y0150862D03*
X0137201Y0150862D03*
X0146301Y0150862D03*
D25*
X0137201Y0125662D03*
D26*
X0190216Y0126506D03*
X0215806Y0126506D03*
X0215806Y0144223D03*
X0190216Y0144223D03*
X0080189Y0141717D03*
X0042189Y0141717D03*
D27*
X0060286Y0153509D03*
X0067688Y0153509D03*
X0039759Y0127892D03*
X0032357Y0127892D03*
X0030287Y0118038D03*
X0037689Y0118038D03*
X0055872Y0113612D03*
X0063273Y0113612D03*
X0073207Y0113612D03*
X0080609Y0113612D03*
X0080609Y0123192D03*
X0073207Y0123192D03*
X0063273Y0123192D03*
X0055872Y0123192D03*
X0055872Y0104019D03*
X0063273Y0104019D03*
X0063273Y0094439D03*
X0055872Y0094439D03*
X0055872Y0084979D03*
X0063273Y0084979D03*
X0073207Y0084979D03*
X0080609Y0084979D03*
X0091261Y0087780D03*
X0098662Y0087780D03*
X0080609Y0094439D03*
X0073207Y0094439D03*
X0063273Y0075399D03*
X0055872Y0075399D03*
X0037689Y0060820D03*
X0030287Y0060820D03*
X0032033Y0050894D03*
X0039434Y0050894D03*
X0060286Y0026177D03*
X0067688Y0026177D03*
X0134508Y0047194D03*
X0141910Y0047194D03*
X0183583Y0050347D03*
X0190984Y0050347D03*
X0190984Y0059927D03*
X0183583Y0059927D03*
X0183583Y0069387D03*
X0190984Y0069387D03*
X0190984Y0078967D03*
X0183583Y0078967D03*
X0183583Y0088559D03*
X0190984Y0088559D03*
X0155149Y0114380D03*
X0147748Y0114380D03*
X0116817Y0114807D03*
X0109415Y0114807D03*
X0109415Y0124387D03*
X0116817Y0124387D03*
X0205946Y0153509D03*
X0213348Y0153509D03*
X0213348Y0026177D03*
X0205946Y0026177D03*
D28*
X0088228Y0058997D03*
X0079752Y0058997D03*
X0079752Y0066398D03*
X0088228Y0066398D03*
X0181116Y0105562D03*
X0181116Y0112964D03*
X0192217Y0112964D03*
X0192217Y0105562D03*
X0169365Y0142311D03*
X0159905Y0142311D03*
X0159905Y0149713D03*
X0169365Y0149713D03*
D29*
X0201584Y0113304D03*
X0209458Y0109563D03*
X0201584Y0105823D03*
X0071626Y0066985D03*
X0063752Y0063244D03*
X0071626Y0059504D03*
D30*
X0083640Y0022474D03*
X0191452Y0022474D03*
D31*
X0184788Y0016015D03*
X0180851Y0016015D03*
X0176914Y0016015D03*
X0172977Y0016015D03*
X0169040Y0016015D03*
X0165103Y0016015D03*
X0161166Y0016015D03*
X0157229Y0016015D03*
X0153292Y0016015D03*
X0149355Y0016015D03*
X0145418Y0016015D03*
X0141481Y0016015D03*
X0137544Y0016015D03*
X0133607Y0016015D03*
X0129670Y0016015D03*
X0125733Y0016015D03*
X0121796Y0016015D03*
X0117859Y0016015D03*
X0113922Y0016015D03*
X0109985Y0016015D03*
X0106048Y0016015D03*
X0102111Y0016015D03*
X0098174Y0016015D03*
X0094237Y0016015D03*
X0090300Y0016015D03*
X0090301Y0038453D03*
X0094238Y0038453D03*
X0098175Y0038453D03*
X0102112Y0038453D03*
X0106049Y0038453D03*
X0109986Y0038453D03*
X0113923Y0038453D03*
X0117860Y0038453D03*
X0121797Y0038453D03*
X0125734Y0038453D03*
X0129671Y0038453D03*
X0133608Y0038453D03*
X0137545Y0038453D03*
X0141482Y0038453D03*
X0145419Y0038453D03*
X0149356Y0038453D03*
X0153293Y0038453D03*
X0157230Y0038453D03*
X0161168Y0038453D03*
X0165105Y0038453D03*
X0169042Y0038453D03*
X0172979Y0038453D03*
X0176916Y0038453D03*
X0180853Y0038453D03*
X0184790Y0038453D03*
D32*
X0216314Y0039899D03*
D33*
X0205703Y0031852D02*
X0205703Y0026037D01*
X0247481Y0056236D02*
X0250720Y0056236D01*
X0168056Y0123258D02*
X0170383Y0126316D01*
X0170383Y0142691D01*
X0169675Y0150106D02*
X0146053Y0150106D01*
X0116755Y0136201D02*
X0107218Y0136201D01*
X0116755Y0136201D02*
X0116755Y0124706D01*
X0116525Y0124122D02*
X0122092Y0124122D01*
X0121249Y0114673D02*
X0114163Y0114673D01*
X0080501Y0100500D02*
X0080501Y0085146D01*
X0081683Y0086327D02*
X0082864Y0087508D01*
X0090541Y0087508D01*
X0085896Y0083485D02*
X0087838Y0081543D01*
X0097882Y0081543D01*
X0098978Y0082836D01*
X0098978Y0085709D01*
X0079995Y0067277D02*
X0067240Y0067285D01*
X0050186Y0072154D02*
X0040934Y0072154D01*
X0040934Y0069792D01*
X0022037Y0069792D01*
X0049005Y0095776D02*
X0054517Y0101681D01*
X0055698Y0102862D01*
X0043650Y0108768D02*
X0043650Y0112307D01*
X0043650Y0108768D02*
X0022037Y0108768D01*
X0030084Y0111346D02*
X0030084Y0117180D01*
X0032386Y0127946D02*
X0027382Y0127986D01*
X0063276Y0130089D02*
X0063276Y0123747D01*
X0063335Y0113755D01*
X0063575Y0113636D02*
X0072903Y0113630D01*
X0072904Y0108730D01*
X0072234Y0122941D02*
X0068690Y0122941D01*
X0130561Y0048853D02*
X0133381Y0048853D01*
X0133398Y0048869D01*
X0133982Y0046399D02*
X0133966Y0046383D01*
X0133966Y0046349D01*
X0143195Y0045467D02*
X0146015Y0045467D01*
X0094241Y0036463D02*
X0094241Y0033805D01*
X0090254Y0033805D01*
X0090254Y0036463D01*
X0089859Y0038663D02*
X0067975Y0038663D01*
X0090347Y0020595D02*
X0090347Y0017937D01*
X0090347Y0020595D02*
X0094333Y0020595D01*
X0094333Y0017937D01*
X0247530Y0127146D02*
X0250769Y0127146D01*
X0239321Y0133111D02*
X0236082Y0133111D01*
X0215738Y0144201D02*
X0211013Y0139477D01*
X0205990Y0148439D02*
X0205990Y0151450D01*
X0206024Y0151485D01*
D34*
X0160226Y0141839D02*
X0160226Y0131209D01*
X0190845Y0104732D02*
X0191784Y0105671D01*
X0200950Y0105671D01*
X0201455Y0105743D02*
X0205353Y0105743D01*
X0190845Y0104732D02*
X0190845Y0100688D01*
X0183555Y0093398D01*
X0183555Y0088702D01*
X0183623Y0088571D02*
X0177708Y0088571D01*
X0072149Y0026167D02*
X0072149Y0026107D01*
X0068322Y0026107D01*
X0055698Y0102862D02*
X0055698Y0141839D01*
X0066919Y0141839D01*
X0068100Y0143020D01*
X0068100Y0152469D01*
X0055698Y0141839D02*
X0042116Y0141839D01*
D35*
X0053846Y0146587D03*
X0056478Y0153491D03*
X0063276Y0130268D03*
X0068802Y0122870D03*
X0068199Y0103739D03*
X0085896Y0083485D03*
X0101049Y0094800D03*
X0104423Y0093510D03*
X0106841Y0089448D03*
X0119343Y0086818D03*
X0119396Y0091855D03*
X0128600Y0091577D03*
X0131763Y0092462D03*
X0136255Y0092652D03*
X0139545Y0092652D03*
X0142646Y0092652D03*
X0145683Y0090627D03*
X0148678Y0089617D03*
X0146337Y0083646D03*
X0151485Y0082695D03*
X0147590Y0078397D03*
X0147099Y0074619D03*
X0150777Y0074516D03*
X0151834Y0070391D03*
X0149592Y0068371D03*
X0160361Y0062998D03*
X0157809Y0060730D03*
X0160559Y0058198D03*
X0161410Y0052842D03*
X0146022Y0045393D03*
X0130578Y0048788D03*
X0127083Y0047034D03*
X0124903Y0044009D03*
X0110333Y0047235D03*
X0095978Y0046610D03*
X0100599Y0032126D03*
X0104863Y0028580D03*
X0108921Y0030669D03*
X0113691Y0024990D03*
X0109743Y0022549D03*
X0105868Y0021902D03*
X0101921Y0024559D03*
X0098117Y0021974D03*
X0090099Y0021081D03*
X0072149Y0026227D03*
X0056475Y0026192D03*
X0038359Y0026167D03*
X0068047Y0038735D03*
X0108852Y0063590D03*
X0112817Y0063590D03*
X0119467Y0064376D03*
X0121297Y0067927D03*
X0107132Y0073264D03*
X0105086Y0081725D03*
X0118460Y0080033D03*
X0134104Y0094993D03*
X0132498Y0111640D03*
X0135401Y0113803D03*
X0121531Y0114525D03*
X0122137Y0124281D03*
X0160272Y0137314D03*
X0168086Y0123318D03*
X0194177Y0118553D03*
X0199666Y0121147D03*
X0205281Y0105743D03*
X0177690Y0088544D03*
X0167906Y0082529D03*
X0163681Y0076237D03*
X0179083Y0064397D03*
X0178365Y0055962D03*
X0184919Y0043294D03*
X0187888Y0033057D03*
X0180952Y0030191D03*
X0168967Y0028916D03*
X0164906Y0028916D03*
X0161061Y0028916D03*
X0157169Y0028916D03*
X0145465Y0028916D03*
X0145487Y0033223D03*
X0141542Y0033265D03*
X0137597Y0033265D03*
X0137447Y0021024D03*
X0141311Y0021024D03*
X0133526Y0021024D03*
X0129575Y0021024D03*
X0125740Y0021024D03*
X0121732Y0021024D03*
X0117810Y0021024D03*
X0067043Y0067371D03*
X0027321Y0127986D03*
X0162892Y0097320D03*
X0163114Y0093820D03*
X0163114Y0089844D03*
X0195936Y0079101D03*
X0216700Y0074389D03*
X0219751Y0071218D03*
X0227406Y0073970D03*
X0230891Y0068149D03*
X0227406Y0061962D03*
X0223851Y0058198D03*
X0233454Y0030815D03*
X0217894Y0026216D03*
X0205620Y0031894D03*
X0251427Y0127290D03*
X0217925Y0153636D03*
X0205954Y0148551D03*
X0233883Y0153983D03*
D36*
X0238172Y0154049D02*
X0220113Y0154049D01*
X0220113Y0154542D02*
X0218831Y0155823D01*
X0217019Y0155823D01*
X0216464Y0155268D01*
X0216349Y0155268D01*
X0216349Y0156676D01*
X0215767Y0157258D01*
X0210928Y0157258D01*
X0210346Y0156676D01*
X0210346Y0150341D01*
X0210928Y0149759D01*
X0215767Y0149759D01*
X0216349Y0150341D01*
X0216349Y0152081D01*
X0216387Y0152081D01*
X0217019Y0151449D01*
X0218831Y0151449D01*
X0220113Y0152730D01*
X0220113Y0154542D01*
X0219819Y0154835D02*
X0238172Y0154835D01*
X0238172Y0155621D02*
X0219034Y0155621D01*
X0216817Y0155621D02*
X0216349Y0155621D01*
X0216349Y0156407D02*
X0238172Y0156407D01*
X0238172Y0157193D02*
X0215833Y0157193D01*
X0210863Y0157193D02*
X0208431Y0157193D01*
X0208366Y0157258D02*
X0208948Y0156676D01*
X0208948Y0150341D01*
X0208366Y0149759D01*
X0207839Y0149759D01*
X0208141Y0149457D01*
X0208141Y0147645D01*
X0206860Y0146364D01*
X0205048Y0146364D01*
X0203766Y0147645D01*
X0203766Y0149457D01*
X0204068Y0149759D01*
X0203527Y0149759D01*
X0202945Y0150341D01*
X0202945Y0156676D01*
X0203527Y0157258D01*
X0208366Y0157258D01*
X0208948Y0156407D02*
X0210346Y0156407D01*
X0210346Y0155621D02*
X0208948Y0155621D01*
X0208948Y0154835D02*
X0210346Y0154835D01*
X0210346Y0154049D02*
X0208948Y0154049D01*
X0208948Y0153263D02*
X0210346Y0153263D01*
X0210346Y0152478D02*
X0208948Y0152478D01*
X0208948Y0151692D02*
X0210346Y0151692D01*
X0210346Y0150906D02*
X0208948Y0150906D01*
X0208726Y0150120D02*
X0210568Y0150120D01*
X0208141Y0149334D02*
X0238172Y0149334D01*
X0238172Y0148682D02*
X0238169Y0148679D01*
X0238160Y0147279D01*
X0238172Y0147267D01*
X0238172Y0147256D01*
X0239035Y0146393D01*
X0239143Y0146284D01*
X0239145Y0146284D01*
X0239161Y0146267D01*
X0240561Y0146267D01*
X0240568Y0146275D01*
X0259268Y0146157D01*
X0259267Y0144722D01*
X0252238Y0144722D01*
X0251656Y0144140D01*
X0251656Y0137404D01*
X0252238Y0136821D01*
X0259261Y0136821D01*
X0259233Y0099656D01*
X0252218Y0099656D01*
X0251922Y0099360D01*
X0251922Y0109421D01*
X0251047Y0110296D01*
X0251047Y0110296D01*
X0250438Y0110905D01*
X0249542Y0110905D01*
X0249105Y0111342D01*
X0236476Y0111342D01*
X0235894Y0110760D01*
X0235894Y0107965D01*
X0236476Y0107383D01*
X0248934Y0107383D01*
X0248934Y0105367D01*
X0236467Y0105367D01*
X0235954Y0104854D01*
X0235658Y0104854D01*
X0235147Y0105365D01*
X0235147Y0109697D01*
X0234272Y0110572D01*
X0231039Y0113805D01*
X0203965Y0113805D01*
X0203965Y0115245D01*
X0203383Y0115827D01*
X0199010Y0115827D01*
X0198428Y0115245D01*
X0198428Y0113805D01*
X0195967Y0113805D01*
X0195967Y0115383D01*
X0195385Y0115965D01*
X0189050Y0115965D01*
X0188468Y0115383D01*
X0188468Y0113805D01*
X0184866Y0113805D01*
X0184866Y0115383D01*
X0184284Y0115965D01*
X0184209Y0115965D01*
X0184209Y0118827D01*
X0188112Y0122730D01*
X0189362Y0122212D01*
X0191070Y0122212D01*
X0192648Y0122866D01*
X0193856Y0124074D01*
X0194510Y0125652D01*
X0194510Y0127360D01*
X0193856Y0128938D01*
X0192648Y0130146D01*
X0191070Y0130800D01*
X0189362Y0130800D01*
X0187784Y0130146D01*
X0186576Y0128938D01*
X0185922Y0127360D01*
X0185922Y0125652D01*
X0186182Y0125025D01*
X0182096Y0120940D01*
X0181221Y0120065D01*
X0181221Y0115965D01*
X0177949Y0115965D01*
X0177366Y0115383D01*
X0177366Y0110544D01*
X0177949Y0109962D01*
X0184284Y0109962D01*
X0184866Y0110544D01*
X0184866Y0110818D01*
X0188468Y0110818D01*
X0188468Y0110544D01*
X0189050Y0109962D01*
X0195385Y0109962D01*
X0195967Y0110544D01*
X0195967Y0110818D01*
X0198959Y0110818D01*
X0199010Y0110766D01*
X0203383Y0110766D01*
X0203434Y0110818D01*
X0207086Y0110818D01*
X0207086Y0107617D01*
X0207668Y0107035D01*
X0212040Y0107035D01*
X0212622Y0107617D01*
X0212622Y0110818D01*
X0229802Y0110818D01*
X0232160Y0108460D01*
X0232160Y0104127D01*
X0233546Y0102741D01*
X0234421Y0101866D01*
X0236008Y0101866D01*
X0236467Y0101407D01*
X0248934Y0101407D01*
X0248934Y0087786D01*
X0246364Y0085216D01*
X0193809Y0085216D01*
X0193986Y0085392D01*
X0193986Y0091727D01*
X0193404Y0092309D01*
X0188565Y0092309D01*
X0187983Y0091727D01*
X0187983Y0085392D01*
X0188159Y0085216D01*
X0187424Y0085216D01*
X0184925Y0082717D01*
X0181163Y0082717D01*
X0180581Y0082134D01*
X0180581Y0079790D01*
X0166684Y0079790D01*
X0163025Y0083449D01*
X0161769Y0083449D01*
X0161769Y0084574D01*
X0175847Y0084574D01*
X0177629Y0086356D01*
X0178596Y0086356D01*
X0178618Y0086378D01*
X0180581Y0086378D01*
X0180581Y0085392D01*
X0181163Y0084810D01*
X0186002Y0084810D01*
X0186584Y0085392D01*
X0186584Y0091727D01*
X0186002Y0092309D01*
X0185748Y0092309D01*
X0185748Y0092490D01*
X0191754Y0098495D01*
X0193039Y0099780D01*
X0193039Y0102561D01*
X0195385Y0102561D01*
X0195967Y0103143D01*
X0195967Y0103477D01*
X0198832Y0103477D01*
X0199008Y0103301D01*
X0203380Y0103301D01*
X0203629Y0103550D01*
X0206262Y0103550D01*
X0207547Y0104835D01*
X0207547Y0106652D01*
X0206262Y0107937D01*
X0203806Y0107937D01*
X0203380Y0108363D01*
X0199008Y0108363D01*
X0198510Y0107865D01*
X0195967Y0107865D01*
X0195967Y0107982D01*
X0195385Y0108564D01*
X0189050Y0108564D01*
X0188468Y0107982D01*
X0188468Y0103143D01*
X0188651Y0102959D01*
X0188651Y0101597D01*
X0181361Y0094307D01*
X0181361Y0092309D01*
X0181163Y0092309D01*
X0180581Y0091727D01*
X0180581Y0090765D01*
X0176799Y0090765D01*
X0175514Y0089480D01*
X0175514Y0089461D01*
X0175503Y0089450D01*
X0175503Y0088154D01*
X0174697Y0087348D01*
X0161769Y0087348D01*
X0161769Y0088095D01*
X0162208Y0087657D01*
X0164020Y0087657D01*
X0165301Y0088938D01*
X0165301Y0090750D01*
X0164219Y0091832D01*
X0165301Y0092914D01*
X0165301Y0094726D01*
X0164346Y0095681D01*
X0165079Y0096414D01*
X0165079Y0098196D01*
X0167064Y0098196D01*
X0167064Y0097029D01*
X0167646Y0096447D01*
X0172540Y0096447D01*
X0173122Y0097029D01*
X0173122Y0102203D01*
X0172540Y0102785D01*
X0167646Y0102785D01*
X0167064Y0102203D01*
X0167064Y0100971D01*
X0151533Y0100971D01*
X0151533Y0106934D01*
X0150951Y0107516D01*
X0149144Y0107516D01*
X0149063Y0107435D01*
X0148983Y0107516D01*
X0147512Y0107516D01*
X0147531Y0110631D01*
X0150167Y0110631D01*
X0150749Y0111213D01*
X0150749Y0117548D01*
X0150221Y0118076D01*
X0150216Y0122730D01*
X0159105Y0122730D01*
X0159363Y0122837D01*
X0167127Y0113701D01*
X0167127Y0111588D01*
X0167709Y0111006D01*
X0172406Y0111006D01*
X0172988Y0111588D01*
X0172988Y0116762D01*
X0172406Y0117344D01*
X0170838Y0117344D01*
X0164778Y0124475D01*
X0165178Y0124875D01*
X0165178Y0134358D01*
X0164596Y0134940D01*
X0162420Y0134940D01*
X0162420Y0136368D01*
X0162459Y0136408D01*
X0162459Y0138220D01*
X0162420Y0138260D01*
X0162420Y0139310D01*
X0163072Y0139310D01*
X0163655Y0139892D01*
X0163655Y0144731D01*
X0163072Y0145313D01*
X0156737Y0145313D01*
X0156155Y0144731D01*
X0156155Y0139892D01*
X0156737Y0139310D01*
X0158032Y0139310D01*
X0158032Y0134940D01*
X0157848Y0134940D01*
X0157265Y0134358D01*
X0157265Y0127917D01*
X0144294Y0127917D01*
X0144294Y0129223D01*
X0143712Y0129806D01*
X0139868Y0129806D01*
X0139868Y0150696D01*
X0139844Y0150753D01*
X0139844Y0154423D01*
X0139262Y0155006D01*
X0135139Y0155006D01*
X0134557Y0154423D01*
X0134557Y0147300D01*
X0134680Y0147177D01*
X0134680Y0129806D01*
X0130689Y0129806D01*
X0130107Y0129223D01*
X0130107Y0122100D01*
X0130689Y0121518D01*
X0143712Y0121518D01*
X0144294Y0122100D01*
X0144294Y0122730D01*
X0145029Y0122730D01*
X0145034Y0117836D01*
X0144746Y0117548D01*
X0144746Y0111213D01*
X0144759Y0111200D01*
X0144737Y0107516D01*
X0143238Y0107516D01*
X0143158Y0107435D01*
X0143077Y0107516D01*
X0141270Y0107516D01*
X0141189Y0107435D01*
X0141109Y0107516D01*
X0139301Y0107516D01*
X0139221Y0107435D01*
X0139140Y0107516D01*
X0137333Y0107516D01*
X0137252Y0107435D01*
X0137171Y0107516D01*
X0135762Y0107516D01*
X0135994Y0107748D01*
X0136807Y0108561D01*
X0136807Y0112116D01*
X0137589Y0112897D01*
X0137589Y0114709D01*
X0136307Y0115991D01*
X0134495Y0115991D01*
X0133214Y0114709D01*
X0133214Y0113827D01*
X0131592Y0113827D01*
X0130310Y0112546D01*
X0130310Y0110734D01*
X0130952Y0110093D01*
X0130952Y0107516D01*
X0129459Y0107516D01*
X0129378Y0107435D01*
X0129297Y0107516D01*
X0127867Y0107516D01*
X0127867Y0117104D01*
X0127055Y0117917D01*
X0123460Y0121511D01*
X0119818Y0121511D01*
X0119818Y0127554D01*
X0119236Y0128136D01*
X0114397Y0128136D01*
X0113815Y0127554D01*
X0113815Y0121707D01*
X0112417Y0123106D01*
X0112417Y0127554D01*
X0111835Y0128136D01*
X0106996Y0128136D01*
X0106414Y0127554D01*
X0106414Y0126691D01*
X0102838Y0126691D01*
X0098879Y0129858D01*
X0099056Y0130286D01*
X0099056Y0131716D01*
X0098509Y0133037D01*
X0097498Y0134048D01*
X0096177Y0134595D01*
X0094748Y0134595D01*
X0093427Y0134048D01*
X0092416Y0133037D01*
X0091869Y0131716D01*
X0091869Y0130286D01*
X0092416Y0128965D01*
X0093427Y0127955D01*
X0094748Y0127407D01*
X0096177Y0127407D01*
X0097049Y0127769D01*
X0101425Y0124268D01*
X0101777Y0123916D01*
X0101865Y0123916D01*
X0101934Y0123861D01*
X0102429Y0123916D01*
X0106414Y0123916D01*
X0106414Y0121219D01*
X0106996Y0120637D01*
X0110962Y0120637D01*
X0111794Y0119805D01*
X0110546Y0118556D01*
X0106996Y0118556D01*
X0106414Y0117974D01*
X0106414Y0114880D01*
X0097666Y0114880D01*
X0097498Y0115048D01*
X0096177Y0115595D01*
X0094748Y0115595D01*
X0093427Y0115048D01*
X0092416Y0114037D01*
X0091869Y0112716D01*
X0091869Y0111286D01*
X0092416Y0109965D01*
X0093427Y0108955D01*
X0094748Y0108407D01*
X0096177Y0108407D01*
X0097498Y0108955D01*
X0098509Y0109965D01*
X0099056Y0111286D01*
X0099056Y0112105D01*
X0106414Y0112105D01*
X0106414Y0111639D01*
X0106996Y0111057D01*
X0111835Y0111057D01*
X0112417Y0111639D01*
X0112417Y0116503D01*
X0113297Y0117383D01*
X0113815Y0117383D01*
X0113815Y0111639D01*
X0114397Y0111057D01*
X0119236Y0111057D01*
X0119818Y0111639D01*
X0119818Y0117383D01*
X0121396Y0117383D01*
X0123092Y0115686D01*
X0123092Y0109393D01*
X0123050Y0109436D01*
X0123004Y0109436D01*
X0122621Y0109777D01*
X0122243Y0110155D01*
X0122197Y0110155D01*
X0122163Y0110186D01*
X0121629Y0110155D01*
X0100596Y0110155D01*
X0099783Y0109343D01*
X0098234Y0107793D01*
X0082257Y0107793D01*
X0081889Y0108161D01*
X0081889Y0109862D01*
X0083028Y0109862D01*
X0083610Y0110444D01*
X0083610Y0116779D01*
X0083028Y0117361D01*
X0081889Y0117361D01*
X0081889Y0119442D01*
X0083028Y0119442D01*
X0083610Y0120024D01*
X0083610Y0126359D01*
X0083028Y0126941D01*
X0078189Y0126941D01*
X0077607Y0126359D01*
X0077607Y0120024D01*
X0078189Y0119442D01*
X0079114Y0119442D01*
X0079114Y0117361D01*
X0078189Y0117361D01*
X0077607Y0116779D01*
X0077607Y0110444D01*
X0078189Y0109862D01*
X0079114Y0109862D01*
X0079114Y0107012D01*
X0080295Y0105831D01*
X0081108Y0105018D01*
X0099383Y0105018D01*
X0101745Y0107380D01*
X0119481Y0107380D01*
X0119034Y0106934D01*
X0119034Y0100008D01*
X0119141Y0099901D01*
X0119141Y0098872D01*
X0126412Y0091601D01*
X0126412Y0090670D01*
X0127693Y0089389D01*
X0129506Y0089389D01*
X0130624Y0090508D01*
X0130857Y0090275D01*
X0132669Y0090275D01*
X0133950Y0091556D01*
X0133950Y0092806D01*
X0134068Y0092806D01*
X0134068Y0091746D01*
X0135349Y0090465D01*
X0137161Y0090465D01*
X0137900Y0091204D01*
X0138639Y0090465D01*
X0140452Y0090465D01*
X0141096Y0091109D01*
X0141740Y0090465D01*
X0143495Y0090465D01*
X0143495Y0089721D01*
X0144777Y0088440D01*
X0146589Y0088440D01*
X0146675Y0088526D01*
X0147772Y0087430D01*
X0148022Y0087430D01*
X0147893Y0087301D01*
X0147893Y0087266D01*
X0147697Y0087053D01*
X0146992Y0086317D01*
X0146977Y0086317D01*
X0146595Y0085904D01*
X0146527Y0085834D01*
X0145431Y0085834D01*
X0144150Y0084552D01*
X0144150Y0082740D01*
X0145431Y0081459D01*
X0147243Y0081459D01*
X0148524Y0082740D01*
X0148524Y0083904D01*
X0148615Y0084001D01*
X0149324Y0084741D01*
X0149342Y0084742D01*
X0149720Y0085154D01*
X0150072Y0085520D01*
X0150072Y0084376D01*
X0149298Y0083601D01*
X0149298Y0081789D01*
X0149618Y0081469D01*
X0148798Y0081469D01*
X0147914Y0080585D01*
X0146684Y0080585D01*
X0145402Y0079303D01*
X0145402Y0077491D01*
X0146140Y0076753D01*
X0144912Y0075525D01*
X0144912Y0073712D01*
X0145063Y0073561D01*
X0116887Y0073561D01*
X0116887Y0075044D01*
X0116807Y0075125D01*
X0116887Y0075205D01*
X0116887Y0077013D01*
X0116807Y0077093D01*
X0116887Y0077174D01*
X0116887Y0078512D01*
X0117554Y0077845D01*
X0119366Y0077845D01*
X0120648Y0079126D01*
X0120648Y0080939D01*
X0119366Y0082220D01*
X0117554Y0082220D01*
X0116887Y0081553D01*
X0116887Y0082918D01*
X0116807Y0082999D01*
X0116887Y0083079D01*
X0116887Y0084887D01*
X0116807Y0084967D01*
X0116887Y0085048D01*
X0116887Y0086553D01*
X0117156Y0086553D01*
X0117156Y0085912D01*
X0118437Y0084631D01*
X0120249Y0084631D01*
X0121531Y0085912D01*
X0121531Y0087724D01*
X0120249Y0089005D01*
X0118896Y0089005D01*
X0118574Y0089328D01*
X0116887Y0089328D01*
X0116887Y0090468D01*
X0117690Y0090468D01*
X0118490Y0089668D01*
X0120302Y0089668D01*
X0121584Y0090949D01*
X0121584Y0092761D01*
X0120302Y0094042D01*
X0118490Y0094042D01*
X0117691Y0093243D01*
X0116887Y0093243D01*
X0116887Y0094729D01*
X0116807Y0094810D01*
X0116887Y0094890D01*
X0116887Y0096698D01*
X0116305Y0097280D01*
X0109380Y0097280D01*
X0109292Y0097192D01*
X0101475Y0097192D01*
X0101271Y0096987D01*
X0100143Y0096987D01*
X0098861Y0095706D01*
X0098861Y0093894D01*
X0100143Y0092612D01*
X0101955Y0092612D01*
X0102235Y0092893D01*
X0102235Y0092604D01*
X0103517Y0091322D01*
X0105329Y0091322D01*
X0106471Y0092464D01*
X0108798Y0092464D01*
X0108798Y0091304D01*
X0108078Y0091304D01*
X0107747Y0091635D01*
X0105935Y0091635D01*
X0104653Y0090354D01*
X0104653Y0088542D01*
X0105935Y0087260D01*
X0107747Y0087260D01*
X0108798Y0088311D01*
X0108798Y0087016D01*
X0108878Y0086936D01*
X0108798Y0086855D01*
X0108798Y0085352D01*
X0105460Y0085352D01*
X0104385Y0086428D01*
X0103572Y0087240D01*
X0101664Y0087240D01*
X0101664Y0090948D01*
X0101082Y0091530D01*
X0096243Y0091530D01*
X0095661Y0090948D01*
X0095661Y0084613D01*
X0096243Y0084031D01*
X0097185Y0084031D01*
X0097185Y0083494D01*
X0097051Y0083337D01*
X0088581Y0083337D01*
X0088084Y0083835D01*
X0088084Y0084392D01*
X0086802Y0085673D01*
X0084990Y0085673D01*
X0083709Y0084392D01*
X0083709Y0082579D01*
X0084990Y0081298D01*
X0085547Y0081298D01*
X0086045Y0080801D01*
X0087095Y0079750D01*
X0097224Y0079750D01*
X0097289Y0079695D01*
X0097956Y0079750D01*
X0098625Y0079750D01*
X0098685Y0079810D01*
X0098770Y0079817D01*
X0099203Y0080327D01*
X0099676Y0080801D01*
X0099676Y0080885D01*
X0100299Y0081620D01*
X0100772Y0082093D01*
X0100772Y0082178D01*
X0100827Y0082243D01*
X0100772Y0082910D01*
X0100772Y0084031D01*
X0101082Y0084031D01*
X0101517Y0084466D01*
X0102423Y0084466D01*
X0103578Y0083310D01*
X0102899Y0082631D01*
X0102899Y0080819D01*
X0104180Y0079537D01*
X0105992Y0079537D01*
X0107109Y0080654D01*
X0108798Y0080654D01*
X0108798Y0079479D01*
X0071888Y0079547D01*
X0066553Y0084940D01*
X0070206Y0084940D01*
X0070206Y0081812D01*
X0070788Y0081230D01*
X0075627Y0081230D01*
X0076209Y0081812D01*
X0076209Y0088147D01*
X0075627Y0088729D01*
X0070788Y0088729D01*
X0070206Y0088147D01*
X0070206Y0087714D01*
X0066275Y0087714D01*
X0066275Y0088147D01*
X0065693Y0088729D01*
X0061194Y0088729D01*
X0061194Y0089861D01*
X0062023Y0090690D01*
X0065693Y0090690D01*
X0065848Y0090845D01*
X0070632Y0090845D01*
X0070788Y0090690D01*
X0075627Y0090690D01*
X0076209Y0091272D01*
X0076209Y0097607D01*
X0075627Y0098189D01*
X0070788Y0098189D01*
X0070206Y0097607D01*
X0070206Y0093620D01*
X0066275Y0093620D01*
X0066275Y0097607D01*
X0065693Y0098189D01*
X0060854Y0098189D01*
X0060272Y0097607D01*
X0060272Y0092862D01*
X0059232Y0091823D01*
X0058873Y0091464D01*
X0058873Y0097607D01*
X0058291Y0098189D01*
X0053711Y0098189D01*
X0055653Y0100270D01*
X0058291Y0100270D01*
X0058873Y0100852D01*
X0058873Y0107187D01*
X0058291Y0107769D01*
X0057892Y0107769D01*
X0057892Y0109862D01*
X0058291Y0109862D01*
X0058873Y0110444D01*
X0058873Y0116779D01*
X0058291Y0117361D01*
X0057892Y0117361D01*
X0057892Y0119442D01*
X0058291Y0119442D01*
X0058873Y0120024D01*
X0058873Y0126359D01*
X0058291Y0126941D01*
X0057892Y0126941D01*
X0057892Y0139645D01*
X0067827Y0139645D01*
X0069008Y0140826D01*
X0070294Y0142111D01*
X0070294Y0149946D01*
X0070689Y0150341D01*
X0070689Y0156676D01*
X0070107Y0157258D01*
X0065268Y0157258D01*
X0064686Y0156676D01*
X0064686Y0150341D01*
X0065268Y0149759D01*
X0065906Y0149759D01*
X0065906Y0144032D01*
X0045878Y0144032D01*
X0045829Y0144149D01*
X0044621Y0145357D01*
X0043043Y0146011D01*
X0041335Y0146011D01*
X0039757Y0145357D01*
X0038549Y0144149D01*
X0037895Y0142571D01*
X0037895Y0140863D01*
X0038549Y0139285D01*
X0039757Y0138077D01*
X0041335Y0137424D01*
X0043043Y0137424D01*
X0044621Y0138077D01*
X0045829Y0139285D01*
X0045978Y0139645D01*
X0053505Y0139645D01*
X0053505Y0126941D01*
X0053452Y0126941D01*
X0052870Y0126359D01*
X0052870Y0120024D01*
X0053452Y0119442D01*
X0053505Y0119442D01*
X0053505Y0117361D01*
X0053452Y0117361D01*
X0052870Y0116779D01*
X0052870Y0110444D01*
X0053452Y0109862D01*
X0053505Y0109862D01*
X0053505Y0107769D01*
X0053452Y0107769D01*
X0052870Y0107187D01*
X0052870Y0102571D01*
X0052723Y0102424D01*
X0052723Y0102388D01*
X0048384Y0097739D01*
X0039623Y0097739D01*
X0039041Y0097157D01*
X0039041Y0094365D01*
X0039220Y0094186D01*
X0039041Y0094007D01*
X0039041Y0091216D01*
X0039220Y0091037D01*
X0039041Y0090858D01*
X0039041Y0088066D01*
X0039220Y0087887D01*
X0039041Y0087708D01*
X0039041Y0084916D01*
X0039220Y0084737D01*
X0039041Y0084558D01*
X0039041Y0081767D01*
X0039623Y0081185D01*
X0049533Y0081185D01*
X0050115Y0081767D01*
X0050115Y0084558D01*
X0049936Y0084737D01*
X0050115Y0084916D01*
X0050115Y0087708D01*
X0049936Y0087887D01*
X0050115Y0088066D01*
X0050115Y0088089D01*
X0051954Y0088089D01*
X0052870Y0087173D01*
X0052870Y0081812D01*
X0053452Y0081230D01*
X0054311Y0081230D01*
X0054311Y0079149D01*
X0053452Y0079149D01*
X0052870Y0078567D01*
X0052870Y0072232D01*
X0053452Y0071650D01*
X0058291Y0071650D01*
X0058873Y0072232D01*
X0058873Y0078567D01*
X0058291Y0079149D01*
X0057086Y0079149D01*
X0057086Y0081230D01*
X0058291Y0081230D01*
X0058419Y0081358D01*
X0058419Y0080574D01*
X0059436Y0079557D01*
X0060249Y0078745D01*
X0060450Y0078745D01*
X0060272Y0078567D01*
X0060272Y0072232D01*
X0060854Y0071650D01*
X0062382Y0071650D01*
X0062382Y0065773D01*
X0061170Y0065773D01*
X0060588Y0065191D01*
X0060588Y0061293D01*
X0061170Y0060711D01*
X0062382Y0060711D01*
X0062382Y0049106D01*
X0059651Y0046376D01*
X0034423Y0046376D01*
X0033683Y0047115D01*
X0033683Y0047144D01*
X0034452Y0047144D01*
X0035034Y0047726D01*
X0035034Y0054061D01*
X0034452Y0054643D01*
X0029613Y0054643D01*
X0029031Y0054061D01*
X0029031Y0047726D01*
X0029613Y0047144D01*
X0030908Y0047144D01*
X0030908Y0045966D01*
X0031721Y0045153D01*
X0033273Y0043601D01*
X0060800Y0043601D01*
X0061613Y0044414D01*
X0065157Y0047957D01*
X0065157Y0060711D01*
X0065543Y0060711D01*
X0066125Y0061293D01*
X0066125Y0065191D01*
X0065543Y0065773D01*
X0065157Y0065773D01*
X0065157Y0066164D01*
X0066137Y0065184D01*
X0067949Y0065184D01*
X0068256Y0065491D01*
X0069248Y0065490D01*
X0069248Y0065027D01*
X0069830Y0064445D01*
X0074202Y0064445D01*
X0074784Y0065027D01*
X0074784Y0065487D01*
X0076003Y0065486D01*
X0076003Y0063979D01*
X0076585Y0063397D01*
X0082920Y0063397D01*
X0083502Y0063979D01*
X0083502Y0068818D01*
X0082920Y0069400D01*
X0076585Y0069400D01*
X0076258Y0069073D01*
X0074635Y0069074D01*
X0074202Y0069507D01*
X0069830Y0069507D01*
X0069401Y0069077D01*
X0068430Y0069078D01*
X0067949Y0069559D01*
X0066137Y0069559D01*
X0065157Y0068579D01*
X0065157Y0071650D01*
X0065693Y0071650D01*
X0066275Y0072232D01*
X0066275Y0077409D01*
X0068154Y0075530D01*
X0068967Y0074717D01*
X0105492Y0074717D01*
X0104945Y0074170D01*
X0104945Y0072358D01*
X0106226Y0071076D01*
X0108038Y0071076D01*
X0108798Y0071836D01*
X0108798Y0071268D01*
X0108878Y0071188D01*
X0108798Y0071107D01*
X0108798Y0069645D01*
X0108510Y0069645D01*
X0107545Y0068679D01*
X0106733Y0067867D01*
X0106733Y0064564D01*
X0106665Y0064496D01*
X0106665Y0062684D01*
X0106867Y0062482D01*
X0094946Y0062482D01*
X0091977Y0065450D01*
X0091977Y0068818D01*
X0091395Y0069400D01*
X0085060Y0069400D01*
X0084478Y0068818D01*
X0084478Y0063979D01*
X0085060Y0063397D01*
X0090107Y0063397D01*
X0093797Y0059707D01*
X0119034Y0059707D01*
X0119034Y0055126D01*
X0119616Y0054544D01*
X0121423Y0054544D01*
X0121504Y0054625D01*
X0121584Y0054544D01*
X0123392Y0054544D01*
X0123472Y0054625D01*
X0123553Y0054544D01*
X0125076Y0054544D01*
X0125076Y0050648D01*
X0121403Y0046975D01*
X0120590Y0046163D01*
X0120590Y0042596D01*
X0120205Y0042596D01*
X0119829Y0042220D01*
X0119453Y0042596D01*
X0116268Y0042596D01*
X0115892Y0042220D01*
X0115516Y0042596D01*
X0115364Y0042596D01*
X0115369Y0043041D01*
X0115375Y0043048D01*
X0115375Y0043614D01*
X0115382Y0044181D01*
X0115375Y0044187D01*
X0115375Y0044197D01*
X0114974Y0044597D01*
X0114578Y0045002D01*
X0114569Y0045003D01*
X0112521Y0047048D01*
X0112521Y0048141D01*
X0111240Y0049422D01*
X0109427Y0049422D01*
X0108146Y0048141D01*
X0108146Y0046328D01*
X0109427Y0045047D01*
X0110598Y0045047D01*
X0112594Y0043053D01*
X0112589Y0042596D01*
X0112331Y0042596D01*
X0111955Y0042220D01*
X0111579Y0042596D01*
X0108394Y0042596D01*
X0108018Y0042220D01*
X0107642Y0042596D01*
X0104457Y0042596D01*
X0104081Y0042220D01*
X0103705Y0042596D01*
X0100520Y0042596D01*
X0100144Y0042220D01*
X0099768Y0042596D01*
X0099576Y0042596D01*
X0099576Y0044972D01*
X0098166Y0046382D01*
X0098166Y0047516D01*
X0096884Y0048797D01*
X0095072Y0048797D01*
X0093791Y0047516D01*
X0093791Y0045704D01*
X0095072Y0044422D01*
X0096201Y0044422D01*
X0096801Y0043822D01*
X0096801Y0042596D01*
X0096583Y0042596D01*
X0096207Y0042220D01*
X0095831Y0042596D01*
X0092646Y0042596D01*
X0092270Y0042220D01*
X0091894Y0042596D01*
X0088709Y0042596D01*
X0088127Y0042014D01*
X0088127Y0040457D01*
X0069418Y0040457D01*
X0068953Y0040922D01*
X0067141Y0040922D01*
X0065859Y0039641D01*
X0065859Y0037829D01*
X0067141Y0036548D01*
X0068953Y0036548D01*
X0069275Y0036869D01*
X0088127Y0036869D01*
X0088127Y0034891D01*
X0088461Y0034557D01*
X0088461Y0033062D01*
X0089511Y0032011D01*
X0094984Y0032011D01*
X0096035Y0033062D01*
X0096035Y0034513D01*
X0096207Y0034685D01*
X0096583Y0034309D01*
X0099690Y0034309D01*
X0098412Y0033032D01*
X0098412Y0031220D01*
X0099693Y0029938D01*
X0101505Y0029938D01*
X0102787Y0031220D01*
X0102787Y0032462D01*
X0103253Y0032982D01*
X0103633Y0033364D01*
X0103633Y0033406D01*
X0103661Y0033437D01*
X0103632Y0033974D01*
X0103631Y0034309D01*
X0103705Y0034309D01*
X0104081Y0034685D01*
X0104457Y0034309D01*
X0104889Y0034309D01*
X0104889Y0030831D01*
X0104917Y0030803D01*
X0104917Y0030767D01*
X0103957Y0030767D01*
X0102676Y0029486D01*
X0102676Y0027674D01*
X0103957Y0026392D01*
X0105769Y0026392D01*
X0107051Y0027674D01*
X0107051Y0028778D01*
X0107385Y0029112D01*
X0108015Y0028482D01*
X0109827Y0028482D01*
X0111109Y0029763D01*
X0111109Y0030840D01*
X0111536Y0031267D01*
X0111536Y0033640D01*
X0111526Y0033651D01*
X0111526Y0034309D01*
X0111579Y0034309D01*
X0111955Y0034685D01*
X0112331Y0034309D01*
X0115516Y0034309D01*
X0115892Y0034685D01*
X0116268Y0034309D01*
X0119453Y0034309D01*
X0119829Y0034685D01*
X0120205Y0034309D01*
X0123390Y0034309D01*
X0123766Y0034685D01*
X0124142Y0034309D01*
X0127327Y0034309D01*
X0127703Y0034685D01*
X0128079Y0034309D01*
X0131264Y0034309D01*
X0131640Y0034685D01*
X0132016Y0034309D01*
X0135201Y0034309D01*
X0135577Y0034685D01*
X0135750Y0034512D01*
X0135409Y0034171D01*
X0135409Y0032359D01*
X0136691Y0031077D01*
X0138503Y0031077D01*
X0139569Y0032144D01*
X0140636Y0031077D01*
X0142448Y0031077D01*
X0143494Y0032123D01*
X0144536Y0031081D01*
X0143278Y0029822D01*
X0143278Y0028010D01*
X0144099Y0027189D01*
X0144097Y0020158D01*
X0143826Y0020158D01*
X0143450Y0019782D01*
X0143307Y0019926D01*
X0143499Y0020118D01*
X0143499Y0021930D01*
X0142217Y0023211D01*
X0140405Y0023211D01*
X0139379Y0022185D01*
X0138353Y0023211D01*
X0136541Y0023211D01*
X0135487Y0022156D01*
X0134432Y0023211D01*
X0132620Y0023211D01*
X0131550Y0022142D01*
X0130481Y0023211D01*
X0128669Y0023211D01*
X0127658Y0022200D01*
X0126646Y0023211D01*
X0124834Y0023211D01*
X0123736Y0022113D01*
X0122638Y0023211D01*
X0120826Y0023211D01*
X0119771Y0022156D01*
X0118716Y0023211D01*
X0116904Y0023211D01*
X0115623Y0021930D01*
X0115623Y0020118D01*
X0115924Y0019816D01*
X0115891Y0019782D01*
X0115515Y0020158D01*
X0115062Y0020158D01*
X0115068Y0023274D01*
X0115878Y0024084D01*
X0115878Y0025896D01*
X0114597Y0027177D01*
X0112785Y0027177D01*
X0111503Y0025896D01*
X0111503Y0024084D01*
X0112294Y0023293D01*
X0112287Y0020116D01*
X0111954Y0019782D01*
X0111578Y0020158D01*
X0111152Y0020158D01*
X0111152Y0020864D01*
X0111931Y0021642D01*
X0111931Y0023455D01*
X0110650Y0024736D01*
X0108837Y0024736D01*
X0107556Y0023455D01*
X0107556Y0023308D01*
X0106774Y0024090D01*
X0104962Y0024090D01*
X0103681Y0022808D01*
X0103681Y0020996D01*
X0104485Y0020192D01*
X0104485Y0020158D01*
X0104456Y0020158D01*
X0104080Y0019782D01*
X0103704Y0020158D01*
X0103309Y0020158D01*
X0103309Y0022854D01*
X0104108Y0023653D01*
X0104108Y0025465D01*
X0102827Y0026746D01*
X0101015Y0026746D01*
X0099733Y0025465D01*
X0099733Y0023653D01*
X0100534Y0022852D01*
X0100534Y0020158D01*
X0100519Y0020158D01*
X0100143Y0019782D01*
X0099767Y0020158D01*
X0099531Y0020158D01*
X0099531Y0020295D01*
X0100305Y0021068D01*
X0100305Y0022880D01*
X0099023Y0024162D01*
X0097211Y0024162D01*
X0095930Y0022880D01*
X0095930Y0021535D01*
X0095076Y0022389D01*
X0091885Y0022389D01*
X0091005Y0023269D01*
X0089193Y0023269D01*
X0087911Y0021987D01*
X0087911Y0020175D01*
X0088318Y0019769D01*
X0088125Y0019576D01*
X0088125Y0012894D01*
X0084174Y0012892D01*
X0084174Y0017830D01*
X0084067Y0017937D01*
X0085725Y0017937D01*
X0086307Y0018519D01*
X0086307Y0026429D01*
X0085725Y0027011D01*
X0081555Y0027011D01*
X0080973Y0026429D01*
X0080973Y0018817D01*
X0059940Y0018819D01*
X0060789Y0019667D01*
X0061722Y0020601D01*
X0061722Y0022427D01*
X0062705Y0022427D01*
X0063288Y0023009D01*
X0063288Y0029344D01*
X0062705Y0029926D01*
X0057867Y0029926D01*
X0057284Y0029344D01*
X0057284Y0023009D01*
X0057867Y0022427D01*
X0058535Y0022427D01*
X0058535Y0021921D01*
X0058032Y0021419D01*
X0042368Y0021419D01*
X0039953Y0023835D01*
X0039953Y0024667D01*
X0040546Y0025261D01*
X0040546Y0027073D01*
X0039265Y0028354D01*
X0037453Y0028354D01*
X0036875Y0027777D01*
X0036875Y0030086D01*
X0036879Y0030090D01*
X0036876Y0031489D01*
X0035884Y0032476D01*
X0020345Y0032443D01*
X0020370Y0067208D01*
X0025840Y0067208D01*
X0026422Y0067790D01*
X0026422Y0076488D01*
X0025840Y0077070D01*
X0020377Y0077070D01*
X0020394Y0101854D01*
X0025840Y0101854D01*
X0026422Y0102436D01*
X0026422Y0111133D01*
X0025840Y0111715D01*
X0020401Y0111715D01*
X0020426Y0146233D01*
X0035816Y0146234D01*
X0035840Y0146258D01*
X0035853Y0146258D01*
X0036842Y0147248D01*
X0036833Y0159878D01*
X0238172Y0159912D01*
X0238172Y0148682D01*
X0238168Y0148548D02*
X0208141Y0148548D01*
X0208141Y0147762D02*
X0213274Y0147762D01*
X0213374Y0147863D02*
X0212166Y0146655D01*
X0211513Y0145077D01*
X0211513Y0143369D01*
X0212166Y0141790D01*
X0213374Y0140583D01*
X0214952Y0139929D01*
X0216660Y0139929D01*
X0218239Y0140583D01*
X0219446Y0141790D01*
X0220100Y0143369D01*
X0220100Y0145077D01*
X0219446Y0146655D01*
X0218239Y0147863D01*
X0216660Y0148516D01*
X0214952Y0148516D01*
X0213374Y0147863D01*
X0212488Y0146976D02*
X0207472Y0146976D01*
X0204436Y0146976D02*
X0193535Y0146976D01*
X0193856Y0146655D02*
X0192648Y0147863D01*
X0191070Y0148516D01*
X0189362Y0148516D01*
X0187784Y0147863D01*
X0186576Y0146655D01*
X0185922Y0145077D01*
X0185922Y0143369D01*
X0186576Y0141790D01*
X0187784Y0140583D01*
X0189362Y0139929D01*
X0191070Y0139929D01*
X0192648Y0140583D01*
X0193856Y0141790D01*
X0194510Y0143369D01*
X0194510Y0145077D01*
X0193856Y0146655D01*
X0194048Y0146190D02*
X0211974Y0146190D01*
X0211648Y0145404D02*
X0194374Y0145404D01*
X0194510Y0144618D02*
X0211513Y0144618D01*
X0211513Y0143832D02*
X0194510Y0143832D01*
X0194376Y0143047D02*
X0211646Y0143047D01*
X0211972Y0142261D02*
X0194051Y0142261D01*
X0193540Y0141475D02*
X0212482Y0141475D01*
X0213268Y0140689D02*
X0192754Y0140689D01*
X0187677Y0140689D02*
X0173114Y0140689D01*
X0173114Y0141475D02*
X0186892Y0141475D01*
X0186381Y0142261D02*
X0173114Y0142261D01*
X0173114Y0143047D02*
X0186056Y0143047D01*
X0185922Y0143832D02*
X0173114Y0143832D01*
X0173114Y0144618D02*
X0185922Y0144618D01*
X0186058Y0145404D02*
X0139868Y0145404D01*
X0139868Y0144618D02*
X0156155Y0144618D01*
X0156155Y0143832D02*
X0139868Y0143832D01*
X0139868Y0143047D02*
X0156155Y0143047D01*
X0156155Y0142261D02*
X0139868Y0142261D01*
X0139868Y0141475D02*
X0156155Y0141475D01*
X0156155Y0140689D02*
X0139868Y0140689D01*
X0139868Y0139903D02*
X0156155Y0139903D01*
X0158032Y0139117D02*
X0139868Y0139117D01*
X0139868Y0138331D02*
X0158032Y0138331D01*
X0158032Y0137545D02*
X0139868Y0137545D01*
X0139868Y0136759D02*
X0158032Y0136759D01*
X0158032Y0135973D02*
X0139868Y0135973D01*
X0139868Y0135187D02*
X0158032Y0135187D01*
X0157309Y0134402D02*
X0139868Y0134402D01*
X0139868Y0133616D02*
X0157265Y0133616D01*
X0157265Y0132830D02*
X0139868Y0132830D01*
X0139868Y0132044D02*
X0157265Y0132044D01*
X0157265Y0131258D02*
X0139868Y0131258D01*
X0139868Y0130472D02*
X0157265Y0130472D01*
X0157265Y0129686D02*
X0143832Y0129686D01*
X0144294Y0128900D02*
X0157265Y0128900D01*
X0157265Y0128114D02*
X0144294Y0128114D01*
X0144294Y0122613D02*
X0145029Y0122613D01*
X0145030Y0121827D02*
X0144021Y0121827D01*
X0145030Y0121041D02*
X0123931Y0121041D01*
X0124716Y0120255D02*
X0145031Y0120255D01*
X0145032Y0119469D02*
X0125502Y0119469D01*
X0126288Y0118683D02*
X0145033Y0118683D01*
X0145034Y0117897D02*
X0127074Y0117897D01*
X0127860Y0117111D02*
X0144746Y0117111D01*
X0144746Y0116326D02*
X0127867Y0116326D01*
X0127867Y0115540D02*
X0134044Y0115540D01*
X0133258Y0114754D02*
X0127867Y0114754D01*
X0127867Y0113968D02*
X0133214Y0113968D01*
X0135420Y0113833D02*
X0135420Y0109135D01*
X0134291Y0108007D01*
X0134291Y0105749D01*
X0132339Y0105810D02*
X0132339Y0111576D01*
X0132492Y0111728D01*
X0130946Y0113182D02*
X0127867Y0113182D01*
X0127867Y0112396D02*
X0130310Y0112396D01*
X0130310Y0111610D02*
X0127867Y0111610D01*
X0127867Y0110824D02*
X0130310Y0110824D01*
X0130952Y0110038D02*
X0127867Y0110038D01*
X0127867Y0109252D02*
X0130952Y0109252D01*
X0130952Y0108466D02*
X0127867Y0108466D01*
X0127867Y0107680D02*
X0130952Y0107680D01*
X0130412Y0107795D02*
X0130412Y0105928D01*
X0126480Y0104559D02*
X0126480Y0116530D01*
X0122885Y0120124D01*
X0113437Y0120124D01*
X0110620Y0122941D01*
X0112417Y0123399D02*
X0113815Y0123399D01*
X0113815Y0124185D02*
X0112417Y0124185D01*
X0112417Y0124971D02*
X0113815Y0124971D01*
X0113815Y0125756D02*
X0112417Y0125756D01*
X0112417Y0126542D02*
X0113815Y0126542D01*
X0113815Y0127328D02*
X0112417Y0127328D01*
X0111857Y0128114D02*
X0114375Y0128114D01*
X0119258Y0128114D02*
X0130107Y0128114D01*
X0130107Y0127328D02*
X0119818Y0127328D01*
X0119818Y0126542D02*
X0130107Y0126542D01*
X0130107Y0125756D02*
X0119818Y0125756D01*
X0119818Y0124971D02*
X0130107Y0124971D01*
X0130107Y0124185D02*
X0119818Y0124185D01*
X0119818Y0123399D02*
X0130107Y0123399D01*
X0130107Y0122613D02*
X0119818Y0122613D01*
X0119818Y0121827D02*
X0130380Y0121827D01*
X0124480Y0116261D02*
X0121970Y0118771D01*
X0112722Y0118771D01*
X0110718Y0116766D01*
X0112417Y0116326D02*
X0113815Y0116326D01*
X0113815Y0117111D02*
X0113025Y0117111D01*
X0112417Y0115540D02*
X0113815Y0115540D01*
X0113815Y0114754D02*
X0112417Y0114754D01*
X0112417Y0113968D02*
X0113815Y0113968D01*
X0113815Y0113182D02*
X0112417Y0113182D01*
X0112417Y0112396D02*
X0113815Y0112396D01*
X0113844Y0111610D02*
X0112388Y0111610D01*
X0108257Y0113492D02*
X0096446Y0113492D01*
X0096311Y0115540D02*
X0106414Y0115540D01*
X0106414Y0116326D02*
X0083610Y0116326D01*
X0083610Y0115540D02*
X0094614Y0115540D01*
X0093133Y0114754D02*
X0083610Y0114754D01*
X0083610Y0113968D02*
X0092387Y0113968D01*
X0092062Y0113182D02*
X0083610Y0113182D01*
X0083610Y0112396D02*
X0091869Y0112396D01*
X0091869Y0111610D02*
X0083610Y0111610D01*
X0083610Y0110824D02*
X0092060Y0110824D01*
X0092386Y0110038D02*
X0083205Y0110038D01*
X0081889Y0109252D02*
X0093129Y0109252D01*
X0094605Y0108466D02*
X0081889Y0108466D01*
X0080501Y0107587D02*
X0081683Y0106406D01*
X0098808Y0106406D01*
X0101171Y0108768D01*
X0121668Y0108768D01*
X0122475Y0108048D01*
X0122475Y0105061D01*
X0124480Y0104829D02*
X0124480Y0116261D01*
X0123092Y0115540D02*
X0119818Y0115540D01*
X0119818Y0116326D02*
X0122453Y0116326D01*
X0121668Y0117111D02*
X0119818Y0117111D01*
X0119818Y0114754D02*
X0123092Y0114754D01*
X0123092Y0113968D02*
X0119818Y0113968D01*
X0119818Y0113182D02*
X0123092Y0113182D01*
X0123092Y0112396D02*
X0119818Y0112396D01*
X0119789Y0111610D02*
X0123092Y0111610D01*
X0123092Y0110824D02*
X0098865Y0110824D01*
X0099056Y0111610D02*
X0106443Y0111610D01*
X0100479Y0110038D02*
X0098539Y0110038D01*
X0097796Y0109252D02*
X0099693Y0109252D01*
X0098907Y0108466D02*
X0096320Y0108466D01*
X0100474Y0106109D02*
X0119034Y0106109D01*
X0119034Y0106895D02*
X0101259Y0106895D01*
X0099688Y0105323D02*
X0119034Y0105323D01*
X0119034Y0104537D02*
X0070387Y0104537D01*
X0070387Y0104645D02*
X0069105Y0105926D01*
X0067293Y0105926D01*
X0066472Y0105105D01*
X0066275Y0105105D01*
X0066275Y0107187D01*
X0065693Y0107769D01*
X0060854Y0107769D01*
X0060272Y0107187D01*
X0060272Y0100852D01*
X0060854Y0100270D01*
X0065693Y0100270D01*
X0066275Y0100852D01*
X0066275Y0102330D01*
X0066515Y0102330D01*
X0067293Y0101551D01*
X0069105Y0101551D01*
X0070387Y0102833D01*
X0070387Y0104645D01*
X0070387Y0103751D02*
X0119034Y0103751D01*
X0119034Y0102965D02*
X0070387Y0102965D01*
X0069733Y0102179D02*
X0119034Y0102179D01*
X0119034Y0101393D02*
X0066275Y0101393D01*
X0066275Y0102179D02*
X0066666Y0102179D01*
X0066030Y0100607D02*
X0119034Y0100607D01*
X0119141Y0099821D02*
X0055235Y0099821D01*
X0054501Y0099035D02*
X0119141Y0099035D01*
X0119764Y0098250D02*
X0053768Y0098250D01*
X0050328Y0099821D02*
X0035451Y0099821D01*
X0035366Y0100028D02*
X0034420Y0100974D01*
X0033184Y0101485D01*
X0031846Y0101485D01*
X0030611Y0100974D01*
X0029665Y0100028D01*
X0029153Y0098792D01*
X0029153Y0097454D01*
X0029665Y0096219D01*
X0030611Y0095273D01*
X0031846Y0094761D01*
X0033184Y0094761D01*
X0034420Y0095273D01*
X0035366Y0096219D01*
X0035877Y0097454D01*
X0035877Y0098792D01*
X0035366Y0100028D01*
X0034786Y0100607D02*
X0051061Y0100607D01*
X0051795Y0101393D02*
X0033407Y0101393D01*
X0031624Y0101393D02*
X0020394Y0101393D01*
X0020393Y0100607D02*
X0030244Y0100607D01*
X0029579Y0099821D02*
X0020393Y0099821D01*
X0020392Y0099035D02*
X0029254Y0099035D01*
X0029153Y0098250D02*
X0020392Y0098250D01*
X0020391Y0097464D02*
X0029153Y0097464D01*
X0029475Y0096678D02*
X0020391Y0096678D01*
X0020390Y0095892D02*
X0029992Y0095892D01*
X0031014Y0095106D02*
X0020390Y0095106D01*
X0020389Y0094320D02*
X0039086Y0094320D01*
X0039041Y0095106D02*
X0034017Y0095106D01*
X0035039Y0095892D02*
X0039041Y0095892D01*
X0039041Y0096678D02*
X0035556Y0096678D01*
X0035877Y0097464D02*
X0039348Y0097464D01*
X0035877Y0098250D02*
X0048861Y0098250D01*
X0049594Y0099035D02*
X0035777Y0099035D01*
X0037222Y0101854D02*
X0036640Y0102436D01*
X0036640Y0111133D01*
X0037222Y0111715D01*
X0047494Y0111715D01*
X0048076Y0111133D01*
X0048076Y0102436D01*
X0047494Y0101854D01*
X0037222Y0101854D01*
X0036897Y0102179D02*
X0026165Y0102179D01*
X0026422Y0102965D02*
X0036640Y0102965D01*
X0036640Y0103751D02*
X0026422Y0103751D01*
X0026422Y0104537D02*
X0036640Y0104537D01*
X0036640Y0105323D02*
X0026422Y0105323D01*
X0026422Y0106109D02*
X0036640Y0106109D01*
X0036640Y0106895D02*
X0026422Y0106895D01*
X0026422Y0107680D02*
X0036640Y0107680D01*
X0036640Y0108466D02*
X0026422Y0108466D01*
X0026422Y0109252D02*
X0036640Y0109252D01*
X0036640Y0110038D02*
X0026422Y0110038D01*
X0026422Y0110824D02*
X0036640Y0110824D01*
X0037116Y0111610D02*
X0025945Y0111610D01*
X0027867Y0114288D02*
X0032706Y0114288D01*
X0033289Y0114870D01*
X0033289Y0121205D01*
X0032706Y0121788D01*
X0027867Y0121788D01*
X0027285Y0121205D01*
X0027285Y0114870D01*
X0027867Y0114288D01*
X0027402Y0114754D02*
X0020403Y0114754D01*
X0020404Y0115540D02*
X0027285Y0115540D01*
X0027285Y0116326D02*
X0020405Y0116326D01*
X0020405Y0117111D02*
X0027285Y0117111D01*
X0027285Y0117897D02*
X0020406Y0117897D01*
X0020406Y0118683D02*
X0027285Y0118683D01*
X0027285Y0119469D02*
X0020407Y0119469D01*
X0020407Y0120255D02*
X0027285Y0120255D01*
X0027285Y0121041D02*
X0020408Y0121041D01*
X0020408Y0121827D02*
X0037185Y0121827D01*
X0037185Y0121788D02*
X0035269Y0121788D01*
X0034687Y0121205D01*
X0034687Y0114870D01*
X0035269Y0114288D01*
X0040108Y0114288D01*
X0040690Y0114870D01*
X0040690Y0121205D01*
X0040108Y0121788D01*
X0039960Y0121788D01*
X0039960Y0124143D01*
X0042179Y0124143D01*
X0042761Y0124725D01*
X0042761Y0131060D01*
X0042179Y0131642D01*
X0037340Y0131642D01*
X0036757Y0131060D01*
X0036757Y0124725D01*
X0037185Y0124297D01*
X0037185Y0121788D01*
X0037185Y0122613D02*
X0020409Y0122613D01*
X0020410Y0123399D02*
X0037185Y0123399D01*
X0037185Y0124185D02*
X0034819Y0124185D01*
X0034777Y0124143D02*
X0035359Y0124725D01*
X0035359Y0131060D01*
X0034777Y0131642D01*
X0029938Y0131642D01*
X0029356Y0131060D01*
X0029356Y0129764D01*
X0028631Y0129770D01*
X0028227Y0130174D01*
X0026415Y0130174D01*
X0025134Y0128892D01*
X0025134Y0127080D01*
X0026415Y0125799D01*
X0028227Y0125799D01*
X0028611Y0126183D01*
X0029356Y0126177D01*
X0029356Y0124725D01*
X0029938Y0124143D01*
X0034777Y0124143D01*
X0035359Y0124971D02*
X0036757Y0124971D01*
X0036757Y0125756D02*
X0035359Y0125756D01*
X0035359Y0126542D02*
X0036757Y0126542D01*
X0036757Y0127328D02*
X0035359Y0127328D01*
X0035359Y0128114D02*
X0036757Y0128114D01*
X0036757Y0128900D02*
X0035359Y0128900D01*
X0035359Y0129686D02*
X0036757Y0129686D01*
X0036757Y0130472D02*
X0035359Y0130472D01*
X0035161Y0131258D02*
X0036955Y0131258D01*
X0042563Y0131258D02*
X0053505Y0131258D01*
X0053505Y0132044D02*
X0020416Y0132044D01*
X0020416Y0132830D02*
X0053505Y0132830D01*
X0053505Y0133616D02*
X0020417Y0133616D01*
X0020417Y0134402D02*
X0053505Y0134402D01*
X0053505Y0135187D02*
X0020418Y0135187D01*
X0020419Y0135973D02*
X0053505Y0135973D01*
X0053505Y0136759D02*
X0020419Y0136759D01*
X0020420Y0137545D02*
X0041041Y0137545D01*
X0039503Y0138331D02*
X0020420Y0138331D01*
X0020421Y0139117D02*
X0038717Y0139117D01*
X0038293Y0139903D02*
X0020421Y0139903D01*
X0020422Y0140689D02*
X0037968Y0140689D01*
X0037895Y0141475D02*
X0020422Y0141475D01*
X0020423Y0142261D02*
X0037895Y0142261D01*
X0038092Y0143047D02*
X0020424Y0143047D01*
X0020424Y0143832D02*
X0038418Y0143832D01*
X0039018Y0144618D02*
X0020425Y0144618D01*
X0020425Y0145404D02*
X0039870Y0145404D01*
X0036570Y0146976D02*
X0051658Y0146976D01*
X0051658Y0147493D02*
X0051658Y0145681D01*
X0052940Y0144400D01*
X0054752Y0144400D01*
X0055543Y0145191D01*
X0058073Y0145179D01*
X0058076Y0145176D01*
X0058647Y0145176D01*
X0059219Y0145173D01*
X0059222Y0145176D01*
X0059226Y0145176D01*
X0059629Y0145579D01*
X0060036Y0145982D01*
X0060036Y0145986D01*
X0060407Y0146357D01*
X0061220Y0147170D01*
X0061220Y0149759D01*
X0062705Y0149759D01*
X0063288Y0150341D01*
X0063288Y0156676D01*
X0062705Y0157258D01*
X0057867Y0157258D01*
X0057284Y0156676D01*
X0057284Y0150341D01*
X0057867Y0149759D01*
X0058445Y0149759D01*
X0058445Y0148319D01*
X0058079Y0147953D01*
X0055560Y0147966D01*
X0054752Y0148774D01*
X0052940Y0148774D01*
X0051658Y0147493D01*
X0051927Y0147762D02*
X0036841Y0147762D01*
X0036841Y0148548D02*
X0052713Y0148548D01*
X0053846Y0146587D02*
X0058651Y0146563D01*
X0059832Y0147744D01*
X0059832Y0152469D01*
X0057284Y0152478D02*
X0036838Y0152478D01*
X0036838Y0153263D02*
X0057284Y0153263D01*
X0057284Y0154049D02*
X0036837Y0154049D01*
X0036837Y0154835D02*
X0057284Y0154835D01*
X0057284Y0155621D02*
X0036836Y0155621D01*
X0036836Y0156407D02*
X0057284Y0156407D01*
X0057801Y0157193D02*
X0036835Y0157193D01*
X0036835Y0157979D02*
X0238172Y0157979D01*
X0238172Y0158765D02*
X0036834Y0158765D01*
X0036833Y0159551D02*
X0238172Y0159551D01*
X0238172Y0153263D02*
X0220113Y0153263D01*
X0219860Y0152478D02*
X0238172Y0152478D01*
X0238172Y0151692D02*
X0219074Y0151692D01*
X0216776Y0151692D02*
X0216349Y0151692D01*
X0216349Y0150906D02*
X0238172Y0150906D01*
X0238172Y0150120D02*
X0216128Y0150120D01*
X0218339Y0147762D02*
X0238163Y0147762D01*
X0238452Y0146976D02*
X0219125Y0146976D01*
X0219639Y0146190D02*
X0253996Y0146190D01*
X0252134Y0144618D02*
X0220100Y0144618D01*
X0220100Y0143832D02*
X0251656Y0143832D01*
X0251656Y0143047D02*
X0219967Y0143047D01*
X0219641Y0142261D02*
X0251656Y0142261D01*
X0251656Y0141475D02*
X0219131Y0141475D01*
X0218345Y0140689D02*
X0251656Y0140689D01*
X0251656Y0139903D02*
X0173114Y0139903D01*
X0173114Y0139892D02*
X0173114Y0144731D01*
X0172532Y0145313D01*
X0166197Y0145313D01*
X0165615Y0144731D01*
X0165615Y0139892D01*
X0166197Y0139310D01*
X0172532Y0139310D01*
X0173114Y0139892D01*
X0174459Y0134940D02*
X0167711Y0134940D01*
X0167129Y0134358D01*
X0167129Y0124871D01*
X0167711Y0124289D01*
X0174459Y0124289D01*
X0175041Y0124871D01*
X0175041Y0134358D01*
X0174459Y0134940D01*
X0174998Y0134402D02*
X0235913Y0134402D01*
X0235913Y0134477D02*
X0235913Y0131682D01*
X0236495Y0131100D01*
X0249124Y0131100D01*
X0249706Y0131682D01*
X0249706Y0134477D01*
X0249124Y0135059D01*
X0236495Y0135059D01*
X0235913Y0134477D01*
X0235913Y0133616D02*
X0175041Y0133616D01*
X0175041Y0132830D02*
X0235913Y0132830D01*
X0235913Y0132044D02*
X0175041Y0132044D01*
X0175041Y0131258D02*
X0236337Y0131258D01*
X0236486Y0129084D02*
X0235904Y0128502D01*
X0235904Y0125707D01*
X0236486Y0125125D01*
X0249115Y0125125D01*
X0249342Y0125352D01*
X0250271Y0125352D01*
X0250521Y0125102D01*
X0252333Y0125102D01*
X0253614Y0126383D01*
X0253614Y0128196D01*
X0252333Y0129477D01*
X0250521Y0129477D01*
X0249983Y0128940D01*
X0249259Y0128940D01*
X0249115Y0129084D01*
X0236486Y0129084D01*
X0236302Y0128900D02*
X0219462Y0128900D01*
X0219446Y0128938D02*
X0218239Y0130146D01*
X0216660Y0130800D01*
X0214952Y0130800D01*
X0213374Y0130146D01*
X0212166Y0128938D01*
X0211513Y0127360D01*
X0211513Y0125652D01*
X0212166Y0124074D01*
X0213374Y0122866D01*
X0213965Y0122621D01*
X0201285Y0122621D01*
X0200572Y0123334D01*
X0198760Y0123334D01*
X0197479Y0122053D01*
X0197479Y0120241D01*
X0198329Y0119391D01*
X0196365Y0119391D01*
X0196365Y0119459D01*
X0195083Y0120741D01*
X0193271Y0120741D01*
X0191990Y0119459D01*
X0191990Y0117647D01*
X0193271Y0116366D01*
X0195083Y0116366D01*
X0195334Y0116616D01*
X0232512Y0116616D01*
X0235257Y0113871D01*
X0235909Y0113871D01*
X0235909Y0113828D01*
X0236491Y0113245D01*
X0249120Y0113245D01*
X0249702Y0113828D01*
X0249702Y0116623D01*
X0249120Y0117205D01*
X0236491Y0117205D01*
X0236169Y0116883D01*
X0234474Y0118578D01*
X0233661Y0119391D01*
X0201004Y0119391D01*
X0201460Y0119847D01*
X0235918Y0119847D01*
X0235918Y0119803D01*
X0236500Y0119221D01*
X0249128Y0119221D01*
X0249710Y0119803D01*
X0249710Y0122598D01*
X0249128Y0123180D01*
X0236500Y0123180D01*
X0235941Y0122621D01*
X0217648Y0122621D01*
X0218239Y0122866D01*
X0219446Y0124074D01*
X0220100Y0125652D01*
X0220100Y0127360D01*
X0219446Y0128938D01*
X0219788Y0128114D02*
X0235904Y0128114D01*
X0235904Y0127328D02*
X0220100Y0127328D01*
X0220100Y0126542D02*
X0235904Y0126542D01*
X0235904Y0125756D02*
X0220100Y0125756D01*
X0219818Y0124971D02*
X0259252Y0124971D01*
X0259253Y0125756D02*
X0252987Y0125756D01*
X0253614Y0126542D02*
X0259254Y0126542D01*
X0259254Y0127328D02*
X0253614Y0127328D01*
X0253614Y0128114D02*
X0259255Y0128114D01*
X0259255Y0128900D02*
X0252909Y0128900D01*
X0249281Y0131258D02*
X0259257Y0131258D01*
X0259258Y0132044D02*
X0249706Y0132044D01*
X0249706Y0132830D02*
X0259258Y0132830D01*
X0259259Y0133616D02*
X0249706Y0133616D01*
X0249706Y0134402D02*
X0259259Y0134402D01*
X0259260Y0135187D02*
X0162420Y0135187D01*
X0162420Y0135973D02*
X0259261Y0135973D01*
X0259261Y0136759D02*
X0162459Y0136759D01*
X0162459Y0137545D02*
X0251656Y0137545D01*
X0251656Y0138331D02*
X0162420Y0138331D01*
X0162420Y0139117D02*
X0251656Y0139117D01*
X0259268Y0145404D02*
X0219964Y0145404D01*
X0203766Y0147762D02*
X0192749Y0147762D01*
X0187683Y0147762D02*
X0173114Y0147762D01*
X0173114Y0147294D02*
X0173114Y0152133D01*
X0172532Y0152715D01*
X0166197Y0152715D01*
X0165615Y0152133D01*
X0165615Y0151900D01*
X0163655Y0151900D01*
X0163655Y0152133D01*
X0163072Y0152715D01*
X0156737Y0152715D01*
X0156155Y0152133D01*
X0156155Y0151900D01*
X0148944Y0151900D01*
X0148944Y0154423D01*
X0148362Y0155006D01*
X0144239Y0155006D01*
X0143657Y0154423D01*
X0143657Y0147300D01*
X0144239Y0146718D01*
X0148362Y0146718D01*
X0148944Y0147300D01*
X0148944Y0148313D01*
X0156155Y0148313D01*
X0156155Y0147294D01*
X0156737Y0146711D01*
X0163072Y0146711D01*
X0163655Y0147294D01*
X0163655Y0148313D01*
X0165615Y0148313D01*
X0165615Y0147294D01*
X0166197Y0146711D01*
X0172532Y0146711D01*
X0173114Y0147294D01*
X0172797Y0146976D02*
X0186897Y0146976D01*
X0186383Y0146190D02*
X0139868Y0146190D01*
X0139868Y0146976D02*
X0143981Y0146976D01*
X0143657Y0147762D02*
X0139868Y0147762D01*
X0139868Y0148548D02*
X0143657Y0148548D01*
X0143657Y0149334D02*
X0139868Y0149334D01*
X0139868Y0150120D02*
X0143657Y0150120D01*
X0143657Y0150906D02*
X0139844Y0150906D01*
X0139844Y0151692D02*
X0143657Y0151692D01*
X0143657Y0152478D02*
X0139844Y0152478D01*
X0139844Y0153263D02*
X0143657Y0153263D01*
X0143657Y0154049D02*
X0139844Y0154049D01*
X0139432Y0154835D02*
X0144069Y0154835D01*
X0148532Y0154835D02*
X0202945Y0154835D01*
X0202945Y0154049D02*
X0148944Y0154049D01*
X0148944Y0153263D02*
X0202945Y0153263D01*
X0202945Y0152478D02*
X0172769Y0152478D01*
X0173114Y0151692D02*
X0202945Y0151692D01*
X0202945Y0150906D02*
X0173114Y0150906D01*
X0173114Y0150120D02*
X0203166Y0150120D01*
X0203766Y0149334D02*
X0173114Y0149334D01*
X0173114Y0148548D02*
X0203766Y0148548D01*
X0202945Y0155621D02*
X0070689Y0155621D01*
X0070689Y0154835D02*
X0125869Y0154835D01*
X0126039Y0155006D02*
X0125457Y0154423D01*
X0125457Y0150141D01*
X0124138Y0148822D01*
X0119770Y0148822D01*
X0119770Y0149242D01*
X0119188Y0149824D01*
X0109705Y0149824D01*
X0109123Y0149242D01*
X0109123Y0148822D01*
X0084147Y0148822D01*
X0083194Y0148427D01*
X0082464Y0147698D01*
X0080778Y0146011D01*
X0079335Y0146011D01*
X0077757Y0145357D01*
X0076549Y0144149D01*
X0075895Y0142571D01*
X0075895Y0140863D01*
X0076549Y0139285D01*
X0077757Y0138077D01*
X0079335Y0137424D01*
X0081043Y0137424D01*
X0082621Y0138077D01*
X0083829Y0139285D01*
X0084483Y0140863D01*
X0084483Y0142380D01*
X0085738Y0143635D01*
X0109123Y0143635D01*
X0109123Y0142493D01*
X0109705Y0141911D01*
X0119188Y0141911D01*
X0119770Y0142493D01*
X0119770Y0143635D01*
X0125728Y0143635D01*
X0126681Y0144030D01*
X0129370Y0146718D01*
X0130162Y0146718D01*
X0130744Y0147300D01*
X0130744Y0154423D01*
X0130162Y0155006D01*
X0126039Y0155006D01*
X0125457Y0154049D02*
X0070689Y0154049D01*
X0070689Y0153263D02*
X0125457Y0153263D01*
X0125457Y0152478D02*
X0070689Y0152478D01*
X0070689Y0151692D02*
X0125457Y0151692D01*
X0125457Y0150906D02*
X0070689Y0150906D01*
X0070468Y0150120D02*
X0125436Y0150120D01*
X0124650Y0149334D02*
X0119677Y0149334D01*
X0119770Y0143047D02*
X0134680Y0143047D01*
X0134680Y0143832D02*
X0126206Y0143832D01*
X0127270Y0144618D02*
X0134680Y0144618D01*
X0134680Y0145404D02*
X0128056Y0145404D01*
X0128842Y0146190D02*
X0134680Y0146190D01*
X0134680Y0146976D02*
X0130420Y0146976D01*
X0130744Y0147762D02*
X0134557Y0147762D01*
X0134557Y0148548D02*
X0130744Y0148548D01*
X0130744Y0149334D02*
X0134557Y0149334D01*
X0134557Y0150120D02*
X0130744Y0150120D01*
X0130744Y0150906D02*
X0134557Y0150906D01*
X0134557Y0151692D02*
X0130744Y0151692D01*
X0130744Y0152478D02*
X0134557Y0152478D01*
X0134557Y0153263D02*
X0130744Y0153263D01*
X0130744Y0154049D02*
X0134557Y0154049D01*
X0134969Y0154835D02*
X0130332Y0154835D01*
X0134680Y0142261D02*
X0119537Y0142261D01*
X0119188Y0139961D02*
X0109701Y0139961D01*
X0109118Y0139379D01*
X0109118Y0132630D01*
X0109701Y0132048D01*
X0119188Y0132048D01*
X0119770Y0132630D01*
X0119770Y0139379D01*
X0119188Y0139961D01*
X0119245Y0139903D02*
X0134680Y0139903D01*
X0134680Y0140689D02*
X0084411Y0140689D01*
X0084483Y0141475D02*
X0134680Y0141475D01*
X0134680Y0139117D02*
X0119770Y0139117D01*
X0119770Y0138331D02*
X0134680Y0138331D01*
X0134680Y0137545D02*
X0119770Y0137545D01*
X0119770Y0136759D02*
X0134680Y0136759D01*
X0134680Y0135973D02*
X0119770Y0135973D01*
X0119770Y0135187D02*
X0134680Y0135187D01*
X0134680Y0134402D02*
X0119770Y0134402D01*
X0119770Y0133616D02*
X0134680Y0133616D01*
X0134680Y0132830D02*
X0119770Y0132830D01*
X0109118Y0132830D02*
X0098595Y0132830D01*
X0098920Y0132044D02*
X0134680Y0132044D01*
X0134680Y0131258D02*
X0099056Y0131258D01*
X0099056Y0130472D02*
X0134680Y0130472D01*
X0130569Y0129686D02*
X0099094Y0129686D01*
X0100077Y0128900D02*
X0130107Y0128900D01*
X0113815Y0122613D02*
X0112910Y0122613D01*
X0113696Y0121827D02*
X0113815Y0121827D01*
X0111343Y0120255D02*
X0083610Y0120255D01*
X0083610Y0121041D02*
X0106592Y0121041D01*
X0106414Y0121827D02*
X0083610Y0121827D01*
X0083610Y0122613D02*
X0106414Y0122613D01*
X0106414Y0123399D02*
X0083610Y0123399D01*
X0083610Y0124185D02*
X0101508Y0124185D01*
X0100547Y0124971D02*
X0083610Y0124971D01*
X0083610Y0125756D02*
X0099564Y0125756D01*
X0098582Y0126542D02*
X0083427Y0126542D01*
X0080501Y0122941D02*
X0080501Y0107587D01*
X0079114Y0107680D02*
X0065781Y0107680D01*
X0066275Y0106895D02*
X0079232Y0106895D01*
X0080017Y0106109D02*
X0066275Y0106109D01*
X0066275Y0105323D02*
X0066690Y0105323D01*
X0068268Y0103717D02*
X0062523Y0103717D01*
X0060272Y0103751D02*
X0058873Y0103751D01*
X0058873Y0104537D02*
X0060272Y0104537D01*
X0060272Y0105323D02*
X0058873Y0105323D01*
X0058873Y0106109D02*
X0060272Y0106109D01*
X0060272Y0106895D02*
X0058873Y0106895D01*
X0058379Y0107680D02*
X0060766Y0107680D01*
X0060854Y0109862D02*
X0065693Y0109862D01*
X0066275Y0110444D01*
X0066275Y0116779D01*
X0065693Y0117361D01*
X0060854Y0117361D01*
X0060272Y0116779D01*
X0060272Y0110444D01*
X0060854Y0109862D01*
X0060678Y0110038D02*
X0058467Y0110038D01*
X0058873Y0110824D02*
X0060272Y0110824D01*
X0060272Y0111610D02*
X0058873Y0111610D01*
X0058873Y0112396D02*
X0060272Y0112396D01*
X0060272Y0113182D02*
X0058873Y0113182D01*
X0058873Y0113968D02*
X0060272Y0113968D01*
X0060272Y0114754D02*
X0058873Y0114754D01*
X0058873Y0115540D02*
X0060272Y0115540D01*
X0060272Y0116326D02*
X0058873Y0116326D01*
X0058541Y0117111D02*
X0060604Y0117111D01*
X0060854Y0119442D02*
X0065693Y0119442D01*
X0066275Y0120024D01*
X0066275Y0126359D01*
X0065693Y0126941D01*
X0060854Y0126941D01*
X0060272Y0126359D01*
X0060272Y0120024D01*
X0060854Y0119442D01*
X0060827Y0119469D02*
X0058318Y0119469D01*
X0057892Y0118683D02*
X0079114Y0118683D01*
X0079114Y0117897D02*
X0057892Y0117897D01*
X0058873Y0120255D02*
X0060272Y0120255D01*
X0060272Y0121041D02*
X0058873Y0121041D01*
X0058873Y0121827D02*
X0060272Y0121827D01*
X0060272Y0122613D02*
X0058873Y0122613D01*
X0058873Y0123399D02*
X0060272Y0123399D01*
X0060272Y0124185D02*
X0058873Y0124185D01*
X0058873Y0124971D02*
X0060272Y0124971D01*
X0060272Y0125756D02*
X0058873Y0125756D01*
X0058690Y0126542D02*
X0060455Y0126542D01*
X0057892Y0127328D02*
X0097600Y0127328D01*
X0096446Y0130028D02*
X0102352Y0125303D01*
X0109438Y0125303D01*
X0106414Y0127328D02*
X0102041Y0127328D01*
X0101059Y0128114D02*
X0106974Y0128114D01*
X0109118Y0133616D02*
X0097930Y0133616D01*
X0096644Y0134402D02*
X0109118Y0134402D01*
X0109118Y0135187D02*
X0057892Y0135187D01*
X0057892Y0134402D02*
X0094281Y0134402D01*
X0092995Y0133616D02*
X0057892Y0133616D01*
X0057892Y0132830D02*
X0092330Y0132830D01*
X0092005Y0132044D02*
X0057892Y0132044D01*
X0057892Y0131258D02*
X0091869Y0131258D01*
X0091869Y0130472D02*
X0057892Y0130472D01*
X0057892Y0129686D02*
X0092117Y0129686D01*
X0092481Y0128900D02*
X0057892Y0128900D01*
X0057892Y0128114D02*
X0093267Y0128114D01*
X0083055Y0119469D02*
X0111459Y0119469D01*
X0110673Y0118683D02*
X0081889Y0118683D01*
X0081889Y0117897D02*
X0106414Y0117897D01*
X0106414Y0117111D02*
X0083278Y0117111D01*
X0077940Y0117111D02*
X0075876Y0117111D01*
X0075627Y0117361D02*
X0070788Y0117361D01*
X0070206Y0116779D01*
X0070206Y0110444D01*
X0070788Y0109862D01*
X0075627Y0109862D01*
X0076209Y0110444D01*
X0076209Y0116779D01*
X0075627Y0117361D01*
X0076209Y0116326D02*
X0077607Y0116326D01*
X0077607Y0115540D02*
X0076209Y0115540D01*
X0076209Y0114754D02*
X0077607Y0114754D01*
X0077607Y0113968D02*
X0076209Y0113968D01*
X0076209Y0113182D02*
X0077607Y0113182D01*
X0077607Y0112396D02*
X0076209Y0112396D01*
X0076209Y0111610D02*
X0077607Y0111610D01*
X0077607Y0110824D02*
X0076209Y0110824D01*
X0075803Y0110038D02*
X0078013Y0110038D01*
X0079114Y0109252D02*
X0057892Y0109252D01*
X0057892Y0108466D02*
X0079114Y0108466D01*
X0080803Y0105323D02*
X0069709Y0105323D01*
X0070612Y0110038D02*
X0065869Y0110038D01*
X0066275Y0110824D02*
X0070206Y0110824D01*
X0070206Y0111610D02*
X0066275Y0111610D01*
X0066275Y0112396D02*
X0070206Y0112396D01*
X0070206Y0113182D02*
X0066275Y0113182D01*
X0066275Y0113968D02*
X0070206Y0113968D01*
X0070206Y0114754D02*
X0066275Y0114754D01*
X0066275Y0115540D02*
X0070206Y0115540D01*
X0070206Y0116326D02*
X0066275Y0116326D01*
X0065942Y0117111D02*
X0070538Y0117111D01*
X0070788Y0119442D02*
X0075627Y0119442D01*
X0076209Y0120024D01*
X0076209Y0126359D01*
X0075627Y0126941D01*
X0070788Y0126941D01*
X0070206Y0126359D01*
X0070206Y0124735D01*
X0070031Y0124735D01*
X0069708Y0125058D01*
X0067896Y0125058D01*
X0066615Y0123776D01*
X0066615Y0121964D01*
X0067896Y0120683D01*
X0069708Y0120683D01*
X0070173Y0121147D01*
X0070206Y0121147D01*
X0070206Y0120024D01*
X0070788Y0119442D01*
X0070761Y0119469D02*
X0065720Y0119469D01*
X0066275Y0120255D02*
X0070206Y0120255D01*
X0070206Y0121041D02*
X0070066Y0121041D01*
X0067538Y0121041D02*
X0066275Y0121041D01*
X0066275Y0121827D02*
X0066752Y0121827D01*
X0066615Y0122613D02*
X0066275Y0122613D01*
X0066275Y0123399D02*
X0066615Y0123399D01*
X0066275Y0124185D02*
X0067023Y0124185D01*
X0066275Y0124971D02*
X0067809Y0124971D01*
X0066275Y0125756D02*
X0070206Y0125756D01*
X0070206Y0124971D02*
X0069795Y0124971D01*
X0070389Y0126542D02*
X0066091Y0126542D01*
X0076025Y0126542D02*
X0077791Y0126542D01*
X0077607Y0125756D02*
X0076209Y0125756D01*
X0076209Y0124971D02*
X0077607Y0124971D01*
X0077607Y0124185D02*
X0076209Y0124185D01*
X0076209Y0123399D02*
X0077607Y0123399D01*
X0077607Y0122613D02*
X0076209Y0122613D01*
X0076209Y0121827D02*
X0077607Y0121827D01*
X0077607Y0121041D02*
X0076209Y0121041D01*
X0076209Y0120255D02*
X0077607Y0120255D01*
X0078162Y0119469D02*
X0075654Y0119469D01*
X0053505Y0118683D02*
X0040690Y0118683D01*
X0040690Y0117897D02*
X0053505Y0117897D01*
X0053202Y0117111D02*
X0040690Y0117111D01*
X0040690Y0116326D02*
X0052870Y0116326D01*
X0052870Y0115540D02*
X0040690Y0115540D01*
X0040573Y0114754D02*
X0052870Y0114754D01*
X0052870Y0113968D02*
X0020403Y0113968D01*
X0020402Y0113182D02*
X0052870Y0113182D01*
X0052870Y0112396D02*
X0020402Y0112396D01*
X0033172Y0114754D02*
X0034804Y0114754D01*
X0034687Y0115540D02*
X0033289Y0115540D01*
X0033289Y0116326D02*
X0034687Y0116326D01*
X0034687Y0117111D02*
X0033289Y0117111D01*
X0033289Y0117897D02*
X0034687Y0117897D01*
X0034687Y0118683D02*
X0033289Y0118683D01*
X0033289Y0119469D02*
X0034687Y0119469D01*
X0034687Y0120255D02*
X0033289Y0120255D01*
X0033289Y0121041D02*
X0034687Y0121041D01*
X0038572Y0119398D02*
X0038572Y0126484D01*
X0039960Y0123399D02*
X0052870Y0123399D01*
X0052870Y0124185D02*
X0042220Y0124185D01*
X0042761Y0124971D02*
X0052870Y0124971D01*
X0052870Y0125756D02*
X0042761Y0125756D01*
X0042761Y0126542D02*
X0053053Y0126542D01*
X0053505Y0127328D02*
X0042761Y0127328D01*
X0042761Y0128114D02*
X0053505Y0128114D01*
X0053505Y0128900D02*
X0042761Y0128900D01*
X0042761Y0129686D02*
X0053505Y0129686D01*
X0053505Y0130472D02*
X0042761Y0130472D01*
X0043337Y0137545D02*
X0053505Y0137545D01*
X0053505Y0138331D02*
X0044875Y0138331D01*
X0045661Y0139117D02*
X0053505Y0139117D01*
X0057892Y0139117D02*
X0076717Y0139117D01*
X0076293Y0139903D02*
X0068085Y0139903D01*
X0068871Y0140689D02*
X0075968Y0140689D01*
X0075895Y0141475D02*
X0069657Y0141475D01*
X0070294Y0142261D02*
X0075895Y0142261D01*
X0076092Y0143047D02*
X0070294Y0143047D01*
X0070294Y0143832D02*
X0076418Y0143832D01*
X0077018Y0144618D02*
X0070294Y0144618D01*
X0070294Y0145404D02*
X0077870Y0145404D01*
X0080957Y0146190D02*
X0070294Y0146190D01*
X0070294Y0146976D02*
X0081743Y0146976D01*
X0082529Y0147762D02*
X0070294Y0147762D01*
X0070294Y0148548D02*
X0083486Y0148548D01*
X0085149Y0143047D02*
X0109123Y0143047D01*
X0109355Y0142261D02*
X0084483Y0142261D01*
X0084085Y0139903D02*
X0109643Y0139903D01*
X0109118Y0139117D02*
X0083661Y0139117D01*
X0082875Y0138331D02*
X0109118Y0138331D01*
X0109118Y0137545D02*
X0081337Y0137545D01*
X0079041Y0137545D02*
X0057892Y0137545D01*
X0057892Y0136759D02*
X0109118Y0136759D01*
X0109118Y0135973D02*
X0057892Y0135973D01*
X0057892Y0138331D02*
X0077503Y0138331D01*
X0065906Y0144618D02*
X0054971Y0144618D01*
X0052721Y0144618D02*
X0045360Y0144618D01*
X0044508Y0145404D02*
X0051935Y0145404D01*
X0051658Y0146190D02*
X0020426Y0146190D01*
X0036840Y0149334D02*
X0058445Y0149334D01*
X0058445Y0148548D02*
X0054978Y0148548D01*
X0057506Y0150120D02*
X0036840Y0150120D01*
X0036839Y0150906D02*
X0057284Y0150906D01*
X0057284Y0151692D02*
X0036839Y0151692D01*
X0059454Y0145404D02*
X0065906Y0145404D01*
X0065906Y0146190D02*
X0060240Y0146190D01*
X0061026Y0146976D02*
X0065906Y0146976D01*
X0065906Y0147762D02*
X0061220Y0147762D01*
X0061220Y0148548D02*
X0065906Y0148548D01*
X0065906Y0149334D02*
X0061220Y0149334D01*
X0063066Y0150120D02*
X0064907Y0150120D01*
X0064686Y0150906D02*
X0063288Y0150906D01*
X0063288Y0151692D02*
X0064686Y0151692D01*
X0064686Y0152478D02*
X0063288Y0152478D01*
X0063288Y0153263D02*
X0064686Y0153263D01*
X0064686Y0154049D02*
X0063288Y0154049D01*
X0063288Y0154835D02*
X0064686Y0154835D01*
X0064686Y0155621D02*
X0063288Y0155621D01*
X0063288Y0156407D02*
X0064686Y0156407D01*
X0065203Y0157193D02*
X0062771Y0157193D01*
X0070172Y0157193D02*
X0203462Y0157193D01*
X0202945Y0156407D02*
X0070689Y0156407D01*
X0070294Y0149334D02*
X0109215Y0149334D01*
X0148620Y0146976D02*
X0156473Y0146976D01*
X0156155Y0147762D02*
X0148944Y0147762D01*
X0148944Y0152478D02*
X0156500Y0152478D01*
X0163310Y0152478D02*
X0165960Y0152478D01*
X0165615Y0147762D02*
X0163655Y0147762D01*
X0163337Y0146976D02*
X0165933Y0146976D01*
X0165615Y0144618D02*
X0163655Y0144618D01*
X0163655Y0143832D02*
X0165615Y0143832D01*
X0165615Y0143047D02*
X0163655Y0143047D01*
X0163655Y0142261D02*
X0165615Y0142261D01*
X0165615Y0141475D02*
X0163655Y0141475D01*
X0163655Y0140689D02*
X0165615Y0140689D01*
X0165615Y0139903D02*
X0163655Y0139903D01*
X0165135Y0134402D02*
X0167172Y0134402D01*
X0167129Y0133616D02*
X0165178Y0133616D01*
X0165178Y0132830D02*
X0167129Y0132830D01*
X0167129Y0132044D02*
X0165178Y0132044D01*
X0165178Y0131258D02*
X0167129Y0131258D01*
X0167129Y0130472D02*
X0165178Y0130472D01*
X0165178Y0129686D02*
X0167129Y0129686D01*
X0167129Y0128900D02*
X0165178Y0128900D01*
X0165178Y0128114D02*
X0167129Y0128114D01*
X0167129Y0127328D02*
X0165178Y0127328D01*
X0165178Y0126542D02*
X0167129Y0126542D01*
X0167129Y0125756D02*
X0165178Y0125756D01*
X0165178Y0124971D02*
X0167129Y0124971D01*
X0165693Y0123399D02*
X0184555Y0123399D01*
X0185341Y0124185D02*
X0165025Y0124185D01*
X0166361Y0122613D02*
X0183769Y0122613D01*
X0182983Y0121827D02*
X0167029Y0121827D01*
X0167696Y0121041D02*
X0182198Y0121041D01*
X0181412Y0120255D02*
X0168364Y0120255D01*
X0169032Y0119469D02*
X0181221Y0119469D01*
X0181221Y0118683D02*
X0169700Y0118683D01*
X0170368Y0117897D02*
X0181221Y0117897D01*
X0181221Y0117111D02*
X0172639Y0117111D01*
X0172988Y0116326D02*
X0181221Y0116326D01*
X0184209Y0116326D02*
X0232802Y0116326D01*
X0233588Y0115540D02*
X0203670Y0115540D01*
X0203965Y0114754D02*
X0234374Y0114754D01*
X0235160Y0113968D02*
X0203965Y0113968D01*
X0207086Y0110038D02*
X0195461Y0110038D01*
X0195482Y0108466D02*
X0207086Y0108466D01*
X0207086Y0107680D02*
X0206518Y0107680D01*
X0207304Y0106895D02*
X0232160Y0106895D01*
X0232160Y0107680D02*
X0212622Y0107680D01*
X0212622Y0108466D02*
X0232153Y0108466D01*
X0231367Y0109252D02*
X0212622Y0109252D01*
X0212622Y0110038D02*
X0230581Y0110038D01*
X0232448Y0112396D02*
X0259243Y0112396D01*
X0259243Y0113182D02*
X0231663Y0113182D01*
X0233234Y0111610D02*
X0259242Y0111610D01*
X0259242Y0110824D02*
X0250518Y0110824D01*
X0251304Y0110038D02*
X0259241Y0110038D01*
X0259240Y0109252D02*
X0251922Y0109252D01*
X0251922Y0108466D02*
X0259240Y0108466D01*
X0259239Y0107680D02*
X0251922Y0107680D01*
X0251922Y0106895D02*
X0259239Y0106895D01*
X0259238Y0106109D02*
X0251922Y0106109D01*
X0251922Y0105323D02*
X0259237Y0105323D01*
X0259237Y0104537D02*
X0251922Y0104537D01*
X0251922Y0103751D02*
X0259236Y0103751D01*
X0259236Y0102965D02*
X0251922Y0102965D01*
X0251922Y0102179D02*
X0259235Y0102179D01*
X0259234Y0101393D02*
X0251922Y0101393D01*
X0251922Y0100607D02*
X0259234Y0100607D01*
X0259233Y0099821D02*
X0251922Y0099821D01*
X0248934Y0099821D02*
X0193039Y0099821D01*
X0193039Y0100607D02*
X0248934Y0100607D01*
X0248934Y0101393D02*
X0193039Y0101393D01*
X0193039Y0102179D02*
X0234108Y0102179D01*
X0233322Y0102965D02*
X0195789Y0102965D01*
X0192294Y0099035D02*
X0248934Y0099035D01*
X0248934Y0098250D02*
X0191508Y0098250D01*
X0190722Y0097464D02*
X0248934Y0097464D01*
X0248934Y0096678D02*
X0189937Y0096678D01*
X0189151Y0095892D02*
X0248934Y0095892D01*
X0248934Y0095106D02*
X0188365Y0095106D01*
X0187579Y0094320D02*
X0248934Y0094320D01*
X0248934Y0093534D02*
X0186793Y0093534D01*
X0186007Y0092748D02*
X0248934Y0092748D01*
X0248934Y0091962D02*
X0193750Y0091962D01*
X0193986Y0091176D02*
X0248934Y0091176D01*
X0248934Y0090390D02*
X0193986Y0090390D01*
X0193986Y0089604D02*
X0248934Y0089604D01*
X0248934Y0088819D02*
X0193986Y0088819D01*
X0193986Y0088033D02*
X0248934Y0088033D01*
X0248395Y0087247D02*
X0193986Y0087247D01*
X0193986Y0086461D02*
X0247609Y0086461D01*
X0246823Y0085675D02*
X0193986Y0085675D01*
X0193892Y0082228D02*
X0247602Y0082228D01*
X0248477Y0083103D01*
X0251651Y0086278D01*
X0251651Y0084219D01*
X0252233Y0083637D01*
X0259221Y0083637D01*
X0259188Y0040648D01*
X0252209Y0040648D01*
X0251627Y0040066D01*
X0251627Y0033330D01*
X0252209Y0032748D01*
X0259182Y0032748D01*
X0259182Y0032385D01*
X0239205Y0032519D01*
X0238209Y0031537D01*
X0238209Y0031489D01*
X0238205Y0031486D01*
X0238206Y0031060D01*
X0238200Y0030137D01*
X0238206Y0030131D01*
X0238214Y0018857D01*
X0194119Y0018863D01*
X0194119Y0026429D01*
X0193537Y0027011D01*
X0189367Y0027011D01*
X0188785Y0026429D01*
X0188785Y0018519D01*
X0189367Y0017937D01*
X0190952Y0017937D01*
X0190889Y0017874D01*
X0190889Y0017869D01*
X0190888Y0017868D01*
X0190888Y0012940D01*
X0186963Y0012939D01*
X0186963Y0019576D01*
X0186381Y0020158D01*
X0183196Y0020158D01*
X0182820Y0019782D01*
X0182444Y0020158D01*
X0179259Y0020158D01*
X0178883Y0019782D01*
X0178507Y0020158D01*
X0175322Y0020158D01*
X0174946Y0019782D01*
X0174570Y0020158D01*
X0171385Y0020158D01*
X0171009Y0019782D01*
X0170633Y0020158D01*
X0170348Y0020158D01*
X0170350Y0027205D01*
X0171155Y0028010D01*
X0171155Y0029822D01*
X0170827Y0030150D01*
X0178765Y0030150D01*
X0178765Y0029285D01*
X0180046Y0028003D01*
X0181858Y0028003D01*
X0183140Y0029285D01*
X0183140Y0031097D01*
X0182601Y0031635D01*
X0186216Y0031635D01*
X0186981Y0030870D01*
X0188794Y0030870D01*
X0190075Y0032151D01*
X0190075Y0033963D01*
X0188794Y0035244D01*
X0186981Y0035244D01*
X0186964Y0035227D01*
X0186964Y0042014D01*
X0186382Y0042596D01*
X0183197Y0042596D01*
X0182821Y0042220D01*
X0182445Y0042596D01*
X0181487Y0042596D01*
X0175786Y0048296D01*
X0175786Y0062377D01*
X0174974Y0063190D01*
X0171764Y0066400D01*
X0177992Y0066400D01*
X0176895Y0065303D01*
X0176895Y0063491D01*
X0178176Y0062210D01*
X0179989Y0062210D01*
X0180581Y0062802D01*
X0180581Y0059981D01*
X0180423Y0059981D01*
X0179610Y0059169D01*
X0178590Y0058149D01*
X0177459Y0058149D01*
X0176177Y0056868D01*
X0176177Y0055055D01*
X0177459Y0053774D01*
X0179271Y0053774D01*
X0180552Y0055055D01*
X0180552Y0056187D01*
X0180853Y0056488D01*
X0181163Y0056177D01*
X0185889Y0056177D01*
X0185889Y0054097D01*
X0181163Y0054097D01*
X0180581Y0053515D01*
X0180581Y0047180D01*
X0181163Y0046597D01*
X0186002Y0046597D01*
X0186584Y0047180D01*
X0186584Y0048402D01*
X0187851Y0049668D01*
X0187983Y0049800D01*
X0187983Y0047180D01*
X0188565Y0046597D01*
X0193404Y0046597D01*
X0193986Y0047180D01*
X0193986Y0053515D01*
X0193404Y0054097D01*
X0192649Y0054097D01*
X0192649Y0056177D01*
X0193404Y0056177D01*
X0193986Y0056760D01*
X0193986Y0063095D01*
X0193404Y0063677D01*
X0192649Y0063677D01*
X0192649Y0065637D01*
X0193404Y0065637D01*
X0193986Y0066220D01*
X0193986Y0072555D01*
X0193404Y0073137D01*
X0192649Y0073137D01*
X0192649Y0075217D01*
X0193404Y0075217D01*
X0193986Y0075799D01*
X0193986Y0077531D01*
X0194412Y0077531D01*
X0195030Y0076914D01*
X0196842Y0076914D01*
X0198123Y0078195D01*
X0198123Y0080007D01*
X0196842Y0081289D01*
X0195030Y0081289D01*
X0194460Y0080719D01*
X0193986Y0080719D01*
X0193986Y0082134D01*
X0193892Y0082228D01*
X0193986Y0081745D02*
X0236360Y0081745D01*
X0236490Y0081875D02*
X0236109Y0081494D01*
X0226582Y0081494D01*
X0223283Y0078196D01*
X0222471Y0077383D01*
X0222471Y0059911D01*
X0221664Y0059104D01*
X0221664Y0057292D01*
X0222945Y0056011D01*
X0224757Y0056011D01*
X0226039Y0057292D01*
X0226039Y0059104D01*
X0225245Y0059897D01*
X0225245Y0061029D01*
X0226500Y0059775D01*
X0228312Y0059775D01*
X0229093Y0060556D01*
X0235991Y0060556D01*
X0236486Y0060061D01*
X0249115Y0060061D01*
X0249697Y0060643D01*
X0249697Y0063438D01*
X0249115Y0064020D01*
X0236486Y0064020D01*
X0235904Y0063438D01*
X0235904Y0063331D01*
X0229131Y0063331D01*
X0228312Y0064150D01*
X0226500Y0064150D01*
X0225245Y0062896D01*
X0225245Y0073037D01*
X0226500Y0071782D01*
X0228312Y0071782D01*
X0229123Y0072594D01*
X0235899Y0072594D01*
X0235899Y0072523D01*
X0236481Y0071940D01*
X0249110Y0071940D01*
X0249692Y0072523D01*
X0249692Y0075318D01*
X0249110Y0075900D01*
X0236481Y0075900D01*
X0235951Y0075369D01*
X0229100Y0075369D01*
X0228312Y0076157D01*
X0226500Y0076157D01*
X0225245Y0074903D01*
X0225245Y0076234D01*
X0227731Y0078720D01*
X0235908Y0078720D01*
X0235908Y0078498D01*
X0236490Y0077916D01*
X0249119Y0077916D01*
X0249701Y0078498D01*
X0249701Y0081293D01*
X0249119Y0081875D01*
X0236490Y0081875D01*
X0237776Y0080107D02*
X0227157Y0080107D01*
X0223858Y0076808D01*
X0223858Y0058838D01*
X0225403Y0059740D02*
X0259203Y0059740D01*
X0259203Y0060526D02*
X0249580Y0060526D01*
X0249697Y0061312D02*
X0259204Y0061312D01*
X0259205Y0062098D02*
X0249697Y0062098D01*
X0249697Y0062883D02*
X0259205Y0062883D01*
X0259206Y0063669D02*
X0249466Y0063669D01*
X0249124Y0066036D02*
X0249706Y0066619D01*
X0249706Y0069414D01*
X0249124Y0069996D01*
X0236495Y0069996D01*
X0236061Y0069562D01*
X0232571Y0069562D01*
X0231797Y0070336D01*
X0229985Y0070336D01*
X0228703Y0069055D01*
X0228703Y0067243D01*
X0229985Y0065962D01*
X0231797Y0065962D01*
X0232622Y0066787D01*
X0235913Y0066787D01*
X0235913Y0066619D01*
X0236495Y0066036D01*
X0249124Y0066036D01*
X0249706Y0066813D02*
X0259208Y0066813D01*
X0259209Y0067599D02*
X0249706Y0067599D01*
X0249706Y0068385D02*
X0259209Y0068385D01*
X0259210Y0069171D02*
X0249706Y0069171D01*
X0249163Y0069957D02*
X0259211Y0069957D01*
X0259211Y0070743D02*
X0225245Y0070743D01*
X0225245Y0071528D02*
X0259212Y0071528D01*
X0259212Y0072314D02*
X0249484Y0072314D01*
X0249692Y0073100D02*
X0259213Y0073100D01*
X0259213Y0073886D02*
X0249692Y0073886D01*
X0249692Y0074672D02*
X0259214Y0074672D01*
X0259215Y0075458D02*
X0249552Y0075458D01*
X0249701Y0078602D02*
X0259217Y0078602D01*
X0259218Y0079388D02*
X0249701Y0079388D01*
X0249701Y0080174D02*
X0259218Y0080174D01*
X0259219Y0080959D02*
X0249701Y0080959D01*
X0249249Y0081745D02*
X0259219Y0081745D01*
X0259220Y0082531D02*
X0247905Y0082531D01*
X0248690Y0083317D02*
X0259221Y0083317D01*
X0259216Y0077816D02*
X0226828Y0077816D01*
X0227613Y0078602D02*
X0235908Y0078602D01*
X0236040Y0075458D02*
X0229011Y0075458D01*
X0227405Y0073981D02*
X0240000Y0073981D01*
X0236108Y0072314D02*
X0228844Y0072314D01*
X0229605Y0069957D02*
X0225245Y0069957D01*
X0225245Y0069171D02*
X0228819Y0069171D01*
X0228703Y0068385D02*
X0225245Y0068385D01*
X0225245Y0067599D02*
X0228703Y0067599D01*
X0229133Y0066813D02*
X0225245Y0066813D01*
X0225245Y0066027D02*
X0229919Y0066027D01*
X0231862Y0066027D02*
X0259208Y0066027D01*
X0259207Y0065241D02*
X0225245Y0065241D01*
X0225245Y0064455D02*
X0259206Y0064455D01*
X0259202Y0058954D02*
X0226039Y0058954D01*
X0226039Y0058168D02*
X0259202Y0058168D01*
X0259201Y0057382D02*
X0249682Y0057382D01*
X0249682Y0057576D02*
X0249100Y0058158D01*
X0236471Y0058158D01*
X0235889Y0057576D01*
X0235889Y0054780D01*
X0236471Y0054198D01*
X0249100Y0054198D01*
X0249682Y0054780D01*
X0249682Y0057576D01*
X0249682Y0056596D02*
X0259200Y0056596D01*
X0259200Y0055810D02*
X0249682Y0055810D01*
X0249682Y0055024D02*
X0259199Y0055024D01*
X0259199Y0054238D02*
X0249140Y0054238D01*
X0249091Y0052182D02*
X0236463Y0052182D01*
X0235880Y0051600D01*
X0235880Y0051546D01*
X0222958Y0051546D01*
X0221157Y0053346D01*
X0221157Y0069531D01*
X0221938Y0070312D01*
X0221938Y0072124D01*
X0220657Y0073405D01*
X0218845Y0073405D01*
X0218148Y0072708D01*
X0218148Y0072742D01*
X0218888Y0073483D01*
X0218888Y0075295D01*
X0217606Y0076576D01*
X0215794Y0076576D01*
X0214513Y0075295D01*
X0214513Y0073483D01*
X0215373Y0072623D01*
X0215373Y0050478D01*
X0216186Y0049665D01*
X0222943Y0042908D01*
X0235950Y0042908D01*
X0236458Y0042399D01*
X0249087Y0042399D01*
X0249669Y0042981D01*
X0249669Y0045777D01*
X0249087Y0046359D01*
X0236458Y0046359D01*
X0235876Y0045777D01*
X0235876Y0045682D01*
X0224092Y0045682D01*
X0218148Y0051627D01*
X0218148Y0069727D01*
X0218383Y0069492D01*
X0218383Y0052196D01*
X0219195Y0051384D01*
X0221808Y0048771D01*
X0235915Y0048771D01*
X0236463Y0048223D01*
X0249091Y0048223D01*
X0249673Y0048805D01*
X0249673Y0051600D01*
X0249091Y0052182D01*
X0249393Y0051881D02*
X0259197Y0051881D01*
X0259197Y0052667D02*
X0221837Y0052667D01*
X0221157Y0053452D02*
X0259198Y0053452D01*
X0259196Y0051095D02*
X0249673Y0051095D01*
X0249673Y0050309D02*
X0259196Y0050309D01*
X0259195Y0049523D02*
X0249673Y0049523D01*
X0249605Y0048737D02*
X0259194Y0048737D01*
X0259194Y0047951D02*
X0221824Y0047951D01*
X0222609Y0047165D02*
X0259193Y0047165D01*
X0259193Y0046379D02*
X0223395Y0046379D01*
X0223518Y0044295D02*
X0216760Y0051052D01*
X0216760Y0074568D01*
X0217938Y0076244D02*
X0222471Y0076244D01*
X0222471Y0077030D02*
X0196958Y0077030D01*
X0197744Y0077816D02*
X0222903Y0077816D01*
X0223689Y0078602D02*
X0198123Y0078602D01*
X0198123Y0079388D02*
X0224475Y0079388D01*
X0225261Y0080174D02*
X0197957Y0080174D01*
X0197171Y0080959D02*
X0226047Y0080959D01*
X0226042Y0077030D02*
X0259216Y0077030D01*
X0259215Y0076244D02*
X0225256Y0076244D01*
X0225245Y0075458D02*
X0225801Y0075458D01*
X0222471Y0075458D02*
X0218724Y0075458D01*
X0218888Y0074672D02*
X0222471Y0074672D01*
X0222471Y0073886D02*
X0218888Y0073886D01*
X0218540Y0073100D02*
X0218506Y0073100D01*
X0219770Y0071220D02*
X0219770Y0052771D01*
X0222383Y0050158D01*
X0238051Y0050158D01*
X0235948Y0048737D02*
X0221038Y0048737D01*
X0221056Y0049523D02*
X0220252Y0049523D01*
X0220270Y0050309D02*
X0219466Y0050309D01*
X0219484Y0051095D02*
X0218680Y0051095D01*
X0218698Y0051881D02*
X0218148Y0051881D01*
X0218148Y0052667D02*
X0218383Y0052667D01*
X0218383Y0053452D02*
X0218148Y0053452D01*
X0218148Y0054238D02*
X0218383Y0054238D01*
X0218383Y0055024D02*
X0218148Y0055024D01*
X0218148Y0055810D02*
X0218383Y0055810D01*
X0218383Y0056596D02*
X0218148Y0056596D01*
X0218148Y0057382D02*
X0218383Y0057382D01*
X0218383Y0058168D02*
X0218148Y0058168D01*
X0218148Y0058954D02*
X0218383Y0058954D01*
X0218383Y0059740D02*
X0218148Y0059740D01*
X0218148Y0060526D02*
X0218383Y0060526D01*
X0218383Y0061312D02*
X0218148Y0061312D01*
X0218148Y0062098D02*
X0218383Y0062098D01*
X0218383Y0062883D02*
X0218148Y0062883D01*
X0218148Y0063669D02*
X0218383Y0063669D01*
X0218383Y0064455D02*
X0218148Y0064455D01*
X0218148Y0065241D02*
X0218383Y0065241D01*
X0218383Y0066027D02*
X0218148Y0066027D01*
X0218148Y0066813D02*
X0218383Y0066813D01*
X0218383Y0067599D02*
X0218148Y0067599D01*
X0218148Y0068385D02*
X0218383Y0068385D01*
X0218383Y0069171D02*
X0218148Y0069171D01*
X0215373Y0069171D02*
X0193986Y0069171D01*
X0193986Y0069957D02*
X0215373Y0069957D01*
X0215373Y0070743D02*
X0193986Y0070743D01*
X0193986Y0071528D02*
X0215373Y0071528D01*
X0215373Y0072314D02*
X0193986Y0072314D01*
X0193440Y0073100D02*
X0214895Y0073100D01*
X0214513Y0073886D02*
X0192649Y0073886D01*
X0192649Y0074672D02*
X0214513Y0074672D01*
X0214677Y0075458D02*
X0193644Y0075458D01*
X0193986Y0076244D02*
X0215462Y0076244D01*
X0220961Y0073100D02*
X0222471Y0073100D01*
X0222471Y0072314D02*
X0221747Y0072314D01*
X0221938Y0071528D02*
X0222471Y0071528D01*
X0222471Y0070743D02*
X0221938Y0070743D01*
X0221583Y0069957D02*
X0222471Y0069957D01*
X0222471Y0069171D02*
X0221157Y0069171D01*
X0221157Y0068385D02*
X0222471Y0068385D01*
X0222471Y0067599D02*
X0221157Y0067599D01*
X0221157Y0066813D02*
X0222471Y0066813D01*
X0222471Y0066027D02*
X0221157Y0066027D01*
X0221157Y0065241D02*
X0222471Y0065241D01*
X0222471Y0064455D02*
X0221157Y0064455D01*
X0221157Y0063669D02*
X0222471Y0063669D01*
X0222471Y0062883D02*
X0221157Y0062883D01*
X0221157Y0062098D02*
X0222471Y0062098D01*
X0222471Y0061312D02*
X0221157Y0061312D01*
X0221157Y0060526D02*
X0222471Y0060526D01*
X0222299Y0059740D02*
X0221157Y0059740D01*
X0221157Y0058954D02*
X0221664Y0058954D01*
X0221664Y0058168D02*
X0221157Y0058168D01*
X0221157Y0057382D02*
X0221664Y0057382D01*
X0221157Y0056596D02*
X0222360Y0056596D01*
X0221157Y0055810D02*
X0235889Y0055810D01*
X0235889Y0055024D02*
X0221157Y0055024D01*
X0221157Y0054238D02*
X0236431Y0054238D01*
X0236161Y0051881D02*
X0222622Y0051881D01*
X0225343Y0056596D02*
X0235889Y0056596D01*
X0235889Y0057382D02*
X0226039Y0057382D01*
X0225749Y0060526D02*
X0225245Y0060526D01*
X0227404Y0061944D02*
X0238654Y0061944D01*
X0236022Y0060526D02*
X0229062Y0060526D01*
X0228792Y0063669D02*
X0236135Y0063669D01*
X0240350Y0068174D02*
X0230881Y0068174D01*
X0232177Y0069957D02*
X0236456Y0069957D01*
X0225968Y0072314D02*
X0225245Y0072314D01*
X0215373Y0068385D02*
X0193986Y0068385D01*
X0193986Y0067599D02*
X0215373Y0067599D01*
X0215373Y0066813D02*
X0193986Y0066813D01*
X0193793Y0066027D02*
X0215373Y0066027D01*
X0215373Y0065241D02*
X0192649Y0065241D01*
X0192649Y0064455D02*
X0215373Y0064455D01*
X0215373Y0063669D02*
X0193411Y0063669D01*
X0193986Y0062883D02*
X0215373Y0062883D01*
X0215373Y0062098D02*
X0193986Y0062098D01*
X0193986Y0061312D02*
X0215373Y0061312D01*
X0215373Y0060526D02*
X0193986Y0060526D01*
X0193986Y0059740D02*
X0215373Y0059740D01*
X0215373Y0058954D02*
X0193986Y0058954D01*
X0193986Y0058168D02*
X0215373Y0058168D01*
X0215373Y0057382D02*
X0193986Y0057382D01*
X0193822Y0056596D02*
X0215373Y0056596D01*
X0215373Y0055810D02*
X0192649Y0055810D01*
X0192649Y0055024D02*
X0215373Y0055024D01*
X0215373Y0054238D02*
X0192649Y0054238D01*
X0193986Y0053452D02*
X0215373Y0053452D01*
X0215373Y0052667D02*
X0193986Y0052667D01*
X0193986Y0051881D02*
X0215373Y0051881D01*
X0215373Y0051095D02*
X0193986Y0051095D01*
X0193986Y0050309D02*
X0215542Y0050309D01*
X0216328Y0049523D02*
X0193986Y0049523D01*
X0193986Y0048737D02*
X0217114Y0048737D01*
X0217899Y0047951D02*
X0193986Y0047951D01*
X0193971Y0047165D02*
X0218685Y0047165D01*
X0219471Y0046379D02*
X0177703Y0046379D01*
X0178489Y0045593D02*
X0220257Y0045593D01*
X0221043Y0044807D02*
X0179275Y0044807D01*
X0180061Y0044022D02*
X0221829Y0044022D01*
X0222615Y0043236D02*
X0218559Y0043236D01*
X0218550Y0043245D02*
X0217099Y0043846D01*
X0215529Y0043846D01*
X0214079Y0043245D01*
X0212968Y0042135D01*
X0212368Y0040684D01*
X0212368Y0039114D01*
X0212968Y0037664D01*
X0214079Y0036553D01*
X0215529Y0035953D01*
X0217099Y0035953D01*
X0218550Y0036553D01*
X0219660Y0037664D01*
X0220261Y0039114D01*
X0220261Y0040684D01*
X0219660Y0042135D01*
X0218550Y0043245D01*
X0219345Y0042450D02*
X0236408Y0042450D01*
X0237932Y0044295D02*
X0223518Y0044295D01*
X0219855Y0041664D02*
X0259189Y0041664D01*
X0259190Y0042450D02*
X0249137Y0042450D01*
X0249669Y0043236D02*
X0259190Y0043236D01*
X0259191Y0044022D02*
X0249669Y0044022D01*
X0249669Y0044807D02*
X0259191Y0044807D01*
X0259192Y0045593D02*
X0249669Y0045593D01*
X0251653Y0040092D02*
X0220261Y0040092D01*
X0220261Y0039306D02*
X0251627Y0039306D01*
X0251627Y0038520D02*
X0220015Y0038520D01*
X0219689Y0037734D02*
X0251627Y0037734D01*
X0251627Y0036948D02*
X0218944Y0036948D01*
X0217605Y0036162D02*
X0251627Y0036162D01*
X0251627Y0035376D02*
X0186964Y0035376D01*
X0186964Y0036162D02*
X0215023Y0036162D01*
X0213684Y0036948D02*
X0186964Y0036948D01*
X0186964Y0037734D02*
X0212939Y0037734D01*
X0212614Y0038520D02*
X0186964Y0038520D01*
X0186964Y0039306D02*
X0212368Y0039306D01*
X0212368Y0040092D02*
X0186964Y0040092D01*
X0186964Y0040878D02*
X0212448Y0040878D01*
X0212773Y0041664D02*
X0186964Y0041664D01*
X0186528Y0042450D02*
X0213284Y0042450D01*
X0214069Y0043236D02*
X0180847Y0043236D01*
X0182591Y0042450D02*
X0183051Y0042450D01*
X0181056Y0041064D02*
X0174399Y0047721D01*
X0174399Y0061803D01*
X0164036Y0072166D01*
X0160226Y0072166D01*
X0160351Y0070268D02*
X0163488Y0070268D01*
X0172660Y0061096D01*
X0172660Y0045685D01*
X0177095Y0041250D01*
X0173308Y0041450D02*
X0170816Y0043941D01*
X0170816Y0060598D01*
X0163090Y0068324D01*
X0160201Y0068324D01*
X0160002Y0066280D02*
X0162691Y0066280D01*
X0168972Y0059999D01*
X0168972Y0040552D01*
X0167585Y0042596D02*
X0167449Y0042596D01*
X0167073Y0042220D01*
X0166697Y0042596D01*
X0166543Y0042596D01*
X0166543Y0043614D01*
X0165730Y0044426D01*
X0160919Y0049237D01*
X0153670Y0049237D01*
X0153670Y0050675D01*
X0152857Y0051488D01*
X0151455Y0052890D01*
X0151455Y0055048D01*
X0151533Y0055126D01*
X0151533Y0060279D01*
X0154977Y0056835D01*
X0156127Y0056835D01*
X0158829Y0056835D01*
X0159653Y0056011D01*
X0161465Y0056011D01*
X0162746Y0057292D01*
X0162746Y0059104D01*
X0161465Y0060385D01*
X0159996Y0060385D01*
X0159996Y0060811D01*
X0161267Y0060811D01*
X0162549Y0062092D01*
X0162549Y0063904D01*
X0161561Y0064892D01*
X0162116Y0064892D01*
X0167585Y0059424D01*
X0167585Y0042596D01*
X0167303Y0042450D02*
X0166843Y0042450D01*
X0166543Y0043236D02*
X0167585Y0043236D01*
X0167585Y0044022D02*
X0166135Y0044022D01*
X0165349Y0044807D02*
X0167585Y0044807D01*
X0167585Y0045593D02*
X0164563Y0045593D01*
X0163777Y0046379D02*
X0167585Y0046379D01*
X0167585Y0047165D02*
X0162991Y0047165D01*
X0162205Y0047951D02*
X0167585Y0047951D01*
X0167585Y0048737D02*
X0161420Y0048737D01*
X0160345Y0047850D02*
X0165156Y0043039D01*
X0165156Y0040546D01*
X0161141Y0040719D02*
X0161141Y0043039D01*
X0157853Y0046327D01*
X0151902Y0046327D01*
X0150864Y0047365D01*
X0150864Y0049304D01*
X0148130Y0052038D01*
X0148130Y0056227D01*
X0150068Y0056365D02*
X0150068Y0052315D01*
X0152282Y0050100D01*
X0152282Y0048473D01*
X0152905Y0047850D01*
X0160345Y0047850D01*
X0157300Y0042727D02*
X0155189Y0044839D01*
X0150760Y0044839D01*
X0149272Y0046327D01*
X0149272Y0048577D01*
X0145119Y0052731D01*
X0141763Y0052731D01*
X0140205Y0054288D01*
X0140205Y0056157D01*
X0138267Y0056157D02*
X0138267Y0053768D01*
X0140724Y0051311D01*
X0144218Y0051311D01*
X0147784Y0047746D01*
X0147784Y0045807D01*
X0150102Y0043489D01*
X0152248Y0043489D01*
X0153251Y0042485D01*
X0153251Y0041066D01*
X0149487Y0041554D02*
X0148195Y0042846D01*
X0137775Y0042846D01*
X0137128Y0043493D01*
X0137128Y0050375D01*
X0134337Y0053166D01*
X0134337Y0056308D01*
X0136265Y0056414D02*
X0136265Y0053674D01*
X0139898Y0050041D01*
X0139898Y0048454D01*
X0132393Y0049028D02*
X0132393Y0056657D01*
X0126463Y0056707D02*
X0126463Y0050073D01*
X0121978Y0045588D01*
X0121978Y0040203D01*
X0120059Y0042450D02*
X0119599Y0042450D01*
X0120590Y0043236D02*
X0115375Y0043236D01*
X0115380Y0044022D02*
X0120590Y0044022D01*
X0120590Y0044807D02*
X0114769Y0044807D01*
X0113977Y0045593D02*
X0120590Y0045593D01*
X0120807Y0046379D02*
X0113191Y0046379D01*
X0112521Y0047165D02*
X0121593Y0047165D01*
X0122379Y0047951D02*
X0112521Y0047951D01*
X0111924Y0048737D02*
X0123165Y0048737D01*
X0123951Y0049523D02*
X0065157Y0049523D01*
X0065157Y0050309D02*
X0124737Y0050309D01*
X0125076Y0051095D02*
X0065157Y0051095D01*
X0065157Y0051881D02*
X0125076Y0051881D01*
X0125076Y0052667D02*
X0065157Y0052667D01*
X0065157Y0053452D02*
X0125076Y0053452D01*
X0125076Y0054238D02*
X0065157Y0054238D01*
X0065157Y0055024D02*
X0119136Y0055024D01*
X0119034Y0055810D02*
X0065157Y0055810D01*
X0065157Y0056596D02*
X0076003Y0056596D01*
X0076003Y0056577D02*
X0076585Y0055995D01*
X0082920Y0055995D01*
X0083502Y0056577D01*
X0083502Y0057774D01*
X0084478Y0057774D01*
X0084478Y0056577D01*
X0085060Y0055995D01*
X0091395Y0055995D01*
X0091977Y0056577D01*
X0091977Y0061416D01*
X0091395Y0061998D01*
X0085060Y0061998D01*
X0084478Y0061416D01*
X0084478Y0060549D01*
X0083502Y0060549D01*
X0083502Y0061416D01*
X0082920Y0061998D01*
X0076585Y0061998D01*
X0076003Y0061416D01*
X0076003Y0060549D01*
X0074782Y0060549D01*
X0074782Y0061460D01*
X0074200Y0062042D01*
X0069828Y0062042D01*
X0069246Y0061460D01*
X0069246Y0057563D01*
X0069828Y0056981D01*
X0074200Y0056981D01*
X0074782Y0057563D01*
X0074782Y0057774D01*
X0076003Y0057774D01*
X0076003Y0056577D01*
X0076003Y0057382D02*
X0074601Y0057382D01*
X0071643Y0059162D02*
X0088179Y0059162D01*
X0091977Y0058954D02*
X0119034Y0058954D01*
X0119034Y0058168D02*
X0091977Y0058168D01*
X0091977Y0057382D02*
X0119034Y0057382D01*
X0119034Y0056596D02*
X0091977Y0056596D01*
X0091977Y0059740D02*
X0093764Y0059740D01*
X0092978Y0060526D02*
X0091977Y0060526D01*
X0091977Y0061312D02*
X0092192Y0061312D01*
X0091406Y0062098D02*
X0066125Y0062098D01*
X0066125Y0062883D02*
X0090620Y0062883D01*
X0090283Y0065183D02*
X0094371Y0061094D01*
X0120582Y0061094D01*
X0122542Y0064376D02*
X0124482Y0062436D01*
X0124482Y0061154D01*
X0128399Y0061611D02*
X0122086Y0067924D01*
X0121324Y0067924D01*
X0122475Y0070240D02*
X0114392Y0070240D01*
X0114708Y0072174D02*
X0149995Y0072174D01*
X0151825Y0070343D01*
X0149680Y0068327D02*
X0148933Y0069074D01*
X0124711Y0069096D01*
X0122475Y0070240D01*
X0116887Y0073886D02*
X0144912Y0073886D01*
X0144912Y0074672D02*
X0116887Y0074672D01*
X0116887Y0075458D02*
X0144912Y0075458D01*
X0145631Y0076244D02*
X0116887Y0076244D01*
X0116870Y0077030D02*
X0145864Y0077030D01*
X0145402Y0077816D02*
X0116887Y0077816D01*
X0118491Y0080033D02*
X0113824Y0080033D01*
X0111309Y0078087D02*
X0071308Y0078161D01*
X0064658Y0084883D01*
X0063966Y0086327D02*
X0072234Y0086327D01*
X0070206Y0084889D02*
X0066603Y0084889D01*
X0067381Y0084103D02*
X0070206Y0084103D01*
X0070206Y0083317D02*
X0068158Y0083317D01*
X0068936Y0082531D02*
X0070206Y0082531D01*
X0070272Y0081745D02*
X0069713Y0081745D01*
X0070491Y0080959D02*
X0085886Y0080959D01*
X0086672Y0080174D02*
X0071268Y0080174D01*
X0076142Y0081745D02*
X0077674Y0081745D01*
X0077607Y0081812D02*
X0078189Y0081230D01*
X0083028Y0081230D01*
X0083610Y0081812D01*
X0083610Y0088147D01*
X0083028Y0088729D01*
X0078189Y0088729D01*
X0077607Y0088147D01*
X0077607Y0081812D01*
X0077607Y0082531D02*
X0076209Y0082531D01*
X0076209Y0083317D02*
X0077607Y0083317D01*
X0077607Y0084103D02*
X0076209Y0084103D01*
X0076209Y0084889D02*
X0077607Y0084889D01*
X0077607Y0085675D02*
X0076209Y0085675D01*
X0076209Y0086461D02*
X0077607Y0086461D01*
X0077607Y0087247D02*
X0076209Y0087247D01*
X0076209Y0088033D02*
X0077607Y0088033D01*
X0078189Y0090690D02*
X0083028Y0090690D01*
X0083610Y0091272D01*
X0083610Y0097607D01*
X0083028Y0098189D01*
X0078189Y0098189D01*
X0077607Y0097607D01*
X0077607Y0091272D01*
X0078189Y0090690D01*
X0077703Y0091176D02*
X0076113Y0091176D01*
X0076209Y0091962D02*
X0077607Y0091962D01*
X0077607Y0092748D02*
X0076209Y0092748D01*
X0076209Y0093534D02*
X0077607Y0093534D01*
X0077607Y0094320D02*
X0076209Y0094320D01*
X0076209Y0095106D02*
X0077607Y0095106D01*
X0077607Y0095892D02*
X0076209Y0095892D01*
X0076209Y0096678D02*
X0077607Y0096678D01*
X0077607Y0097464D02*
X0076209Y0097464D01*
X0070206Y0097464D02*
X0066275Y0097464D01*
X0066275Y0096678D02*
X0070206Y0096678D01*
X0070206Y0095892D02*
X0066275Y0095892D01*
X0066275Y0095106D02*
X0070206Y0095106D01*
X0070206Y0094320D02*
X0066275Y0094320D01*
X0061604Y0092232D02*
X0059807Y0090436D01*
X0059807Y0081149D01*
X0060824Y0080132D01*
X0065514Y0080132D01*
X0069542Y0076104D01*
X0111081Y0076104D01*
X0110479Y0074153D02*
X0108039Y0074153D01*
X0107048Y0073162D01*
X0105774Y0071528D02*
X0065157Y0071528D01*
X0065157Y0070743D02*
X0108798Y0070743D01*
X0108798Y0071528D02*
X0108491Y0071528D01*
X0108798Y0069957D02*
X0065157Y0069957D01*
X0065157Y0069171D02*
X0065749Y0069171D01*
X0068337Y0069171D02*
X0069494Y0069171D01*
X0069248Y0065241D02*
X0068006Y0065241D01*
X0066080Y0065241D02*
X0066074Y0065241D01*
X0066125Y0064455D02*
X0069820Y0064455D01*
X0066125Y0063669D02*
X0076312Y0063669D01*
X0076003Y0064455D02*
X0074212Y0064455D01*
X0074784Y0065241D02*
X0076003Y0065241D01*
X0076003Y0061312D02*
X0074782Y0061312D01*
X0069246Y0061312D02*
X0066125Y0061312D01*
X0065157Y0060526D02*
X0069246Y0060526D01*
X0069246Y0059740D02*
X0065157Y0059740D01*
X0065157Y0058954D02*
X0069246Y0058954D01*
X0069246Y0058168D02*
X0065157Y0058168D01*
X0065157Y0057382D02*
X0069427Y0057382D01*
X0062382Y0057382D02*
X0040420Y0057382D01*
X0040690Y0057652D02*
X0040690Y0063987D01*
X0040108Y0064569D01*
X0035269Y0064569D01*
X0034687Y0063987D01*
X0034687Y0057652D01*
X0035269Y0057070D01*
X0037185Y0057070D01*
X0037185Y0054643D01*
X0037015Y0054643D01*
X0036433Y0054061D01*
X0036433Y0047726D01*
X0037015Y0047144D01*
X0041854Y0047144D01*
X0042436Y0047726D01*
X0042436Y0054061D01*
X0041854Y0054643D01*
X0039960Y0054643D01*
X0039960Y0057070D01*
X0040108Y0057070D01*
X0040690Y0057652D01*
X0040690Y0058168D02*
X0062382Y0058168D01*
X0062382Y0058954D02*
X0040690Y0058954D01*
X0040690Y0059740D02*
X0062382Y0059740D01*
X0062382Y0060526D02*
X0040690Y0060526D01*
X0040690Y0061312D02*
X0060588Y0061312D01*
X0060588Y0062098D02*
X0040690Y0062098D01*
X0040690Y0062883D02*
X0060588Y0062883D01*
X0060588Y0063669D02*
X0040690Y0063669D01*
X0040222Y0064455D02*
X0060588Y0064455D01*
X0060639Y0065241D02*
X0020368Y0065241D01*
X0020368Y0064455D02*
X0027753Y0064455D01*
X0027867Y0064569D02*
X0027285Y0063987D01*
X0027285Y0057652D01*
X0027867Y0057070D01*
X0032706Y0057070D01*
X0033289Y0057652D01*
X0033289Y0063987D01*
X0032706Y0064569D01*
X0027867Y0064569D01*
X0027285Y0063669D02*
X0020367Y0063669D01*
X0020367Y0062883D02*
X0027285Y0062883D01*
X0027285Y0062098D02*
X0020366Y0062098D01*
X0020366Y0061312D02*
X0027285Y0061312D01*
X0027285Y0060526D02*
X0020365Y0060526D01*
X0020364Y0059740D02*
X0027285Y0059740D01*
X0027285Y0058954D02*
X0020364Y0058954D01*
X0020363Y0058168D02*
X0027285Y0058168D01*
X0027556Y0057382D02*
X0020363Y0057382D01*
X0020362Y0056596D02*
X0037185Y0056596D01*
X0037185Y0055810D02*
X0020362Y0055810D01*
X0020361Y0055024D02*
X0037185Y0055024D01*
X0036610Y0054238D02*
X0034857Y0054238D01*
X0035034Y0053452D02*
X0036433Y0053452D01*
X0036433Y0052667D02*
X0035034Y0052667D01*
X0035034Y0051881D02*
X0036433Y0051881D01*
X0036433Y0051095D02*
X0035034Y0051095D01*
X0035034Y0050309D02*
X0036433Y0050309D01*
X0036433Y0049523D02*
X0035034Y0049523D01*
X0035034Y0048737D02*
X0036433Y0048737D01*
X0036433Y0047951D02*
X0035034Y0047951D01*
X0034473Y0047165D02*
X0036994Y0047165D01*
X0034419Y0046379D02*
X0059655Y0046379D01*
X0060441Y0047165D02*
X0041875Y0047165D01*
X0042436Y0047951D02*
X0061226Y0047951D01*
X0062012Y0048737D02*
X0042436Y0048737D01*
X0042436Y0049523D02*
X0062382Y0049523D01*
X0062382Y0050309D02*
X0042436Y0050309D01*
X0042436Y0051095D02*
X0062382Y0051095D01*
X0062382Y0051881D02*
X0042436Y0051881D01*
X0042436Y0052667D02*
X0062382Y0052667D01*
X0062382Y0053452D02*
X0042436Y0053452D01*
X0042259Y0054238D02*
X0062382Y0054238D01*
X0062382Y0055024D02*
X0039960Y0055024D01*
X0039960Y0055810D02*
X0062382Y0055810D01*
X0062382Y0056596D02*
X0039960Y0056596D01*
X0038572Y0059162D02*
X0038572Y0052075D01*
X0034957Y0057382D02*
X0033018Y0057382D01*
X0033289Y0058168D02*
X0034687Y0058168D01*
X0034687Y0058954D02*
X0033289Y0058954D01*
X0033289Y0059740D02*
X0034687Y0059740D01*
X0034687Y0060526D02*
X0033289Y0060526D01*
X0033289Y0061312D02*
X0034687Y0061312D01*
X0034687Y0062098D02*
X0033289Y0062098D01*
X0033289Y0062883D02*
X0034687Y0062883D01*
X0034687Y0063669D02*
X0033289Y0063669D01*
X0032821Y0064455D02*
X0035155Y0064455D01*
X0037222Y0067208D02*
X0036640Y0067790D01*
X0036640Y0076488D01*
X0037222Y0077070D01*
X0047494Y0077070D01*
X0048076Y0076488D01*
X0048076Y0067790D01*
X0047494Y0067208D01*
X0037222Y0067208D01*
X0036831Y0067599D02*
X0026231Y0067599D01*
X0026422Y0068385D02*
X0036640Y0068385D01*
X0036640Y0069171D02*
X0026422Y0069171D01*
X0026422Y0069957D02*
X0036640Y0069957D01*
X0036640Y0070743D02*
X0026422Y0070743D01*
X0026422Y0071528D02*
X0036640Y0071528D01*
X0036640Y0072314D02*
X0026422Y0072314D01*
X0026422Y0073100D02*
X0036640Y0073100D01*
X0036640Y0073886D02*
X0026422Y0073886D01*
X0026422Y0074672D02*
X0036640Y0074672D01*
X0036640Y0075458D02*
X0026422Y0075458D01*
X0026422Y0076244D02*
X0036640Y0076244D01*
X0037182Y0077030D02*
X0025880Y0077030D01*
X0029665Y0078896D02*
X0030611Y0077950D01*
X0031846Y0077438D01*
X0033184Y0077438D01*
X0034420Y0077950D01*
X0035366Y0078896D01*
X0035877Y0080132D01*
X0035877Y0081469D01*
X0035366Y0082705D01*
X0034420Y0083651D01*
X0033184Y0084163D01*
X0031846Y0084163D01*
X0030611Y0083651D01*
X0029665Y0082705D01*
X0029153Y0081469D01*
X0029153Y0080132D01*
X0029665Y0078896D01*
X0029959Y0078602D02*
X0020378Y0078602D01*
X0020378Y0079388D02*
X0029461Y0079388D01*
X0029153Y0080174D02*
X0020379Y0080174D01*
X0020380Y0080959D02*
X0029153Y0080959D01*
X0029267Y0081745D02*
X0020380Y0081745D01*
X0020381Y0082531D02*
X0029593Y0082531D01*
X0030277Y0083317D02*
X0020381Y0083317D01*
X0020382Y0084103D02*
X0031703Y0084103D01*
X0033328Y0084103D02*
X0039041Y0084103D01*
X0039041Y0083317D02*
X0034753Y0083317D01*
X0035437Y0082531D02*
X0039041Y0082531D01*
X0039063Y0081745D02*
X0035763Y0081745D01*
X0035877Y0080959D02*
X0054311Y0080959D01*
X0054311Y0080174D02*
X0035877Y0080174D01*
X0035569Y0079388D02*
X0054311Y0079388D01*
X0052905Y0078602D02*
X0035071Y0078602D01*
X0034096Y0077816D02*
X0052870Y0077816D01*
X0052870Y0077030D02*
X0047534Y0077030D01*
X0048076Y0076244D02*
X0052870Y0076244D01*
X0052870Y0075458D02*
X0048076Y0075458D01*
X0048076Y0074672D02*
X0052870Y0074672D01*
X0052870Y0073886D02*
X0048076Y0073886D01*
X0048076Y0073100D02*
X0052870Y0073100D01*
X0052870Y0072314D02*
X0048076Y0072314D01*
X0048076Y0071528D02*
X0062382Y0071528D01*
X0062382Y0070743D02*
X0048076Y0070743D01*
X0048076Y0069957D02*
X0062382Y0069957D01*
X0062382Y0069171D02*
X0048076Y0069171D01*
X0048076Y0068385D02*
X0062382Y0068385D01*
X0062382Y0067599D02*
X0047884Y0067599D01*
X0058873Y0072314D02*
X0060272Y0072314D01*
X0060272Y0073100D02*
X0058873Y0073100D01*
X0058873Y0073886D02*
X0060272Y0073886D01*
X0060272Y0074672D02*
X0058873Y0074672D01*
X0058873Y0075458D02*
X0060272Y0075458D01*
X0060272Y0076244D02*
X0058873Y0076244D01*
X0058873Y0077030D02*
X0060272Y0077030D01*
X0060272Y0077816D02*
X0058873Y0077816D01*
X0058838Y0078602D02*
X0060307Y0078602D01*
X0059606Y0079388D02*
X0057086Y0079388D01*
X0057086Y0080174D02*
X0058820Y0080174D01*
X0058419Y0080959D02*
X0057086Y0080959D01*
X0055698Y0083965D02*
X0055698Y0076878D01*
X0052936Y0081745D02*
X0050094Y0081745D01*
X0050115Y0082531D02*
X0052870Y0082531D01*
X0052870Y0083317D02*
X0050115Y0083317D01*
X0050115Y0084103D02*
X0052870Y0084103D01*
X0052870Y0084889D02*
X0050088Y0084889D01*
X0050115Y0085675D02*
X0052870Y0085675D01*
X0052870Y0086461D02*
X0050115Y0086461D01*
X0050115Y0087247D02*
X0052796Y0087247D01*
X0052010Y0088033D02*
X0050082Y0088033D01*
X0052528Y0089477D02*
X0054687Y0087318D01*
X0052528Y0089477D02*
X0046446Y0089477D01*
X0046840Y0092232D02*
X0054517Y0092232D01*
X0055698Y0093414D02*
X0055698Y0094595D01*
X0058873Y0094320D02*
X0060272Y0094320D01*
X0060272Y0095106D02*
X0058873Y0095106D01*
X0058873Y0095892D02*
X0060272Y0095892D01*
X0060272Y0096678D02*
X0058873Y0096678D01*
X0058873Y0097464D02*
X0060272Y0097464D01*
X0060516Y0100607D02*
X0058629Y0100607D01*
X0058873Y0101393D02*
X0060272Y0101393D01*
X0060272Y0102179D02*
X0058873Y0102179D01*
X0058873Y0102965D02*
X0060272Y0102965D01*
X0052870Y0102965D02*
X0048076Y0102965D01*
X0048076Y0103751D02*
X0052870Y0103751D01*
X0052870Y0104537D02*
X0048076Y0104537D01*
X0048076Y0105323D02*
X0052870Y0105323D01*
X0052870Y0106109D02*
X0048076Y0106109D01*
X0048076Y0106895D02*
X0052870Y0106895D01*
X0053364Y0107680D02*
X0048076Y0107680D01*
X0048076Y0108466D02*
X0053505Y0108466D01*
X0053505Y0109252D02*
X0048076Y0109252D01*
X0048076Y0110038D02*
X0053276Y0110038D01*
X0052870Y0110824D02*
X0048076Y0110824D01*
X0047599Y0111610D02*
X0052870Y0111610D01*
X0053425Y0119469D02*
X0040690Y0119469D01*
X0040690Y0120255D02*
X0052870Y0120255D01*
X0052870Y0121041D02*
X0040690Y0121041D01*
X0039960Y0121827D02*
X0052870Y0121827D01*
X0052870Y0122613D02*
X0039960Y0122613D01*
X0029896Y0124185D02*
X0020410Y0124185D01*
X0020411Y0124971D02*
X0029356Y0124971D01*
X0029356Y0125756D02*
X0020411Y0125756D01*
X0020412Y0126542D02*
X0025672Y0126542D01*
X0025134Y0127328D02*
X0020412Y0127328D01*
X0020413Y0128114D02*
X0025134Y0128114D01*
X0025142Y0128900D02*
X0020413Y0128900D01*
X0020414Y0129686D02*
X0025928Y0129686D01*
X0029356Y0130472D02*
X0020415Y0130472D01*
X0020415Y0131258D02*
X0029554Y0131258D01*
X0047819Y0102179D02*
X0052528Y0102179D01*
X0058873Y0093534D02*
X0060272Y0093534D01*
X0060157Y0092748D02*
X0058873Y0092748D01*
X0058873Y0091962D02*
X0059371Y0091962D01*
X0061604Y0092232D02*
X0072234Y0092232D01*
X0070206Y0088033D02*
X0066275Y0088033D01*
X0061724Y0090390D02*
X0088259Y0090390D01*
X0088259Y0090948D02*
X0088259Y0084613D01*
X0088841Y0084031D01*
X0093680Y0084031D01*
X0094262Y0084613D01*
X0094262Y0090948D01*
X0093680Y0091530D01*
X0088841Y0091530D01*
X0088259Y0090948D01*
X0088488Y0091176D02*
X0083515Y0091176D01*
X0083610Y0091962D02*
X0102877Y0091962D01*
X0102235Y0092748D02*
X0102091Y0092748D01*
X0101435Y0091176D02*
X0105476Y0091176D01*
X0105969Y0091962D02*
X0108798Y0091962D01*
X0110530Y0093852D02*
X0105039Y0093852D01*
X0102050Y0095804D02*
X0101287Y0095042D01*
X0102050Y0095804D02*
X0110377Y0095804D01*
X0113262Y0091855D02*
X0119422Y0091855D01*
X0121584Y0091962D02*
X0126051Y0091962D01*
X0126412Y0091176D02*
X0121584Y0091176D01*
X0121025Y0090390D02*
X0126692Y0090390D01*
X0127478Y0089604D02*
X0116887Y0089604D01*
X0116887Y0090390D02*
X0117768Y0090390D01*
X0117999Y0087941D02*
X0115245Y0087941D01*
X0116887Y0086461D02*
X0117156Y0086461D01*
X0117393Y0085675D02*
X0116887Y0085675D01*
X0116885Y0084889D02*
X0118179Y0084889D01*
X0116887Y0084103D02*
X0144150Y0084103D01*
X0144150Y0083317D02*
X0116887Y0083317D01*
X0116887Y0082531D02*
X0144359Y0082531D01*
X0145145Y0081745D02*
X0119841Y0081745D01*
X0120627Y0080959D02*
X0148289Y0080959D01*
X0147529Y0081745D02*
X0149341Y0081745D01*
X0149298Y0082531D02*
X0148315Y0082531D01*
X0148524Y0083317D02*
X0149298Y0083317D01*
X0149799Y0084103D02*
X0148712Y0084103D01*
X0149477Y0084889D02*
X0150072Y0084889D01*
X0148709Y0086103D02*
X0147605Y0084953D01*
X0146344Y0083591D01*
X0144486Y0084889D02*
X0120508Y0084889D01*
X0121294Y0085675D02*
X0145272Y0085675D01*
X0147129Y0086461D02*
X0121531Y0086461D01*
X0121531Y0087247D02*
X0147875Y0087247D01*
X0147169Y0088033D02*
X0121222Y0088033D01*
X0120436Y0088819D02*
X0144398Y0088819D01*
X0143612Y0089604D02*
X0129721Y0089604D01*
X0130507Y0090390D02*
X0130742Y0090390D01*
X0132785Y0090390D02*
X0143495Y0090390D01*
X0145749Y0090588D02*
X0145749Y0094506D01*
X0142198Y0098056D01*
X0142198Y0101205D01*
X0144138Y0101278D02*
X0144138Y0099704D01*
X0148714Y0095128D01*
X0148735Y0089605D01*
X0151459Y0086415D02*
X0152960Y0087916D01*
X0155522Y0087916D01*
X0151459Y0086415D02*
X0151459Y0082717D01*
X0149373Y0080081D02*
X0147652Y0078361D01*
X0145402Y0078602D02*
X0120123Y0078602D01*
X0120648Y0079388D02*
X0145487Y0079388D01*
X0146273Y0080174D02*
X0120648Y0080174D01*
X0117080Y0081745D02*
X0116887Y0081745D01*
X0110620Y0083965D02*
X0104886Y0083965D01*
X0102997Y0085853D01*
X0100198Y0085853D01*
X0100127Y0085781D01*
X0101154Y0084103D02*
X0102785Y0084103D01*
X0103571Y0083317D02*
X0100772Y0083317D01*
X0100803Y0082531D02*
X0102899Y0082531D01*
X0102899Y0081745D02*
X0100424Y0081745D01*
X0099739Y0080959D02*
X0102899Y0080959D01*
X0103544Y0080174D02*
X0099072Y0080174D01*
X0105108Y0081706D02*
X0105443Y0082041D01*
X0110244Y0082041D01*
X0108798Y0080174D02*
X0106628Y0080174D01*
X0105447Y0074672D02*
X0066275Y0074672D01*
X0066275Y0073886D02*
X0104945Y0073886D01*
X0104945Y0073100D02*
X0066275Y0073100D01*
X0066275Y0072314D02*
X0104988Y0072314D01*
X0108037Y0069171D02*
X0091624Y0069171D01*
X0091977Y0068385D02*
X0107251Y0068385D01*
X0106733Y0067599D02*
X0091977Y0067599D01*
X0091977Y0066813D02*
X0106733Y0066813D01*
X0106733Y0066027D02*
X0091977Y0066027D01*
X0092186Y0065241D02*
X0106733Y0065241D01*
X0106665Y0064455D02*
X0092972Y0064455D01*
X0093758Y0063669D02*
X0106665Y0063669D01*
X0106665Y0062883D02*
X0094544Y0062883D01*
X0084788Y0063669D02*
X0083192Y0063669D01*
X0083502Y0064455D02*
X0084478Y0064455D01*
X0084478Y0065241D02*
X0083502Y0065241D01*
X0083502Y0066027D02*
X0084478Y0066027D01*
X0084478Y0066813D02*
X0083502Y0066813D01*
X0083502Y0067599D02*
X0084478Y0067599D01*
X0084478Y0068385D02*
X0083502Y0068385D01*
X0083149Y0069171D02*
X0084831Y0069171D01*
X0076356Y0069171D02*
X0074538Y0069171D01*
X0068226Y0075458D02*
X0066275Y0075458D01*
X0066275Y0076244D02*
X0067440Y0076244D01*
X0066654Y0077030D02*
X0066275Y0077030D01*
X0063769Y0074319D02*
X0063769Y0048532D01*
X0060226Y0044988D01*
X0033848Y0044988D01*
X0032295Y0046541D01*
X0032295Y0049814D01*
X0029031Y0049523D02*
X0020357Y0049523D01*
X0020358Y0050309D02*
X0029031Y0050309D01*
X0029031Y0051095D02*
X0020358Y0051095D01*
X0020359Y0051881D02*
X0029031Y0051881D01*
X0029031Y0052667D02*
X0020359Y0052667D01*
X0020360Y0053452D02*
X0029031Y0053452D01*
X0029208Y0054238D02*
X0020361Y0054238D01*
X0020357Y0048737D02*
X0029031Y0048737D01*
X0029031Y0047951D02*
X0020356Y0047951D01*
X0020356Y0047165D02*
X0029592Y0047165D01*
X0030908Y0046379D02*
X0020355Y0046379D01*
X0020354Y0045593D02*
X0031281Y0045593D01*
X0032067Y0044807D02*
X0020354Y0044807D01*
X0020353Y0044022D02*
X0032853Y0044022D01*
X0020353Y0043236D02*
X0096801Y0043236D01*
X0096602Y0044022D02*
X0061221Y0044022D01*
X0062007Y0044807D02*
X0094687Y0044807D01*
X0093901Y0045593D02*
X0062793Y0045593D01*
X0063579Y0046379D02*
X0093791Y0046379D01*
X0093791Y0047165D02*
X0064365Y0047165D01*
X0065151Y0047951D02*
X0094226Y0047951D01*
X0095012Y0048737D02*
X0065157Y0048737D01*
X0067096Y0040878D02*
X0020351Y0040878D01*
X0020352Y0041664D02*
X0088127Y0041664D01*
X0088127Y0040878D02*
X0068997Y0040878D01*
X0066310Y0040092D02*
X0020351Y0040092D01*
X0020350Y0039306D02*
X0065859Y0039306D01*
X0065859Y0038520D02*
X0020349Y0038520D01*
X0020349Y0037734D02*
X0065954Y0037734D01*
X0066740Y0036948D02*
X0020348Y0036948D01*
X0020348Y0036162D02*
X0088127Y0036162D01*
X0088127Y0035376D02*
X0020347Y0035376D01*
X0020347Y0034591D02*
X0088427Y0034591D01*
X0088461Y0033805D02*
X0020346Y0033805D01*
X0020346Y0033019D02*
X0088504Y0033019D01*
X0089290Y0032233D02*
X0036129Y0032233D01*
X0036876Y0031447D02*
X0098412Y0031447D01*
X0098412Y0032233D02*
X0095206Y0032233D01*
X0095992Y0033019D02*
X0098412Y0033019D01*
X0099185Y0033805D02*
X0096035Y0033805D01*
X0096112Y0034591D02*
X0096301Y0034591D01*
X0098970Y0030661D02*
X0036878Y0030661D01*
X0036875Y0029875D02*
X0057815Y0029875D01*
X0057284Y0029089D02*
X0036875Y0029089D01*
X0036875Y0028303D02*
X0037402Y0028303D01*
X0039316Y0028303D02*
X0057284Y0028303D01*
X0057284Y0027517D02*
X0040102Y0027517D01*
X0040546Y0026731D02*
X0057284Y0026731D01*
X0057284Y0025946D02*
X0040546Y0025946D01*
X0040445Y0025160D02*
X0057284Y0025160D01*
X0057284Y0024374D02*
X0039953Y0024374D01*
X0040200Y0023588D02*
X0057284Y0023588D01*
X0057492Y0022802D02*
X0040985Y0022802D01*
X0041771Y0022016D02*
X0058535Y0022016D01*
X0061722Y0022016D02*
X0080973Y0022016D01*
X0080973Y0022802D02*
X0070482Y0022802D01*
X0070689Y0023009D02*
X0070107Y0022427D01*
X0065268Y0022427D01*
X0064686Y0023009D01*
X0064686Y0029344D01*
X0065268Y0029926D01*
X0070107Y0029926D01*
X0070689Y0029344D01*
X0070689Y0028301D01*
X0071130Y0028301D01*
X0071243Y0028414D01*
X0073055Y0028414D01*
X0074337Y0027133D01*
X0074337Y0027082D01*
X0074343Y0027076D01*
X0074343Y0025199D01*
X0073058Y0023914D01*
X0070689Y0023914D01*
X0070689Y0023009D01*
X0070689Y0023588D02*
X0080973Y0023588D01*
X0080973Y0024374D02*
X0073518Y0024374D01*
X0074304Y0025160D02*
X0080973Y0025160D01*
X0080973Y0025946D02*
X0074343Y0025946D01*
X0074343Y0026731D02*
X0081276Y0026731D01*
X0086004Y0026731D02*
X0101000Y0026731D01*
X0100214Y0025946D02*
X0086307Y0025946D01*
X0086307Y0025160D02*
X0099733Y0025160D01*
X0099733Y0024374D02*
X0086307Y0024374D01*
X0086307Y0023588D02*
X0096637Y0023588D01*
X0095930Y0022802D02*
X0091472Y0022802D01*
X0088726Y0022802D02*
X0086307Y0022802D01*
X0086307Y0022016D02*
X0087940Y0022016D01*
X0087911Y0021230D02*
X0086307Y0021230D01*
X0086307Y0020444D02*
X0087911Y0020444D01*
X0088208Y0019658D02*
X0086307Y0019658D01*
X0086307Y0018872D02*
X0088125Y0018872D01*
X0088125Y0018086D02*
X0085875Y0018086D01*
X0084174Y0017300D02*
X0088125Y0017300D01*
X0088125Y0016515D02*
X0084174Y0016515D01*
X0084174Y0015729D02*
X0088125Y0015729D01*
X0088125Y0014943D02*
X0084174Y0014943D01*
X0084174Y0014157D02*
X0088125Y0014157D01*
X0088125Y0013371D02*
X0084174Y0013371D01*
X0080973Y0018872D02*
X0059993Y0018872D01*
X0060779Y0019658D02*
X0080973Y0019658D01*
X0080973Y0020444D02*
X0061565Y0020444D01*
X0061722Y0021230D02*
X0080973Y0021230D01*
X0073952Y0027517D02*
X0102832Y0027517D01*
X0102842Y0026731D02*
X0103618Y0026731D01*
X0103628Y0025946D02*
X0111553Y0025946D01*
X0111503Y0025160D02*
X0104108Y0025160D01*
X0104108Y0024374D02*
X0108475Y0024374D01*
X0107689Y0023588D02*
X0107276Y0023588D01*
X0105872Y0021918D02*
X0105872Y0018168D01*
X0104233Y0020444D02*
X0103309Y0020444D01*
X0103309Y0021230D02*
X0103681Y0021230D01*
X0103681Y0022016D02*
X0103309Y0022016D01*
X0103309Y0022802D02*
X0103681Y0022802D01*
X0104043Y0023588D02*
X0104460Y0023588D01*
X0101921Y0024600D02*
X0101921Y0018485D01*
X0100534Y0020444D02*
X0099681Y0020444D01*
X0100305Y0021230D02*
X0100534Y0021230D01*
X0100534Y0022016D02*
X0100305Y0022016D01*
X0100305Y0022802D02*
X0100534Y0022802D01*
X0099799Y0023588D02*
X0099597Y0023588D01*
X0098144Y0021976D02*
X0098144Y0017306D01*
X0095930Y0022016D02*
X0095449Y0022016D01*
X0102676Y0028303D02*
X0073167Y0028303D01*
X0071132Y0028303D02*
X0070689Y0028303D01*
X0070689Y0029089D02*
X0102676Y0029089D01*
X0103065Y0029875D02*
X0070158Y0029875D01*
X0065217Y0029875D02*
X0062757Y0029875D01*
X0063288Y0029089D02*
X0064686Y0029089D01*
X0064686Y0028303D02*
X0063288Y0028303D01*
X0063288Y0027517D02*
X0064686Y0027517D01*
X0064686Y0026731D02*
X0063288Y0026731D01*
X0063288Y0025946D02*
X0064686Y0025946D01*
X0064686Y0025160D02*
X0063288Y0025160D01*
X0063288Y0024374D02*
X0064686Y0024374D01*
X0064686Y0023588D02*
X0063288Y0023588D01*
X0063080Y0022802D02*
X0064893Y0022802D01*
X0088562Y0042450D02*
X0020352Y0042450D01*
X0025580Y0060343D02*
X0030305Y0060343D01*
X0030073Y0062086D02*
X0030073Y0066416D01*
X0020369Y0066813D02*
X0062382Y0066813D01*
X0062382Y0066027D02*
X0020369Y0066027D01*
X0020377Y0077816D02*
X0030935Y0077816D01*
X0039069Y0084889D02*
X0020382Y0084889D01*
X0020383Y0085675D02*
X0039041Y0085675D01*
X0039041Y0086461D02*
X0020383Y0086461D01*
X0020384Y0087247D02*
X0039041Y0087247D01*
X0039074Y0088033D02*
X0020385Y0088033D01*
X0020385Y0088819D02*
X0039041Y0088819D01*
X0039041Y0089604D02*
X0020386Y0089604D01*
X0020386Y0090390D02*
X0039041Y0090390D01*
X0039080Y0091176D02*
X0020387Y0091176D01*
X0020387Y0091962D02*
X0039041Y0091962D01*
X0039041Y0092748D02*
X0020388Y0092748D01*
X0020388Y0093534D02*
X0039041Y0093534D01*
X0061194Y0089604D02*
X0088259Y0089604D01*
X0088259Y0088819D02*
X0061194Y0088819D01*
X0083610Y0088033D02*
X0088259Y0088033D01*
X0088259Y0087247D02*
X0083610Y0087247D01*
X0083610Y0086461D02*
X0088259Y0086461D01*
X0088259Y0085675D02*
X0083610Y0085675D01*
X0083610Y0084889D02*
X0084206Y0084889D01*
X0083709Y0084103D02*
X0083610Y0084103D01*
X0083610Y0083317D02*
X0083709Y0083317D01*
X0083757Y0082531D02*
X0083610Y0082531D01*
X0083544Y0081745D02*
X0084543Y0081745D01*
X0088084Y0084103D02*
X0088769Y0084103D01*
X0088259Y0084889D02*
X0087586Y0084889D01*
X0093753Y0084103D02*
X0096170Y0084103D01*
X0095661Y0084889D02*
X0094262Y0084889D01*
X0094262Y0085675D02*
X0095661Y0085675D01*
X0095661Y0086461D02*
X0094262Y0086461D01*
X0094262Y0087247D02*
X0095661Y0087247D01*
X0095661Y0088033D02*
X0094262Y0088033D01*
X0094262Y0088819D02*
X0095661Y0088819D01*
X0095661Y0089604D02*
X0094262Y0089604D01*
X0094262Y0090390D02*
X0095661Y0090390D01*
X0095889Y0091176D02*
X0094034Y0091176D01*
X0099221Y0093534D02*
X0083610Y0093534D01*
X0083610Y0092748D02*
X0100007Y0092748D01*
X0098861Y0094320D02*
X0083610Y0094320D01*
X0083610Y0095106D02*
X0098861Y0095106D01*
X0099047Y0095892D02*
X0083610Y0095892D01*
X0083610Y0096678D02*
X0099833Y0096678D01*
X0101664Y0090390D02*
X0104690Y0090390D01*
X0104653Y0089604D02*
X0101664Y0089604D01*
X0101664Y0088819D02*
X0104653Y0088819D01*
X0105162Y0088033D02*
X0101664Y0088033D01*
X0101664Y0087247D02*
X0108798Y0087247D01*
X0108798Y0088033D02*
X0108519Y0088033D01*
X0108798Y0086461D02*
X0104352Y0086461D01*
X0105138Y0085675D02*
X0108798Y0085675D01*
X0107324Y0085949D02*
X0110353Y0085949D01*
X0110591Y0089916D02*
X0107022Y0089916D01*
X0116887Y0093534D02*
X0117982Y0093534D01*
X0116887Y0094320D02*
X0123693Y0094320D01*
X0122907Y0095106D02*
X0116887Y0095106D01*
X0116887Y0095892D02*
X0122121Y0095892D01*
X0121335Y0096678D02*
X0116887Y0096678D01*
X0120549Y0097464D02*
X0083610Y0097464D01*
X0117999Y0087941D02*
X0118846Y0087093D01*
X0121584Y0092748D02*
X0125265Y0092748D01*
X0124479Y0093534D02*
X0120811Y0093534D01*
X0120528Y0099447D02*
X0127740Y0092236D01*
X0128435Y0095750D02*
X0131766Y0092419D01*
X0133570Y0091176D02*
X0134638Y0091176D01*
X0134068Y0091962D02*
X0133950Y0091962D01*
X0133950Y0092748D02*
X0134068Y0092748D01*
X0136268Y0092529D02*
X0136268Y0101351D01*
X0138282Y0101095D02*
X0138282Y0093920D01*
X0139599Y0092602D01*
X0137928Y0091176D02*
X0137873Y0091176D01*
X0140222Y0095164D02*
X0142711Y0092675D01*
X0140222Y0095164D02*
X0140222Y0101205D01*
X0146112Y0105402D02*
X0146154Y0112418D01*
X0144746Y0112396D02*
X0137088Y0112396D01*
X0136807Y0111610D02*
X0144746Y0111610D01*
X0144757Y0110824D02*
X0136807Y0110824D01*
X0136807Y0110038D02*
X0144752Y0110038D01*
X0144748Y0109252D02*
X0136807Y0109252D01*
X0136713Y0108466D02*
X0144743Y0108466D01*
X0144738Y0107680D02*
X0135927Y0107680D01*
X0137589Y0113182D02*
X0144746Y0113182D01*
X0144746Y0113968D02*
X0137589Y0113968D01*
X0137544Y0114754D02*
X0144746Y0114754D01*
X0144746Y0115540D02*
X0136758Y0115540D01*
X0147527Y0110038D02*
X0177873Y0110038D01*
X0177366Y0110824D02*
X0157762Y0110824D01*
X0157569Y0110631D02*
X0158151Y0111213D01*
X0158151Y0117548D01*
X0157569Y0118130D01*
X0152730Y0118130D01*
X0152148Y0117548D01*
X0152148Y0111213D01*
X0152730Y0110631D01*
X0157569Y0110631D01*
X0158151Y0111610D02*
X0167127Y0111610D01*
X0167127Y0112396D02*
X0158151Y0112396D01*
X0158151Y0113182D02*
X0167127Y0113182D01*
X0166900Y0113968D02*
X0158151Y0113968D01*
X0158151Y0114754D02*
X0166232Y0114754D01*
X0165564Y0115540D02*
X0158151Y0115540D01*
X0158151Y0116326D02*
X0164896Y0116326D01*
X0164228Y0117111D02*
X0158151Y0117111D01*
X0157801Y0117897D02*
X0163560Y0117897D01*
X0162893Y0118683D02*
X0150220Y0118683D01*
X0150219Y0119469D02*
X0162225Y0119469D01*
X0161557Y0120255D02*
X0150219Y0120255D01*
X0150218Y0121041D02*
X0160889Y0121041D01*
X0160221Y0121827D02*
X0150217Y0121827D01*
X0150216Y0122613D02*
X0159553Y0122613D01*
X0152497Y0117897D02*
X0150400Y0117897D01*
X0150749Y0117111D02*
X0152148Y0117111D01*
X0152148Y0116326D02*
X0150749Y0116326D01*
X0150749Y0115540D02*
X0152148Y0115540D01*
X0152148Y0114754D02*
X0150749Y0114754D01*
X0150749Y0113968D02*
X0152148Y0113968D01*
X0152148Y0113182D02*
X0150749Y0113182D01*
X0150749Y0112396D02*
X0152148Y0112396D01*
X0152148Y0111610D02*
X0150749Y0111610D01*
X0150360Y0110824D02*
X0152536Y0110824D01*
X0147523Y0109252D02*
X0207086Y0109252D01*
X0207547Y0106109D02*
X0232160Y0106109D01*
X0232160Y0105323D02*
X0207547Y0105323D01*
X0207249Y0104537D02*
X0232160Y0104537D01*
X0232536Y0103751D02*
X0206463Y0103751D01*
X0198428Y0113968D02*
X0195967Y0113968D01*
X0195967Y0114754D02*
X0198428Y0114754D01*
X0198723Y0115540D02*
X0195810Y0115540D01*
X0192526Y0117111D02*
X0184209Y0117111D01*
X0184209Y0117897D02*
X0191990Y0117897D01*
X0191990Y0118683D02*
X0184209Y0118683D01*
X0184851Y0119469D02*
X0192000Y0119469D01*
X0192786Y0120255D02*
X0185636Y0120255D01*
X0186422Y0121041D02*
X0197479Y0121041D01*
X0197479Y0120255D02*
X0195569Y0120255D01*
X0196355Y0119469D02*
X0198250Y0119469D01*
X0199656Y0121234D02*
X0239187Y0121234D01*
X0236251Y0119469D02*
X0201082Y0119469D01*
X0197479Y0121827D02*
X0187208Y0121827D01*
X0187994Y0122613D02*
X0188395Y0122613D01*
X0186127Y0124971D02*
X0175041Y0124971D01*
X0175041Y0125756D02*
X0185922Y0125756D01*
X0185922Y0126542D02*
X0175041Y0126542D01*
X0175041Y0127328D02*
X0185922Y0127328D01*
X0186234Y0128114D02*
X0175041Y0128114D01*
X0175041Y0128900D02*
X0186560Y0128900D01*
X0187324Y0129686D02*
X0175041Y0129686D01*
X0175041Y0130472D02*
X0188570Y0130472D01*
X0191862Y0130472D02*
X0214161Y0130472D01*
X0212914Y0129686D02*
X0193108Y0129686D01*
X0193872Y0128900D02*
X0212151Y0128900D01*
X0211825Y0128114D02*
X0194197Y0128114D01*
X0194510Y0127328D02*
X0211513Y0127328D01*
X0211513Y0126542D02*
X0194510Y0126542D01*
X0194510Y0125756D02*
X0211513Y0125756D01*
X0211795Y0124971D02*
X0194227Y0124971D01*
X0193902Y0124185D02*
X0212121Y0124185D01*
X0212842Y0123399D02*
X0193181Y0123399D01*
X0192037Y0122613D02*
X0198039Y0122613D01*
X0194213Y0118003D02*
X0233086Y0118003D01*
X0235832Y0115258D01*
X0238038Y0115258D01*
X0236398Y0117111D02*
X0235940Y0117111D01*
X0235154Y0117897D02*
X0259247Y0117897D01*
X0259246Y0117111D02*
X0249213Y0117111D01*
X0249702Y0116326D02*
X0259246Y0116326D01*
X0259245Y0115540D02*
X0249702Y0115540D01*
X0249702Y0114754D02*
X0259245Y0114754D01*
X0259244Y0113968D02*
X0249702Y0113968D01*
X0249377Y0119469D02*
X0259248Y0119469D01*
X0259248Y0118683D02*
X0234369Y0118683D01*
X0234020Y0110824D02*
X0235958Y0110824D01*
X0235894Y0110038D02*
X0234806Y0110038D01*
X0235147Y0109252D02*
X0235894Y0109252D01*
X0235894Y0108466D02*
X0235147Y0108466D01*
X0235147Y0107680D02*
X0236178Y0107680D01*
X0235147Y0106895D02*
X0248934Y0106895D01*
X0248934Y0106109D02*
X0235147Y0106109D01*
X0235189Y0105323D02*
X0236423Y0105323D01*
X0249710Y0120255D02*
X0259249Y0120255D01*
X0259249Y0121041D02*
X0249710Y0121041D01*
X0249710Y0121827D02*
X0259250Y0121827D01*
X0259251Y0122613D02*
X0249696Y0122613D01*
X0259251Y0123399D02*
X0218771Y0123399D01*
X0219492Y0124185D02*
X0259252Y0124185D01*
X0259256Y0129686D02*
X0218699Y0129686D01*
X0217452Y0130472D02*
X0259256Y0130472D01*
X0188974Y0110038D02*
X0184360Y0110038D01*
X0184284Y0108564D02*
X0184866Y0107982D01*
X0184866Y0103143D01*
X0184284Y0102561D01*
X0177949Y0102561D01*
X0177366Y0103143D01*
X0177366Y0107982D01*
X0177949Y0108564D01*
X0184284Y0108564D01*
X0184381Y0108466D02*
X0188952Y0108466D01*
X0188468Y0107680D02*
X0184866Y0107680D01*
X0184866Y0106895D02*
X0188468Y0106895D01*
X0188468Y0106109D02*
X0184866Y0106109D01*
X0184866Y0105323D02*
X0188468Y0105323D01*
X0188468Y0104537D02*
X0184866Y0104537D01*
X0184866Y0103751D02*
X0188468Y0103751D01*
X0188645Y0102965D02*
X0184688Y0102965D01*
X0187661Y0100607D02*
X0173122Y0100607D01*
X0173122Y0099821D02*
X0186875Y0099821D01*
X0186090Y0099035D02*
X0173122Y0099035D01*
X0173122Y0098250D02*
X0185304Y0098250D01*
X0184518Y0097464D02*
X0173122Y0097464D01*
X0172771Y0096678D02*
X0183732Y0096678D01*
X0182946Y0095892D02*
X0164557Y0095892D01*
X0164921Y0095106D02*
X0182160Y0095106D01*
X0181374Y0094320D02*
X0165301Y0094320D01*
X0165301Y0093534D02*
X0181361Y0093534D01*
X0181361Y0092748D02*
X0165135Y0092748D01*
X0164349Y0091962D02*
X0180816Y0091962D01*
X0180581Y0091176D02*
X0164875Y0091176D01*
X0165301Y0090390D02*
X0176425Y0090390D01*
X0175639Y0089604D02*
X0165301Y0089604D01*
X0165181Y0088819D02*
X0175503Y0088819D01*
X0175381Y0088033D02*
X0164395Y0088033D01*
X0163021Y0089850D02*
X0160315Y0089850D01*
X0161769Y0088033D02*
X0161832Y0088033D01*
X0160103Y0085961D02*
X0175272Y0085961D01*
X0177743Y0088432D01*
X0176948Y0085675D02*
X0180581Y0085675D01*
X0181084Y0084889D02*
X0176162Y0084889D01*
X0180978Y0082531D02*
X0163943Y0082531D01*
X0164729Y0081745D02*
X0180581Y0081745D01*
X0180581Y0080959D02*
X0165514Y0080959D01*
X0166300Y0080174D02*
X0180581Y0080174D01*
X0185526Y0083317D02*
X0163157Y0083317D01*
X0162717Y0083983D02*
X0160210Y0083983D01*
X0161769Y0084103D02*
X0186312Y0084103D01*
X0186081Y0084889D02*
X0187098Y0084889D01*
X0186584Y0085675D02*
X0187983Y0085675D01*
X0187983Y0086461D02*
X0186584Y0086461D01*
X0186584Y0087247D02*
X0187983Y0087247D01*
X0187983Y0088033D02*
X0186584Y0088033D01*
X0186584Y0088819D02*
X0187983Y0088819D01*
X0187983Y0089604D02*
X0186584Y0089604D01*
X0186584Y0090390D02*
X0187983Y0090390D01*
X0187983Y0091176D02*
X0186584Y0091176D01*
X0186349Y0091962D02*
X0188218Y0091962D01*
X0188447Y0101393D02*
X0173122Y0101393D01*
X0173122Y0102179D02*
X0188651Y0102179D01*
X0177544Y0102965D02*
X0151533Y0102965D01*
X0151533Y0102179D02*
X0167064Y0102179D01*
X0167064Y0101393D02*
X0151533Y0101393D01*
X0150030Y0101989D02*
X0150030Y0100485D01*
X0150932Y0099583D01*
X0169521Y0099583D01*
X0167064Y0097464D02*
X0165079Y0097464D01*
X0165079Y0096678D02*
X0167416Y0096678D01*
X0162872Y0097299D02*
X0161347Y0095774D01*
X0160218Y0095774D01*
X0160249Y0093821D02*
X0162811Y0093821D01*
X0155559Y0091906D02*
X0154462Y0091906D01*
X0149280Y0086726D01*
X0148709Y0086103D01*
X0149373Y0080081D02*
X0155522Y0080081D01*
X0155522Y0078104D02*
X0150618Y0078104D01*
X0147103Y0074590D01*
X0150800Y0074517D02*
X0152338Y0076054D01*
X0155486Y0076054D01*
X0159930Y0074191D02*
X0164427Y0074191D01*
X0170831Y0067788D01*
X0182493Y0067788D01*
X0185661Y0064517D02*
X0179202Y0064517D01*
X0177619Y0066027D02*
X0172137Y0066027D01*
X0172923Y0065241D02*
X0176895Y0065241D01*
X0176895Y0064455D02*
X0173709Y0064455D01*
X0174495Y0063669D02*
X0176895Y0063669D01*
X0177503Y0062883D02*
X0175280Y0062883D01*
X0175786Y0062098D02*
X0180581Y0062098D01*
X0180581Y0061312D02*
X0175786Y0061312D01*
X0175786Y0060526D02*
X0180581Y0060526D01*
X0180181Y0059740D02*
X0175786Y0059740D01*
X0175786Y0058954D02*
X0179395Y0058954D01*
X0178609Y0058168D02*
X0175786Y0058168D01*
X0175786Y0057382D02*
X0176692Y0057382D01*
X0176177Y0056596D02*
X0175786Y0056596D01*
X0175786Y0055810D02*
X0176177Y0055810D01*
X0176209Y0055024D02*
X0175786Y0055024D01*
X0175786Y0054238D02*
X0176994Y0054238D01*
X0175786Y0053452D02*
X0180581Y0053452D01*
X0180581Y0052667D02*
X0175786Y0052667D01*
X0175786Y0051881D02*
X0180581Y0051881D01*
X0180581Y0051095D02*
X0175786Y0051095D01*
X0175786Y0050309D02*
X0180581Y0050309D01*
X0180581Y0049523D02*
X0175786Y0049523D01*
X0175786Y0048737D02*
X0180581Y0048737D01*
X0180581Y0047951D02*
X0176131Y0047951D01*
X0176917Y0047165D02*
X0180595Y0047165D01*
X0183848Y0049713D02*
X0185933Y0049713D01*
X0187276Y0051056D01*
X0187276Y0062902D01*
X0185661Y0064517D01*
X0182192Y0058594D02*
X0180997Y0058594D01*
X0178365Y0055962D01*
X0180552Y0055810D02*
X0185889Y0055810D01*
X0185889Y0055024D02*
X0180521Y0055024D01*
X0179735Y0054238D02*
X0185889Y0054238D01*
X0187705Y0049523D02*
X0187983Y0049523D01*
X0187983Y0048737D02*
X0186919Y0048737D01*
X0186584Y0047951D02*
X0187983Y0047951D01*
X0187997Y0047165D02*
X0186570Y0047165D01*
X0189447Y0034591D02*
X0251627Y0034591D01*
X0251627Y0033805D02*
X0206803Y0033805D01*
X0206526Y0034081D02*
X0207808Y0032800D01*
X0207808Y0030988D01*
X0207497Y0030677D01*
X0207497Y0029926D01*
X0208366Y0029926D01*
X0208948Y0029344D01*
X0208948Y0023009D01*
X0208366Y0022427D01*
X0203527Y0022427D01*
X0202945Y0023009D01*
X0202945Y0029344D01*
X0203527Y0029926D01*
X0203910Y0029926D01*
X0203910Y0030511D01*
X0203433Y0030988D01*
X0203433Y0032800D01*
X0204714Y0034081D01*
X0206526Y0034081D01*
X0207589Y0033019D02*
X0251938Y0033019D01*
X0259188Y0040878D02*
X0220180Y0040878D01*
X0207808Y0032233D02*
X0238915Y0032233D01*
X0238205Y0031447D02*
X0207808Y0031447D01*
X0207497Y0030661D02*
X0238203Y0030661D01*
X0238207Y0029875D02*
X0215819Y0029875D01*
X0215767Y0029926D02*
X0210928Y0029926D01*
X0210346Y0029344D01*
X0210346Y0023009D01*
X0210928Y0022427D01*
X0215767Y0022427D01*
X0216349Y0023009D01*
X0216349Y0024622D01*
X0216394Y0024622D01*
X0216988Y0024029D01*
X0218800Y0024029D01*
X0220081Y0025310D01*
X0220081Y0027122D01*
X0218800Y0028403D01*
X0216988Y0028403D01*
X0216394Y0027810D01*
X0216349Y0027810D01*
X0216349Y0029344D01*
X0215767Y0029926D01*
X0216349Y0029089D02*
X0238207Y0029089D01*
X0238208Y0028303D02*
X0218900Y0028303D01*
X0219686Y0027517D02*
X0238208Y0027517D01*
X0238209Y0026731D02*
X0220081Y0026731D01*
X0220081Y0025946D02*
X0238209Y0025946D01*
X0238210Y0025160D02*
X0219931Y0025160D01*
X0219145Y0024374D02*
X0238210Y0024374D01*
X0238211Y0023588D02*
X0216349Y0023588D01*
X0216349Y0024374D02*
X0216643Y0024374D01*
X0216142Y0022802D02*
X0238211Y0022802D01*
X0238212Y0022016D02*
X0194119Y0022016D01*
X0194119Y0022802D02*
X0203152Y0022802D01*
X0202945Y0023588D02*
X0194119Y0023588D01*
X0194119Y0024374D02*
X0202945Y0024374D01*
X0202945Y0025160D02*
X0194119Y0025160D01*
X0194119Y0025946D02*
X0202945Y0025946D01*
X0202945Y0026731D02*
X0193816Y0026731D01*
X0189087Y0026731D02*
X0170350Y0026731D01*
X0170350Y0025946D02*
X0188785Y0025946D01*
X0188785Y0025160D02*
X0170349Y0025160D01*
X0170349Y0024374D02*
X0188785Y0024374D01*
X0188785Y0023588D02*
X0170349Y0023588D01*
X0170349Y0022802D02*
X0188785Y0022802D01*
X0188785Y0022016D02*
X0170349Y0022016D01*
X0170348Y0021230D02*
X0188785Y0021230D01*
X0188785Y0020444D02*
X0170348Y0020444D01*
X0168960Y0017774D02*
X0168963Y0028921D01*
X0171155Y0029089D02*
X0178960Y0029089D01*
X0178765Y0029875D02*
X0171101Y0029875D01*
X0171155Y0028303D02*
X0179746Y0028303D01*
X0180958Y0030215D02*
X0179636Y0031537D01*
X0155463Y0031537D01*
X0153276Y0033724D01*
X0153276Y0036392D01*
X0157344Y0036426D02*
X0157344Y0034090D01*
X0158411Y0033023D01*
X0187939Y0033023D01*
X0189371Y0031447D02*
X0203433Y0031447D01*
X0203433Y0032233D02*
X0190075Y0032233D01*
X0190075Y0033019D02*
X0203652Y0033019D01*
X0204437Y0033805D02*
X0190075Y0033805D01*
X0186404Y0031447D02*
X0182790Y0031447D01*
X0183140Y0030661D02*
X0203760Y0030661D01*
X0203475Y0029875D02*
X0183140Y0029875D01*
X0182944Y0029089D02*
X0202945Y0029089D01*
X0202945Y0028303D02*
X0182158Y0028303D01*
X0186881Y0019658D02*
X0188785Y0019658D01*
X0188785Y0018872D02*
X0186963Y0018872D01*
X0186963Y0018086D02*
X0189218Y0018086D01*
X0190888Y0017300D02*
X0186963Y0017300D01*
X0186963Y0016515D02*
X0190888Y0016515D01*
X0190888Y0015729D02*
X0186963Y0015729D01*
X0186963Y0014943D02*
X0190888Y0014943D01*
X0190888Y0014157D02*
X0186963Y0014157D01*
X0186963Y0013371D02*
X0190888Y0013371D01*
X0194119Y0018872D02*
X0238214Y0018872D01*
X0238213Y0019658D02*
X0194119Y0019658D01*
X0194119Y0020444D02*
X0238213Y0020444D01*
X0238212Y0021230D02*
X0194119Y0021230D01*
X0202945Y0027517D02*
X0170662Y0027517D01*
X0164902Y0028921D02*
X0164899Y0017774D01*
X0161054Y0017750D02*
X0161057Y0028897D01*
X0157183Y0028948D02*
X0157180Y0017801D01*
X0145484Y0017804D02*
X0145487Y0028951D01*
X0144117Y0030661D02*
X0111109Y0030661D01*
X0111109Y0029875D02*
X0143331Y0029875D01*
X0143278Y0029089D02*
X0110434Y0029089D01*
X0108926Y0030619D02*
X0110149Y0031842D01*
X0110149Y0033065D01*
X0110138Y0032999D02*
X0110138Y0037668D01*
X0113958Y0040998D02*
X0113988Y0043622D01*
X0110339Y0047267D01*
X0108743Y0048737D02*
X0096944Y0048737D01*
X0097730Y0047951D02*
X0108146Y0047951D01*
X0108146Y0047165D02*
X0098166Y0047165D01*
X0098168Y0046379D02*
X0108146Y0046379D01*
X0108881Y0045593D02*
X0098954Y0045593D01*
X0099576Y0044807D02*
X0110838Y0044807D01*
X0111625Y0044022D02*
X0099576Y0044022D01*
X0099576Y0043236D02*
X0112411Y0043236D01*
X0112185Y0042450D02*
X0111725Y0042450D01*
X0108248Y0042450D02*
X0107788Y0042450D01*
X0104311Y0042450D02*
X0103851Y0042450D01*
X0100374Y0042450D02*
X0099914Y0042450D01*
X0098189Y0040685D02*
X0098189Y0044397D01*
X0095996Y0046589D01*
X0095977Y0042450D02*
X0096437Y0042450D01*
X0092499Y0042450D02*
X0092040Y0042450D01*
X0102237Y0037409D02*
X0102245Y0033935D01*
X0100588Y0032088D01*
X0102228Y0030661D02*
X0103851Y0030661D01*
X0104889Y0031447D02*
X0102787Y0031447D01*
X0102787Y0032233D02*
X0104889Y0032233D01*
X0104889Y0033019D02*
X0103290Y0033019D01*
X0103641Y0033805D02*
X0104889Y0033805D01*
X0104175Y0034591D02*
X0103986Y0034591D01*
X0106276Y0036074D02*
X0106276Y0031405D01*
X0106304Y0031465D02*
X0106304Y0029994D01*
X0104863Y0028552D01*
X0107051Y0028303D02*
X0143278Y0028303D01*
X0143770Y0027517D02*
X0106894Y0027517D01*
X0106108Y0026731D02*
X0112339Y0026731D01*
X0113684Y0024991D02*
X0113670Y0018093D01*
X0112288Y0020444D02*
X0111152Y0020444D01*
X0111518Y0021230D02*
X0112289Y0021230D01*
X0112291Y0022016D02*
X0111931Y0022016D01*
X0111931Y0022802D02*
X0112293Y0022802D01*
X0111999Y0023588D02*
X0111798Y0023588D01*
X0111503Y0024374D02*
X0111012Y0024374D01*
X0109765Y0022552D02*
X0109765Y0018255D01*
X0115063Y0020444D02*
X0115623Y0020444D01*
X0115623Y0021230D02*
X0115064Y0021230D01*
X0115066Y0022016D02*
X0115709Y0022016D01*
X0115067Y0022802D02*
X0116495Y0022802D01*
X0115382Y0023588D02*
X0144098Y0023588D01*
X0144098Y0024374D02*
X0115878Y0024374D01*
X0115878Y0025160D02*
X0144098Y0025160D01*
X0144098Y0025946D02*
X0115828Y0025946D01*
X0115042Y0026731D02*
X0144099Y0026731D01*
X0144098Y0022802D02*
X0142627Y0022802D01*
X0143413Y0022016D02*
X0144098Y0022016D01*
X0144097Y0021230D02*
X0143499Y0021230D01*
X0143499Y0020444D02*
X0144097Y0020444D01*
X0141323Y0021021D02*
X0141323Y0018157D01*
X0137452Y0018140D02*
X0137452Y0021005D01*
X0138763Y0022802D02*
X0139996Y0022802D01*
X0136132Y0022802D02*
X0134841Y0022802D01*
X0133547Y0021021D02*
X0133547Y0018157D01*
X0129592Y0018156D02*
X0129592Y0021021D01*
X0130890Y0022802D02*
X0132210Y0022802D01*
X0128260Y0022802D02*
X0127055Y0022802D01*
X0125751Y0021056D02*
X0125751Y0018191D01*
X0121733Y0018184D02*
X0121733Y0021049D01*
X0123047Y0022802D02*
X0124425Y0022802D01*
X0120417Y0022802D02*
X0119125Y0022802D01*
X0117814Y0021056D02*
X0117814Y0018191D01*
X0107408Y0029089D02*
X0107362Y0029089D01*
X0111536Y0031447D02*
X0136321Y0031447D01*
X0135535Y0032233D02*
X0111536Y0032233D01*
X0111536Y0033019D02*
X0135409Y0033019D01*
X0135409Y0033805D02*
X0111526Y0033805D01*
X0111860Y0034591D02*
X0112049Y0034591D01*
X0115797Y0034591D02*
X0115986Y0034591D01*
X0119734Y0034591D02*
X0119923Y0034591D01*
X0123671Y0034591D02*
X0123860Y0034591D01*
X0127608Y0034591D02*
X0127797Y0034591D01*
X0131545Y0034591D02*
X0131734Y0034591D01*
X0135482Y0034591D02*
X0135671Y0034591D01*
X0137595Y0033232D02*
X0137595Y0036097D01*
X0141545Y0036097D02*
X0141545Y0033232D01*
X0142817Y0031447D02*
X0144170Y0031447D01*
X0145485Y0033212D02*
X0145485Y0036077D01*
X0149487Y0040203D02*
X0149487Y0041554D01*
X0157300Y0040719D02*
X0157300Y0042727D01*
X0153670Y0049523D02*
X0167585Y0049523D01*
X0167585Y0050309D02*
X0153670Y0050309D01*
X0153250Y0051095D02*
X0167585Y0051095D01*
X0167585Y0051881D02*
X0152464Y0051881D01*
X0151678Y0052667D02*
X0167585Y0052667D01*
X0167585Y0053452D02*
X0151455Y0053452D01*
X0151455Y0054238D02*
X0167585Y0054238D01*
X0167585Y0055024D02*
X0151455Y0055024D01*
X0151533Y0055810D02*
X0167585Y0055810D01*
X0167585Y0056596D02*
X0162050Y0056596D01*
X0162746Y0057382D02*
X0167585Y0057382D01*
X0167585Y0058168D02*
X0162746Y0058168D01*
X0162746Y0058954D02*
X0167585Y0058954D01*
X0167269Y0059740D02*
X0162110Y0059740D01*
X0161769Y0061312D02*
X0165697Y0061312D01*
X0164911Y0062098D02*
X0162549Y0062098D01*
X0162549Y0062883D02*
X0164125Y0062883D01*
X0163339Y0063669D02*
X0162549Y0063669D01*
X0162553Y0064455D02*
X0161997Y0064455D01*
X0160381Y0063009D02*
X0155404Y0063009D01*
X0152544Y0065869D01*
X0132974Y0065869D01*
X0130368Y0063264D01*
X0130368Y0061103D01*
X0122542Y0064376D02*
X0119467Y0064376D01*
X0112878Y0063559D02*
X0112878Y0066122D01*
X0110408Y0068257D02*
X0109085Y0068257D01*
X0108120Y0067292D01*
X0108120Y0063498D01*
X0084478Y0061312D02*
X0083502Y0061312D01*
X0083502Y0057382D02*
X0084478Y0057382D01*
X0084478Y0056596D02*
X0083502Y0056596D01*
X0065294Y0066027D02*
X0065157Y0066027D01*
X0115662Y0042450D02*
X0116122Y0042450D01*
X0124846Y0044012D02*
X0129287Y0044012D01*
X0129575Y0043723D01*
X0129574Y0043683D02*
X0129574Y0040818D01*
X0130934Y0043339D02*
X0132962Y0041311D01*
X0132962Y0041195D01*
X0130934Y0043339D02*
X0130934Y0044730D01*
X0130007Y0045657D01*
X0128536Y0045657D01*
X0127110Y0047082D01*
X0144157Y0060828D02*
X0144157Y0062755D01*
X0145597Y0064196D01*
X0151930Y0064196D01*
X0155340Y0060785D01*
X0157840Y0060785D01*
X0159996Y0060526D02*
X0166483Y0060526D01*
X0160551Y0058222D02*
X0155552Y0058222D01*
X0150977Y0062798D01*
X0147249Y0062798D01*
X0146021Y0061569D01*
X0151533Y0059740D02*
X0152072Y0059740D01*
X0151533Y0058954D02*
X0152858Y0058954D01*
X0153644Y0058168D02*
X0151533Y0058168D01*
X0151533Y0057382D02*
X0154430Y0057382D01*
X0151533Y0056596D02*
X0159067Y0056596D01*
X0163635Y0074140D02*
X0163635Y0075386D01*
X0193986Y0077030D02*
X0194914Y0077030D01*
X0194700Y0080959D02*
X0193986Y0080959D01*
X0225245Y0063669D02*
X0226019Y0063669D01*
X0249476Y0084103D02*
X0251767Y0084103D01*
X0251651Y0084889D02*
X0250262Y0084889D01*
X0251048Y0085675D02*
X0251651Y0085675D01*
X0188468Y0113968D02*
X0184866Y0113968D01*
X0184866Y0114754D02*
X0188468Y0114754D01*
X0188624Y0115540D02*
X0184709Y0115540D01*
X0177523Y0115540D02*
X0172988Y0115540D01*
X0172988Y0114754D02*
X0177366Y0114754D01*
X0177366Y0113968D02*
X0172988Y0113968D01*
X0172988Y0113182D02*
X0177366Y0113182D01*
X0177366Y0112396D02*
X0172988Y0112396D01*
X0172988Y0111610D02*
X0177366Y0111610D01*
X0177851Y0108466D02*
X0147518Y0108466D01*
X0147513Y0107680D02*
X0177366Y0107680D01*
X0177366Y0106895D02*
X0151533Y0106895D01*
X0151533Y0106109D02*
X0177366Y0106109D01*
X0177366Y0105323D02*
X0151533Y0105323D01*
X0151533Y0104537D02*
X0177366Y0104537D01*
X0177366Y0103751D02*
X0151533Y0103751D01*
X0132352Y0101315D02*
X0132352Y0096738D01*
X0134145Y0094945D01*
X0128435Y0095750D02*
X0128435Y0101351D01*
X0120528Y0101461D02*
X0120528Y0099447D01*
X0122360Y0110038D02*
X0123092Y0110038D01*
X0138872Y0031447D02*
X0140266Y0031447D01*
X0208417Y0029875D02*
X0210877Y0029875D01*
X0210346Y0029089D02*
X0208948Y0029089D01*
X0208948Y0028303D02*
X0210346Y0028303D01*
X0210346Y0027517D02*
X0208948Y0027517D01*
X0208948Y0026731D02*
X0210346Y0026731D01*
X0210346Y0025946D02*
X0208948Y0025946D01*
X0208948Y0025160D02*
X0210346Y0025160D01*
X0210346Y0024374D02*
X0208948Y0024374D01*
X0208948Y0023588D02*
X0210346Y0023588D01*
X0210554Y0022802D02*
X0208740Y0022802D01*
X0216349Y0028303D02*
X0216888Y0028303D01*
D37*
X0147632Y0113446D02*
X0147621Y0123800D01*
X0137690Y0125324D02*
X0158589Y0125324D01*
X0159421Y0126156D01*
X0159585Y0126581D02*
X0169894Y0114451D01*
X0137690Y0125324D02*
X0137274Y0125739D01*
X0137274Y0150181D01*
X0127604Y0148620D02*
X0125212Y0146228D01*
X0084663Y0146228D01*
X0080087Y0141652D01*
D38*
X0159951Y0081955D02*
X0162406Y0081955D01*
X0166065Y0078296D01*
X0182800Y0078296D01*
X0184403Y0080082D02*
X0188043Y0083722D01*
X0246983Y0083722D01*
X0250428Y0087167D01*
X0250428Y0108802D01*
X0249819Y0109411D01*
X0247326Y0109411D01*
X0238938Y0103360D02*
X0235040Y0103360D01*
X0233653Y0104746D01*
X0233653Y0109079D01*
X0230421Y0112311D01*
X0182667Y0112311D01*
X0182715Y0112284D02*
X0182715Y0119446D01*
X0189753Y0126484D01*
X0179123Y0105225D02*
X0176761Y0105225D01*
D39*
X0050269Y0086541D02*
X0050269Y0083200D01*
X0048879Y0083200D01*
X0048813Y0086541D02*
X0050269Y0086541D01*
D40*
X0038359Y0026227D02*
X0038359Y0023174D01*
X0041708Y0019825D01*
X0058693Y0019825D01*
X0060128Y0021261D01*
X0060128Y0024791D01*
X0184869Y0040004D02*
X0184869Y0043294D01*
X0185268Y0039804D02*
X0187710Y0039754D01*
X0191056Y0050773D02*
X0191056Y0079245D01*
X0191044Y0079125D02*
X0195986Y0079125D01*
X0196738Y0088744D02*
X0191570Y0088744D01*
X0209832Y0104043D02*
X0209832Y0108768D01*
X0159045Y0109949D02*
X0155501Y0113492D01*
X0213892Y0153674D02*
X0217957Y0153674D01*
X0216785Y0039884D02*
X0212321Y0039884D01*
X0216735Y0039883D02*
X0220502Y0039883D01*
X0217859Y0026216D02*
X0214431Y0026216D01*
M02*
